<svg xmlns:xlink="http://www.w3.org/1999/xlink" xmlns="http://www.w3.org/2000/svg" width="51" height="24" viewBox="0 0 51 24" fill="none">
<path d="M17.507 19.7505C16.5413 20.7364 15.4869 20.5807 14.4719 20.1137C13.3979 19.6364 12.4125 19.6156 11.2793 20.1137C9.86029 20.7571 9.11139 20.5703 8.26395 19.7505C3.45522 14.5306 4.16471 6.58141 9.6238 6.29084C10.9541 6.36348 11.8803 7.05878 12.6588 7.12104C13.8216 6.87198 14.9351 6.15593 16.1767 6.24933C17.6646 6.37386 18.788 6.99651 19.527 8.11729C16.4526 10.0579 17.1818 14.3231 20 15.5165C19.4383 17.0731 18.7091 18.6194 17.4971 19.7609L17.507 19.7505ZM12.5603 6.22857C12.4125 3.91438 14.196 2.00491 16.2456 1.81812C16.5314 4.49552 13.9398 6.48801 12.5603 6.22857Z" fill="url(#paint0_linear_1228_19602)"/>
<g clip-path="url(#clip0_1228_19602)">
<path d="M38.9187 12.054L31.5105 19.8155C31.5937 20.1103 31.7432 20.3822 31.9476 20.6104C32.152 20.8386 32.4058 21.017 32.6897 21.1321C32.9736 21.2471 33.2801 21.2957 33.5857 21.2742C33.8912 21.2527 34.1878 21.1615 34.4528 21.0078L42.7884 16.2604L38.9187 12.054Z" fill="#EA4335"/>
<path d="M46.4096 10.7348L42.805 8.67017L38.7476 12.2307L42.8215 16.2495L46.3987 14.2069C46.7156 14.041 46.981 13.7915 47.1662 13.4855C47.3514 13.1794 47.4493 12.8285 47.4493 12.4708C47.4493 12.1131 47.3514 11.7623 47.1662 11.4562C46.981 11.1502 46.7156 10.9007 46.3987 10.7348H46.4097L46.4096 10.7348Z" fill="#FBBC04"/>
<path d="M31.5105 5.08765C31.4657 5.25319 31.4434 5.42401 31.4442 5.5955V19.3078C31.4447 19.4792 31.467 19.6499 31.5105 19.8157L39.1726 12.2529L31.5105 5.08765Z" fill="#4285F4"/>
<path d="M38.9739 12.4516L42.805 8.67019L34.4804 3.90067C34.1672 3.71724 33.811 3.6201 33.4481 3.61914C32.5473 3.61739 31.7555 4.21521 31.5105 5.08205L38.9739 12.4516Z" fill="#34A853"/>
</g>
<defs>
<linearGradient id="paint0_linear_1228_19602" x1="2.5" y1="11" x2="20" y2="19.5" gradientUnits="userSpaceOnUse">
<stop stop-color="white"/>
<stop offset="1" stop-color="#9C9C9C"/>
</linearGradient>
<clipPath id="clip0_1228_19602">
<rect width="16.0051" height="17.6931" fill="white" transform="translate(31.4442 3.61914)"/>
</clipPath>
</defs>
</svg>