<svg width="390" height="80" viewBox="0 0 390 80" fill="none" xmlns="http://www.w3.org/2000/svg">
<g clip-path="url(#clip0_301_3197)">
<rect width="390" height="80" fill="#180937"/>
<path d="M152.562 35.6147C151.419 35.4197 150.193 35.2944 148.897 35.2944C146.737 35.2944 144.842 35.5729 143.114 36.1161V49.8491H136.815V30.1689H138.39L140.522 31.4224C143.044 30.0435 145.845 29.375 149.259 29.375C150.486 29.375 151.586 29.4864 152.562 29.6536V35.6147Z" fill="white"/>
<path d="M166.387 50.6568C157.566 50.6568 155.127 46.2417 155.127 40.8098V39.236C155.127 33.8041 157.566 29.3889 166.387 29.3889H167.488C176.462 29.3889 178.315 32.2302 178.315 35.6843V36.0743C178.315 39.222 177.368 41.9798 167.529 41.9798C165.16 41.9798 163.196 41.7848 161.426 41.2694C161.537 43.5118 162.332 44.9325 167.571 44.9325C170.052 44.9325 174.037 44.5425 176.754 43.7486V49.654C174.037 50.2808 170.135 50.6429 167.139 50.6429H166.387V50.6568ZM161.621 37.0771C163.154 37.4671 164.854 37.6621 167.139 37.6621C171.752 37.6621 172.016 36.8682 172.016 36.1718C172.016 35.4197 171.78 34.3194 167.529 34.3194C163.349 34.3194 162.011 35.2943 161.621 37.0771Z" fill="white"/>
<path d="M183.832 30.1828L185.964 31.4363C188.486 30.0575 191.287 29.3889 194.701 29.3889C203.522 29.3889 205.961 33.8041 205.961 39.236V49.863H199.662V40.0159C199.662 37.4532 199.662 35.0994 194.339 35.0994C192.179 35.0994 190.284 35.4197 188.556 35.9629V49.863H182.257V30.1828H183.832Z" fill="white"/>
<path d="M216.007 30.183H222.069V35.6985H216.007V41.9939C216.007 43.7209 216.161 44.7516 219.714 44.7516C220.94 44.7516 222.348 44.6402 223.379 44.3199V50.0721C222.32 50.3507 220.898 50.4621 219.435 50.4621C212.342 50.4621 209.709 47.7043 209.709 42.7878V22.3137H211.283L216.007 25.0715V30.183Z" fill="white"/>
<path d="M250.427 49.863H248.853L246.721 48.6373C244.087 50.0162 241.286 50.6429 237.663 50.6429C229.162 50.6429 226.71 47.537 226.71 44.0272V43.6372C226.71 40.3363 229.343 37.6203 237.537 37.6203C240.171 37.6203 242.261 37.8571 244.115 38.3724C244.031 36.2833 243.488 35.0994 238.29 35.0994C235.489 35.0994 231.587 35.4894 228.87 36.2833V30.3778C231.587 29.751 235.489 29.3889 238.485 29.3889C247.264 29.3889 250.413 32.4252 250.413 38.0521V49.863H250.427ZM244.129 44.9046V43.0522C242.359 42.5787 240.38 42.3419 237.941 42.3419C233.259 42.3419 233.022 43.289 233.022 44.069C233.022 45.0161 233.343 45.7264 238.346 45.7264C240.464 45.7264 242.359 45.4617 244.129 44.9046Z" fill="white"/>
<path d="M256.143 20.3359L260.867 23.0937V49.8631H254.568V20.3359H256.143Z" fill="white"/>
<path d="M265.005 23.2887C265.005 21.673 265.757 20.3359 268.391 20.3359H268.711C271.345 20.3359 272.098 21.673 272.098 23.2887V23.7622C272.098 25.3778 271.345 26.7149 268.711 26.7149H268.391C265.757 26.7149 265.005 25.3778 265.005 23.7622V23.2887ZM266.984 30.183L271.708 32.9407V49.8631H265.409V30.183H266.984Z" fill="white"/>
<path d="M282.147 30.183H288.209V35.6985H282.147V41.9939C282.147 43.7209 282.3 44.7516 285.854 44.7516C287.08 44.7516 288.487 44.6402 289.518 44.3199V50.0721C288.459 50.3507 287.038 50.4621 285.575 50.4621C278.482 50.4621 275.848 47.7043 275.848 42.7878V22.3137H277.423L282.147 25.0715V30.183Z" fill="white"/>
<path d="M305.735 52.0358C303.686 56.6459 301.791 59.71 296.551 59.71C295.534 59.71 294.182 59.5986 293.249 59.3201V53.735C294.155 53.93 295.492 54.0135 296.287 54.0135C298.893 54.0135 299.394 52.9968 300.23 51.2558L300.509 50.5873L291.103 31.7706V30.1968H297.011L303.268 43.7765L308.786 30.1968H314.695V31.7706L305.735 52.0358Z" fill="white"/>
<path d="M111.19 33.1912L104.919 36.8124C104.961 44.9741 104.989 49.055 104.989 49.055C106.494 50.0996 108.849 51.5481 111.259 52.5649C111.273 52.1192 111.259 51.6596 111.259 51.1582L111.19 33.1912Z" fill="url(#paint0_linear_301_3197)"/>
<path d="M120.665 46.2556L120.693 35.2943L120.665 27.7314L114.282 31.4084L114.338 43.6371C114.352 46.5342 114.561 50.434 114.115 53.512C115.495 53.8324 116.791 53.8742 117.836 53.4703C119.898 52.7042 120.874 50.2111 120.665 46.2556Z" fill="url(#paint1_linear_301_3197)"/>
<path d="M89.546 17.3551C95.6356 13.7339 97.5447 12.55 103.676 16.2966C114.1 22.3692 119.311 25.4055 119.311 25.4055C115.033 27.8428 112.887 29.0546 112.887 29.0546C108.094 26.2551 104.554 24.1937 102.269 22.8567C98.4644 20.6421 92.8765 16.8537 89.546 17.3551Z" fill="url(#paint2_linear_301_3197)"/>
<path d="M80.0704 22.8149C86.1601 19.1936 88.0692 18.0097 94.2006 21.7563C104.624 27.8289 109.836 30.8513 109.836 30.8513C105.558 33.2886 103.412 34.5004 103.412 34.5004C98.6181 31.7009 95.0785 29.6395 92.7932 28.3025C88.9889 26.1019 83.4009 22.3274 80.0704 22.8149Z" fill="url(#paint3_linear_301_3197)"/>
<path d="M85.4946 46.896L91.7654 43.2747C91.7236 35.1129 91.6958 31.032 91.6958 31.032C90.1908 29.9874 87.8357 28.539 85.425 27.5222C85.411 27.9679 85.425 28.4275 85.425 28.9289L85.4946 46.896Z" fill="url(#paint4_linear_301_3197)"/>
<path d="M76.0309 33.8318L76.003 44.7931L76.0309 52.356L82.4131 48.679L82.3574 36.4503C82.3435 33.5533 82.1344 29.6535 82.5804 26.5754C81.2008 26.2551 79.9048 26.2133 78.8597 26.6172C76.7973 27.3972 75.8079 29.8763 76.0309 33.8318Z" fill="url(#paint5_linear_301_3197)"/>
<path d="M107.147 62.7461C101.058 66.3674 99.1487 67.5512 93.0172 63.8046C82.5938 57.732 77.382 54.6957 77.382 54.6957C81.6601 52.2584 83.8061 51.0466 83.8061 51.0466C88.5998 53.8461 92.1393 55.9075 94.4247 57.2446C98.229 59.4591 103.817 63.2336 107.147 62.7461Z" fill="url(#paint6_linear_301_3197)"/>
<path d="M116.609 57.2724C110.519 60.8937 108.61 62.0776 102.479 58.331C92.0551 52.2584 86.8434 49.236 86.8434 49.236C91.1215 46.7986 93.2675 45.5869 93.2675 45.5869C98.0612 48.3864 101.601 50.4477 103.886 51.7848C107.69 53.9854 113.278 57.7599 116.609 57.2724Z" fill="url(#paint7_linear_301_3197)"/>
</g>
<defs>
<linearGradient id="paint0_linear_301_3197" x1="104.302" y1="48.3538" x2="115.442" y2="37.5905" gradientUnits="userSpaceOnUse">
<stop stop-color="#4B31B1"/>
<stop offset="0.0886" stop-color="#5D41C4"/>
<stop offset="0.214" stop-color="#7152D8"/>
<stop offset="0.3396" stop-color="#7C5CE4"/>
<stop offset="0.4649" stop-color="#805FE8"/>
<stop offset="0.5515" stop-color="#8065E9"/>
<stop offset="0.6688" stop-color="#7F76ED"/>
<stop offset="0.8036" stop-color="#7E93F3"/>
<stop offset="0.9506" stop-color="#7CBAFC"/>
<stop offset="1" stop-color="#7BC9FF"/>
</linearGradient>
<linearGradient id="paint1_linear_301_3197" x1="109.616" y1="48.8632" x2="125.888" y2="33.1412" gradientUnits="userSpaceOnUse">
<stop stop-color="#4B31B1"/>
<stop offset="0.0886" stop-color="#5D41C4"/>
<stop offset="0.214" stop-color="#7152D8"/>
<stop offset="0.3396" stop-color="#7C5CE4"/>
<stop offset="0.4649" stop-color="#805FE8"/>
<stop offset="0.5515" stop-color="#8065E9"/>
<stop offset="0.6688" stop-color="#7F76ED"/>
<stop offset="0.8036" stop-color="#7E93F3"/>
<stop offset="0.9506" stop-color="#7CBAFC"/>
<stop offset="1" stop-color="#7BC9FF"/>
</linearGradient>
<linearGradient id="paint2_linear_301_3197" x1="98.7363" y1="26.8668" x2="110.111" y2="15.8764" gradientUnits="userSpaceOnUse">
<stop stop-color="#4B31B1"/>
<stop offset="0.0886" stop-color="#5D41C4"/>
<stop offset="0.214" stop-color="#7152D8"/>
<stop offset="0.3396" stop-color="#7C5CE4"/>
<stop offset="0.4649" stop-color="#805FE8"/>
<stop offset="0.5515" stop-color="#8065E9"/>
<stop offset="0.6688" stop-color="#7F76ED"/>
<stop offset="0.8036" stop-color="#7E93F3"/>
<stop offset="0.9506" stop-color="#7CBAFC"/>
<stop offset="1" stop-color="#7BC9FF"/>
</linearGradient>
<linearGradient id="paint3_linear_301_3197" x1="89.2673" y1="32.331" x2="100.644" y2="21.3392" gradientUnits="userSpaceOnUse">
<stop stop-color="#4B31B1"/>
<stop offset="0.0886" stop-color="#5D41C4"/>
<stop offset="0.214" stop-color="#7152D8"/>
<stop offset="0.3396" stop-color="#7C5CE4"/>
<stop offset="0.4649" stop-color="#805FE8"/>
<stop offset="0.5515" stop-color="#8065E9"/>
<stop offset="0.6688" stop-color="#7F76ED"/>
<stop offset="0.8036" stop-color="#7E93F3"/>
<stop offset="0.9506" stop-color="#7CBAFC"/>
<stop offset="1" stop-color="#7BC9FF"/>
</linearGradient>
<linearGradient id="paint4_linear_301_3197" x1="82.4904" y1="41.2926" x2="93.6303" y2="30.5295" gradientUnits="userSpaceOnUse">
<stop stop-color="#4B31B1"/>
<stop offset="0.0886" stop-color="#5D41C4"/>
<stop offset="0.214" stop-color="#7152D8"/>
<stop offset="0.3396" stop-color="#7C5CE4"/>
<stop offset="0.4649" stop-color="#805FE8"/>
<stop offset="0.6084" stop-color="#8069E8"/>
<stop offset="0.8475" stop-color="#8082E7"/>
<stop offset="1" stop-color="#8096E7"/>
</linearGradient>
<linearGradient id="paint5_linear_301_3197" x1="72.4803" y1="45.3136" x2="88.7525" y2="29.5917" gradientUnits="userSpaceOnUse">
<stop stop-color="#4B31B1"/>
<stop offset="0.0886" stop-color="#5D41C4"/>
<stop offset="0.214" stop-color="#7152D8"/>
<stop offset="0.3396" stop-color="#7C5CE4"/>
<stop offset="0.4649" stop-color="#805FE8"/>
<stop offset="0.6084" stop-color="#8069E8"/>
<stop offset="0.8475" stop-color="#8082E7"/>
<stop offset="1" stop-color="#8096E7"/>
</linearGradient>
<linearGradient id="paint6_linear_301_3197" x1="88.1353" y1="62.6989" x2="99.5105" y2="51.7085" gradientUnits="userSpaceOnUse">
<stop stop-color="#4B31B1"/>
<stop offset="0.0886" stop-color="#5D41C4"/>
<stop offset="0.214" stop-color="#7152D8"/>
<stop offset="0.3396" stop-color="#7C5CE4"/>
<stop offset="0.4649" stop-color="#805FE8"/>
<stop offset="0.6084" stop-color="#8069E8"/>
<stop offset="0.8475" stop-color="#8082E7"/>
<stop offset="1" stop-color="#8096E7"/>
</linearGradient>
<linearGradient id="paint7_linear_301_3197" x1="96.9012" y1="57.9131" x2="108.278" y2="46.9213" gradientUnits="userSpaceOnUse">
<stop stop-color="#4B31B1"/>
<stop offset="0.0886" stop-color="#5D41C4"/>
<stop offset="0.214" stop-color="#7152D8"/>
<stop offset="0.3396" stop-color="#7C5CE4"/>
<stop offset="0.4649" stop-color="#805FE8"/>
<stop offset="0.6084" stop-color="#8069E8"/>
<stop offset="0.8475" stop-color="#8082E7"/>
<stop offset="1" stop-color="#8096E7"/>
</linearGradient>
<clipPath id="clip0_301_3197">
<rect width="390" height="80" fill="white"/>
</clipPath>
</defs>
</svg>
