<svg width="208" height="35" viewBox="0 0 208 35" fill="none" xmlns="http://www.w3.org/2000/svg">
<g filter="url(#filter0_b_3247_546)">
<rect width="208" height="35" rx="17.5" fill="white" fill-opacity="0.1"/>
<path d="M27.5309 21.3404H38.0198C40.2235 21.3404 41.9497 19.6854 41.9497 17.5726C41.9497 15.4598 40.1878 13.6614 38.0214 13.6614H32.7372C32.2403 13.6614 31.8327 14.0703 31.8327 14.5688V20.2018H27.5309V14.3912C27.5309 11.6105 29.7865 9.3479 32.5586 9.3479H38.2406C42.7779 9.3479 46.4691 13.0375 46.4691 17.571C46.4691 22.1044 42.8542 25.6523 38.2406 25.6523H27.5309V21.3388V21.3404Z" fill="#AEAEAE"/>
<path d="M58.1477 23V11.3636H65.6023V13.1307H60.2557V16.2898H65.0909V18.0568H60.2557V23H58.1477ZM70.598 23.1705C69.7457 23.1705 69.0071 22.983 68.3821 22.608C67.7571 22.233 67.2723 21.7083 66.9276 21.0341C66.5866 20.3598 66.4162 19.572 66.4162 18.6705C66.4162 17.7689 66.5866 16.9792 66.9276 16.3011C67.2723 15.6231 67.7571 15.0966 68.3821 14.7216C69.0071 14.3466 69.7457 14.1591 70.598 14.1591C71.4503 14.1591 72.1889 14.3466 72.8139 14.7216C73.4389 15.0966 73.9219 15.6231 74.2628 16.3011C74.6075 16.9792 74.7798 17.7689 74.7798 18.6705C74.7798 19.572 74.6075 20.3598 74.2628 21.0341C73.9219 21.7083 73.4389 22.233 72.8139 22.608C72.1889 22.983 71.4503 23.1705 70.598 23.1705ZM70.6094 21.5227C71.0715 21.5227 71.4579 21.3958 71.7685 21.142C72.0791 20.8845 72.3101 20.5398 72.4616 20.108C72.617 19.6761 72.6946 19.1951 72.6946 18.6648C72.6946 18.1307 72.617 17.6477 72.4616 17.2159C72.3101 16.7803 72.0791 16.4337 71.7685 16.1761C71.4579 15.9186 71.0715 15.7898 70.6094 15.7898C70.1359 15.7898 69.742 15.9186 69.4276 16.1761C69.117 16.4337 68.884 16.7803 68.7287 17.2159C68.5772 17.6477 68.5014 18.1307 68.5014 18.6648C68.5014 19.1951 68.5772 19.6761 68.7287 20.108C68.884 20.5398 69.117 20.8845 69.4276 21.142C69.742 21.3958 70.1359 21.5227 70.6094 21.5227ZM82.0881 19.3295V14.2727H84.1449V23H82.1506V21.4489H82.0597C81.8627 21.9375 81.5388 22.3371 81.0881 22.6477C80.6411 22.9583 80.09 23.1136 79.4347 23.1136C78.8627 23.1136 78.357 22.9867 77.9176 22.733C77.482 22.4754 77.1411 22.1023 76.8949 21.6136C76.6487 21.1212 76.5256 20.5265 76.5256 19.8295V14.2727H78.5824V19.5114C78.5824 20.0644 78.7339 20.5038 79.0369 20.8295C79.34 21.1553 79.7377 21.3182 80.2301 21.3182C80.5331 21.3182 80.8267 21.2443 81.1108 21.0966C81.3949 20.9489 81.6278 20.7292 81.8097 20.4375C81.9953 20.142 82.0881 19.7727 82.0881 19.3295ZM88.3168 17.8864V23H86.2599V14.2727H88.2259V15.7557H88.3281C88.5289 15.267 88.849 14.8788 89.2884 14.5909C89.7315 14.303 90.2789 14.1591 90.9304 14.1591C91.5327 14.1591 92.0573 14.2879 92.5043 14.5455C92.955 14.803 93.3035 15.1761 93.5497 15.6648C93.7997 16.1534 93.9228 16.7462 93.919 17.4432V23H91.8622V17.7614C91.8622 17.178 91.7107 16.7216 91.4077 16.392C91.1084 16.0625 90.6937 15.8977 90.1634 15.8977C89.8035 15.8977 89.4834 15.9773 89.2031 16.1364C88.9266 16.2917 88.7088 16.517 88.5497 16.8125C88.3944 17.108 88.3168 17.4659 88.3168 17.8864ZM99.2486 23.1534C98.563 23.1534 97.9493 22.9773 97.4077 22.625C96.866 22.2727 96.438 21.7614 96.1236 21.0909C95.8092 20.4205 95.652 19.6061 95.652 18.6477C95.652 17.678 95.8111 16.8598 96.1293 16.1932C96.4512 15.5227 96.8849 15.017 97.4304 14.6761C97.9759 14.3314 98.5838 14.1591 99.2543 14.1591C99.7656 14.1591 100.186 14.2462 100.516 14.4205C100.845 14.5909 101.107 14.7973 101.3 15.0398C101.493 15.2784 101.643 15.5038 101.749 15.7159H101.834V11.3636H103.896V23H101.874V21.625H101.749C101.643 21.8371 101.489 22.0625 101.288 22.3011C101.088 22.536 100.822 22.7367 100.493 22.9034C100.163 23.0701 99.7486 23.1534 99.2486 23.1534ZM99.8224 21.4659C100.258 21.4659 100.629 21.3485 100.936 21.1136C101.243 20.875 101.476 20.5436 101.635 20.1193C101.794 19.6951 101.874 19.2008 101.874 18.6364C101.874 18.072 101.794 17.5814 101.635 17.1648C101.48 16.7481 101.249 16.4242 100.942 16.1932C100.639 15.9621 100.266 15.8466 99.8224 15.8466C99.3641 15.8466 98.9815 15.9659 98.6747 16.2045C98.3679 16.4432 98.1368 16.7727 97.9815 17.1932C97.8262 17.6136 97.7486 18.0947 97.7486 18.6364C97.7486 19.1818 97.8262 19.6686 97.9815 20.0966C98.1406 20.5208 98.3736 20.8561 98.6804 21.1023C98.991 21.3447 99.3717 21.4659 99.8224 21.4659ZM113.864 23.1705C113.011 23.1705 112.273 22.983 111.648 22.608C111.023 22.233 110.538 21.7083 110.193 21.0341C109.852 20.3598 109.682 19.572 109.682 18.6705C109.682 17.7689 109.852 16.9792 110.193 16.3011C110.538 15.6231 111.023 15.0966 111.648 14.7216C112.273 14.3466 113.011 14.1591 113.864 14.1591C114.716 14.1591 115.455 14.3466 116.08 14.7216C116.705 15.0966 117.188 15.6231 117.528 16.3011C117.873 16.9792 118.045 17.7689 118.045 18.6705C118.045 19.572 117.873 20.3598 117.528 21.0341C117.188 21.7083 116.705 22.233 116.08 22.608C115.455 22.983 114.716 23.1705 113.864 23.1705ZM113.875 21.5227C114.337 21.5227 114.723 21.3958 115.034 21.142C115.345 20.8845 115.576 20.5398 115.727 20.108C115.883 19.6761 115.96 19.1951 115.96 18.6648C115.96 18.1307 115.883 17.6477 115.727 17.2159C115.576 16.7803 115.345 16.4337 115.034 16.1761C114.723 15.9186 114.337 15.7898 113.875 15.7898C113.402 15.7898 113.008 15.9186 112.693 16.1761C112.383 16.4337 112.15 16.7803 111.994 17.2159C111.843 17.6477 111.767 18.1307 111.767 18.6648C111.767 19.1951 111.843 19.6761 111.994 20.108C112.15 20.5398 112.383 20.8845 112.693 21.142C113.008 21.3958 113.402 21.5227 113.875 21.5227ZM121.848 17.8864V23H119.791V14.2727H121.757V15.7557H121.859C122.06 15.267 122.38 14.8788 122.82 14.5909C123.263 14.303 123.81 14.1591 124.462 14.1591C125.064 14.1591 125.589 14.2879 126.036 14.5455C126.486 14.803 126.835 15.1761 127.081 15.6648C127.331 16.1534 127.454 16.7462 127.45 17.4432V23H125.393V17.7614C125.393 17.178 125.242 16.7216 124.939 16.392C124.64 16.0625 124.225 15.8977 123.695 15.8977C123.335 15.8977 123.015 15.9773 122.734 16.1364C122.458 16.2917 122.24 16.517 122.081 16.8125C121.926 17.108 121.848 17.4659 121.848 17.8864ZM137.544 23H133.601V11.3636H137.624C138.779 11.3636 139.771 11.5966 140.601 12.0625C141.434 12.5246 142.074 13.1894 142.521 14.0568C142.968 14.9242 143.192 15.9621 143.192 17.1705C143.192 18.3826 142.966 19.4242 142.516 20.2955C142.069 21.1667 141.423 21.8352 140.578 22.3011C139.737 22.767 138.726 23 137.544 23ZM135.709 21.1761H137.442C138.252 21.1761 138.929 21.0284 139.47 20.733C140.012 20.4337 140.419 19.9886 140.692 19.3977C140.964 18.803 141.101 18.0606 141.101 17.1705C141.101 16.2803 140.964 15.5417 140.692 14.9545C140.419 14.3636 140.016 13.9223 139.482 13.6307C138.951 13.3352 138.292 13.1875 137.504 13.1875H135.709V21.1761ZM147.303 11.3636V23H145.195V11.3636H147.303ZM149.585 11.3636H152.165L155.619 19.7955H155.756L159.21 11.3636H161.79V23H159.767V15.0057H159.659L156.443 22.9659H154.932L151.716 14.9886H151.608V23H149.585V11.3636ZM174.483 17.1818C174.483 18.4356 174.248 19.5095 173.778 20.4034C173.313 21.2936 172.676 21.9754 171.869 22.4489C171.066 22.9223 170.155 23.1591 169.136 23.1591C168.117 23.1591 167.205 22.9223 166.398 22.4489C165.595 21.9716 164.958 21.2879 164.489 20.3977C164.023 19.5038 163.79 18.4318 163.79 17.1818C163.79 15.928 164.023 14.8561 164.489 13.9659C164.958 13.072 165.595 12.3883 166.398 11.9148C167.205 11.4413 168.117 11.2045 169.136 11.2045C170.155 11.2045 171.066 11.4413 171.869 11.9148C172.676 12.3883 173.313 13.072 173.778 13.9659C174.248 14.8561 174.483 15.928 174.483 17.1818ZM172.364 17.1818C172.364 16.2992 172.225 15.5549 171.949 14.9489C171.676 14.339 171.297 13.8788 170.812 13.5682C170.328 13.2538 169.769 13.0966 169.136 13.0966C168.504 13.0966 167.945 13.2538 167.46 13.5682C166.975 13.8788 166.595 14.339 166.318 14.9489C166.045 15.5549 165.909 16.2992 165.909 17.1818C165.909 18.0644 166.045 18.8106 166.318 19.4205C166.595 20.0265 166.975 20.4867 167.46 20.8011C167.945 21.1117 168.504 21.267 169.136 21.267C169.769 21.267 170.328 21.1117 170.812 20.8011C171.297 20.4867 171.676 20.0265 171.949 19.4205C172.225 18.8106 172.364 18.0644 172.364 17.1818Z" fill="#AEAEAE"/>
</g>
<defs>
<filter id="filter0_b_3247_546" x="-20" y="-20" width="248" height="75" filterUnits="userSpaceOnUse" color-interpolation-filters="sRGB">
<feFlood flood-opacity="0" result="BackgroundImageFix"/>
<feGaussianBlur in="BackgroundImageFix" stdDeviation="10"/>
<feComposite in2="SourceAlpha" operator="in" result="effect1_backgroundBlur_3247_546"/>
<feBlend mode="normal" in="SourceGraphic" in2="effect1_backgroundBlur_3247_546" result="shape"/>
</filter>
</defs>
</svg>
