<svg width="196" height="35" viewBox="0 0 196 35" fill="none" xmlns="http://www.w3.org/2000/svg">
<g filter="url(#filter0_b_292_108)">
<rect width="196" height="35" rx="17.5" fill="white"/>
<path d="M15.5309 21.3404H26.0198C28.2234 21.3404 29.9496 19.6853 29.9496 17.5726C29.9496 15.4598 28.1877 13.6614 26.0214 13.6614H20.7372C20.2403 13.6614 19.8327 14.0702 19.8327 14.5687V20.2017H15.5309V14.3911C15.5309 11.6105 17.7865 9.34784 20.5585 9.34784H26.2406C30.7779 9.34784 34.4691 13.0375 34.4691 17.5709C34.4691 22.1043 30.8542 25.6522 26.2406 25.6522H15.5309V21.3387V21.3404Z" fill="black"/>
<path d="M50.0909 23H46.1477V11.3636H50.1705C51.3258 11.3636 52.3182 11.5966 53.1477 12.0625C53.9811 12.5246 54.6212 13.1894 55.0682 14.0568C55.5152 14.9242 55.7386 15.9621 55.7386 17.1705C55.7386 18.3826 55.5133 19.4242 55.0625 20.2955C54.6155 21.1667 53.9697 21.8352 53.125 22.3011C52.2841 22.767 51.2727 23 50.0909 23ZM48.2557 21.1761H49.9886C50.7992 21.1761 51.4754 21.0284 52.017 20.733C52.5587 20.4337 52.9659 19.9886 53.2386 19.3977C53.5114 18.803 53.6477 18.0606 53.6477 17.1705C53.6477 16.2803 53.5114 15.5417 53.2386 14.9545C52.9659 14.3636 52.5625 13.9223 52.0284 13.6307C51.4981 13.3352 50.839 13.1875 50.0511 13.1875H48.2557V21.1761ZM57.6506 23V14.2727H59.7074V23H57.6506ZM58.6847 13.0341C58.3589 13.0341 58.0786 12.9261 57.8438 12.7102C57.6089 12.4905 57.4915 12.2273 57.4915 11.9205C57.4915 11.6098 57.6089 11.3466 57.8438 11.1307C58.0786 10.911 58.3589 10.8011 58.6847 10.8011C59.0142 10.8011 59.2945 10.911 59.5256 11.1307C59.7604 11.3466 59.8778 11.6098 59.8778 11.9205C59.8778 12.2273 59.7604 12.4905 59.5256 12.7102C59.2945 12.9261 59.0142 13.0341 58.6847 13.0341ZM61.9134 11.3636H64.4929L67.9474 19.7955H68.0838L71.5384 11.3636H74.1179V23H72.0952V15.0057H71.9872L68.7713 22.9659H67.2599L64.044 14.9886H63.9361V23H61.9134V11.3636ZM86.8111 17.1818C86.8111 18.4356 86.5762 19.5095 86.1065 20.4034C85.6406 21.2936 85.0043 21.9754 84.1974 22.4489C83.3944 22.9223 82.4834 23.1591 81.4645 23.1591C80.4455 23.1591 79.5327 22.9223 78.7259 22.4489C77.9228 21.9716 77.2865 21.2879 76.8168 20.3977C76.3509 19.5038 76.1179 18.4318 76.1179 17.1818C76.1179 15.928 76.3509 14.8561 76.8168 13.9659C77.2865 13.072 77.9228 12.3883 78.7259 11.9148C79.5327 11.4413 80.4455 11.2045 81.4645 11.2045C82.4834 11.2045 83.3944 11.4413 84.1974 11.9148C85.0043 12.3883 85.6406 13.072 86.1065 13.9659C86.5762 14.8561 86.8111 15.928 86.8111 17.1818ZM84.6918 17.1818C84.6918 16.2992 84.5535 15.5549 84.277 14.9489C84.0043 14.339 83.6255 13.8788 83.1406 13.5682C82.6558 13.2538 82.0971 13.0966 81.4645 13.0966C80.8319 13.0966 80.2732 13.2538 79.7884 13.5682C79.3035 13.8788 78.9228 14.339 78.6463 14.9489C78.3736 15.5549 78.2372 16.2992 78.2372 17.1818C78.2372 18.0644 78.3736 18.8106 78.6463 19.4205C78.9228 20.0265 79.3035 20.4867 79.7884 20.8011C80.2732 21.1117 80.8319 21.267 81.4645 21.267C82.0971 21.267 82.6558 21.1117 83.1406 20.8011C83.6255 20.4867 84.0043 20.0265 84.277 19.4205C84.5535 18.8106 84.6918 18.0644 84.6918 17.1818ZM99.0966 14.5625C99.0436 14.0663 98.8201 13.6799 98.4261 13.4034C98.036 13.1269 97.5284 12.9886 96.9034 12.9886C96.464 12.9886 96.0871 13.0549 95.7727 13.1875C95.4583 13.3201 95.2178 13.5 95.0511 13.7273C94.8845 13.9545 94.7992 14.214 94.7955 14.5057C94.7955 14.7481 94.8504 14.9583 94.9602 15.1364C95.0739 15.3144 95.2273 15.4659 95.4205 15.5909C95.6136 15.7121 95.8277 15.8144 96.0625 15.8977C96.2973 15.9811 96.5341 16.0511 96.7727 16.108L97.8636 16.3807C98.303 16.483 98.7254 16.6212 99.1307 16.7955C99.5398 16.9697 99.9053 17.1894 100.227 17.4545C100.553 17.7197 100.811 18.0398 101 18.4148C101.189 18.7898 101.284 19.2292 101.284 19.733C101.284 20.4148 101.11 21.0152 100.761 21.5341C100.413 22.0492 99.9091 22.4527 99.25 22.7443C98.5947 23.0322 97.8011 23.1761 96.8693 23.1761C95.964 23.1761 95.178 23.036 94.5114 22.7557C93.8485 22.4754 93.3295 22.0663 92.9545 21.5284C92.5833 20.9905 92.3826 20.3352 92.3523 19.5625H94.4261C94.4564 19.9678 94.5814 20.3049 94.8011 20.5739C95.0208 20.8428 95.3068 21.0436 95.6591 21.1761C96.0152 21.3087 96.4129 21.375 96.8523 21.375C97.3106 21.375 97.7121 21.3068 98.0568 21.1705C98.4053 21.0303 98.678 20.8371 98.875 20.5909C99.072 20.3409 99.1723 20.0492 99.1761 19.7159C99.1723 19.4129 99.0833 19.1629 98.9091 18.9659C98.7348 18.7652 98.4905 18.5985 98.1761 18.4659C97.8655 18.3295 97.5019 18.2083 97.0852 18.1023L95.7614 17.7614C94.803 17.5152 94.0455 17.142 93.4886 16.642C92.9356 16.1383 92.6591 15.4697 92.6591 14.6364C92.6591 13.9508 92.8447 13.3504 93.2159 12.8352C93.5909 12.3201 94.1004 11.9205 94.7443 11.6364C95.3883 11.3485 96.1174 11.2045 96.9318 11.2045C97.7576 11.2045 98.4811 11.3485 99.1023 11.6364C99.7273 11.9205 100.218 12.3163 100.574 12.8239C100.93 13.3277 101.114 13.9072 101.125 14.5625H99.0966ZM104.351 26.2727C104.071 26.2727 103.811 26.25 103.572 26.2045C103.338 26.1629 103.15 26.1136 103.01 26.0568L103.487 24.4545C103.786 24.5417 104.054 24.5833 104.288 24.5795C104.523 24.5758 104.73 24.5019 104.908 24.358C105.089 24.2178 105.243 23.983 105.368 23.6534L105.544 23.1818L102.379 14.2727H104.561L106.572 20.8636H106.663L108.68 14.2727H110.868L107.374 24.0568C107.211 24.5189 106.995 24.9148 106.726 25.2443C106.457 25.5777 106.127 25.8314 105.737 26.0057C105.351 26.1837 104.889 26.2727 104.351 26.2727ZM114.348 17.8864V23H112.291V14.2727H114.257V15.7557H114.359C114.56 15.267 114.88 14.8788 115.32 14.5909C115.763 14.303 116.31 14.1591 116.962 14.1591C117.564 14.1591 118.089 14.2879 118.536 14.5455C118.986 14.803 119.335 15.1761 119.581 15.6648C119.831 16.1534 119.954 16.7462 119.95 17.4432V23H117.893V17.7614C117.893 17.178 117.742 16.7216 117.439 16.392C117.14 16.0625 116.725 15.8977 116.195 15.8977C115.835 15.8977 115.515 15.9773 115.234 16.1364C114.958 16.2917 114.74 16.517 114.581 16.8125C114.426 17.108 114.348 17.4659 114.348 17.8864ZM125.848 23.1705C124.977 23.1705 124.229 22.9792 123.604 22.5966C122.982 22.214 122.503 21.6856 122.166 21.0114C121.833 20.3333 121.666 19.553 121.666 18.6705C121.666 17.7841 121.837 17.0019 122.178 16.3239C122.518 15.642 123 15.1117 123.621 14.733C124.246 14.3504 124.984 14.1591 125.837 14.1591C126.545 14.1591 127.172 14.2898 127.717 14.5511C128.267 14.8087 128.704 15.1742 129.03 15.6477C129.356 16.1174 129.541 16.6667 129.587 17.2955H127.621C127.541 16.875 127.352 16.5246 127.053 16.2443C126.757 15.9602 126.361 15.8182 125.865 15.8182C125.445 15.8182 125.075 15.9318 124.757 16.1591C124.439 16.3826 124.191 16.7045 124.013 17.125C123.839 17.5455 123.751 18.0492 123.751 18.6364C123.751 19.2311 123.839 19.7424 124.013 20.1705C124.187 20.5947 124.431 20.9223 124.746 21.1534C125.064 21.3807 125.437 21.4943 125.865 21.4943C126.168 21.4943 126.439 21.4375 126.678 21.3239C126.92 21.2064 127.123 21.0379 127.286 20.8182C127.448 20.5985 127.56 20.3314 127.621 20.017H129.587C129.537 20.6345 129.356 21.1818 129.041 21.6591C128.727 22.1326 128.299 22.5038 127.757 22.7727C127.215 23.0379 126.579 23.1705 125.848 23.1705ZM135.139 23.1705C134.264 23.1705 133.509 22.9886 132.872 22.625C132.24 22.2576 131.753 21.7386 131.412 21.0682C131.071 20.3939 130.901 19.6004 130.901 18.6875C130.901 17.7898 131.071 17.0019 131.412 16.3239C131.757 15.642 132.238 15.1117 132.855 14.733C133.473 14.3504 134.198 14.1591 135.031 14.1591C135.569 14.1591 136.077 14.2462 136.554 14.4205C137.035 14.5909 137.459 14.8561 137.827 15.2159C138.198 15.5758 138.49 16.0341 138.702 16.5909C138.914 17.1439 139.02 17.803 139.02 18.5682V19.1989H131.866V17.8125H137.048C137.045 17.4186 136.959 17.0682 136.793 16.7614C136.626 16.4508 136.393 16.2064 136.094 16.0284C135.798 15.8504 135.454 15.7614 135.06 15.7614C134.639 15.7614 134.27 15.8636 133.952 16.0682C133.634 16.2689 133.385 16.5341 133.207 16.8636C133.033 17.1894 132.944 17.5473 132.94 17.9375V19.1477C132.94 19.6553 133.033 20.0909 133.219 20.4545C133.404 20.8144 133.664 21.0909 133.997 21.2841C134.33 21.4735 134.721 21.5682 135.168 21.5682C135.467 21.5682 135.738 21.5265 135.98 21.4432C136.223 21.3561 136.433 21.2292 136.611 21.0625C136.789 20.8958 136.923 20.6894 137.014 20.4432L138.935 20.6591C138.813 21.1667 138.582 21.6098 138.241 21.9886C137.904 22.3636 137.473 22.6553 136.946 22.8636C136.42 23.0682 135.817 23.1705 135.139 23.1705ZM143.999 23.1534C143.313 23.1534 142.699 22.9773 142.158 22.625C141.616 22.2727 141.188 21.7614 140.874 21.0909C140.559 20.4205 140.402 19.6061 140.402 18.6477C140.402 17.678 140.561 16.8598 140.879 16.1932C141.201 15.5227 141.635 15.017 142.18 14.6761C142.726 14.3314 143.334 14.1591 144.004 14.1591C144.516 14.1591 144.936 14.2462 145.266 14.4205C145.595 14.5909 145.857 14.7973 146.05 15.0398C146.243 15.2784 146.393 15.5038 146.499 15.7159H146.584V11.3636H148.646V23H146.624V21.625H146.499C146.393 21.8371 146.239 22.0625 146.038 22.3011C145.838 22.536 145.572 22.7367 145.243 22.9034C144.913 23.0701 144.499 23.1534 143.999 23.1534ZM144.572 21.4659C145.008 21.4659 145.379 21.3485 145.686 21.1136C145.993 20.875 146.226 20.5436 146.385 20.1193C146.544 19.6951 146.624 19.2008 146.624 18.6364C146.624 18.072 146.544 17.5814 146.385 17.1648C146.23 16.7481 145.999 16.4242 145.692 16.1932C145.389 15.9621 145.016 15.8466 144.572 15.8466C144.114 15.8466 143.732 15.9659 143.425 16.2045C143.118 16.4432 142.887 16.7727 142.732 17.1932C142.576 17.6136 142.499 18.0947 142.499 18.6364C142.499 19.1818 142.576 19.6686 142.732 20.0966C142.891 20.5208 143.124 20.8561 143.43 21.1023C143.741 21.3447 144.122 21.4659 144.572 21.4659Z" fill="black"/>
<rect x="160" y="9.5" width="16" height="16" rx="8" fill="black"/>
<path d="M171.125 14.9912C171.18 15.0429 171.223 15.1049 171.254 15.1735C171.284 15.2422 171.301 15.3161 171.302 15.3911C171.304 15.4662 171.291 15.5408 171.264 15.6108C171.237 15.6808 171.197 15.7448 171.145 15.7992L166.922 20.2335L164.603 17.7992C164.499 17.6894 164.442 17.5427 164.445 17.3911C164.449 17.2396 164.513 17.0957 164.623 16.9912C164.732 16.8866 164.879 16.8299 165.031 16.8335C165.182 16.8372 165.326 16.9009 165.431 17.0106L166.922 18.5763L170.317 15.0106C170.369 14.9563 170.431 14.9127 170.5 14.8823C170.568 14.8519 170.642 14.8353 170.717 14.8335C170.792 14.8317 170.867 14.8447 170.937 14.8718C171.007 14.8988 171.071 14.9394 171.125 14.9912Z" fill="white"/>
</g>
<defs>
<filter id="filter0_b_292_108" x="-20" y="-20" width="236" height="75" filterUnits="userSpaceOnUse" color-interpolation-filters="sRGB">
<feFlood flood-opacity="0" result="BackgroundImageFix"/>
<feGaussianBlur in="BackgroundImageFix" stdDeviation="10"/>
<feComposite in2="SourceAlpha" operator="in" result="effect1_backgroundBlur_292_108"/>
<feBlend mode="normal" in="SourceGraphic" in2="effect1_backgroundBlur_292_108" result="shape"/>
</filter>
</defs>
</svg>
