<svg width="78" height="104" viewBox="0 0 78 104" fill="none" xmlns="http://www.w3.org/2000/svg">
<mask id="mask0_130_375" style="mask-type:luminance" maskUnits="userSpaceOnUse" x="0" y="0" width="78" height="104">
<path d="M0.192844 16.9772L40.9409 0.187012L77.8071 87.0222L37.059 103.812L0.192844 16.9772Z" fill="white"/>
</mask>
<g mask="url(#mask0_130_375)">
<path fill-rule="evenodd" clip-rule="evenodd" d="M55.9853 94.0067L61.3989 92.7618C61.6254 92.7127 61.8851 92.6584 62.1673 92.5988L62.1714 92.5979C63.9287 92.2282 66.5591 91.6749 67.5302 91.2079C68.6582 90.6657 68.4609 90.6349 68.4609 90.6349C68.4609 90.6349 68.8922 89.7513 68.8001 89.2335L61.8773 50.652C61.5781 49.0142 60.7972 47.5227 59.6209 46.3349L46.6353 33.2769C45.9615 32.6038 44.9274 32.5325 44.1499 33.0284L40.3179 28.8873C39.9455 28.4835 39.4186 28.2524 38.866 28.2456C38.3084 28.2408 37.7815 28.4687 37.3984 28.8503L37.3765 28.873L28.3451 20.0078C27.5197 19.1858 26.5779 18.4743 25.5584 17.9046C24.0336 17.053 22.3659 16.5262 20.6131 16.347L5.70729 14.9858C4.9121 14.9067 4.13379 15.316 3.75469 16.0299C3.6693 16.1902 1.65738 20.0465 3.40833 24.0092C3.70438 24.669 4.33409 25.118 5.05999 25.1835L18.5953 26.4062C19.6327 26.5575 20.7035 27.1114 21.4969 27.9462L29.911 36.5913C29.3164 37.3461 29.3244 38.4117 29.9944 39.1283L33.6391 42.9992L32.9158 43.6926C32.1903 44.3876 32.1073 45.5004 32.7134 46.2926L33.635 47.4918L29.6751 52.7029C28.839 54.371 28.6203 55.8368 28.8382 57.2842L29.9863 64.8719C30.1372 65.8622 30.5792 66.7794 31.2725 67.5151C31.4356 67.6873 31.6273 67.8274 31.8366 67.9338L34.503 69.2683C34.5412 69.3466 34.5707 69.4278 34.591 69.5133L36.6416 83.4246C37.2465 86.0826 39.4712 87.8343 42.08 87.8377L51.8513 88.0423L52.8822 92.5883C53.1196 93.6469 54.3592 94.1749 54.8529 94.1385L55.1138 94.1098L55.21 94.094L55.9853 94.0067ZM41.7316 65.3147L43.4736 78.1755C43.8013 79.9321 45.324 81.102 47.0291 80.9934L55.3791 80.4549C55.7572 80.4351 56.1215 80.3472 56.4636 80.2062C56.9905 79.9892 57.4626 79.6433 57.8216 79.1936C58.4221 78.4403 58.668 77.4741 58.496 76.5341L56.5585 62.4774C56.3418 61.3322 55.6379 60.4341 54.6655 59.9749L51.6887 58.5698C50.5535 58.0267 47.3548 58.3029 46.2735 59.2071L42.8268 62.2009C41.9337 62.9752 41.5149 64.1695 41.7316 65.3147ZM52.6501 63.3899L54.4688 76.568L47.3442 77.0291L45.7153 64.9447L48.9108 62.1688C49.0104 62.1728 49.1341 62.1756 49.2688 62.1784C49.6137 62.1855 50.0275 62.1941 50.2737 62.2274L52.6501 63.3899ZM25.5108 22.7853C24.9336 22.2103 24.2868 21.7211 23.5876 21.3322C22.5407 20.7474 21.3996 20.3893 20.2203 20.2654L6.87707 19.0471C6.72414 19.6835 6.61212 20.5161 6.76264 21.3817L19.0674 22.4963C21.1009 22.789 23.0022 23.7668 24.3978 25.2343L32.6529 33.7212L34.6073 31.715L25.5108 22.7853ZM38.8052 33.0954L34.2123 37.8121L36.5085 40.2492L41.232 35.7213L38.8052 33.0954ZM64.5286 88.0543L57.9387 51.3417C57.7874 50.4868 57.3792 49.7119 56.7675 49.0938L56.7628 49.0957L45.1708 37.4384L37.7966 44.5055C37.7956 44.5067 37.795 44.5079 37.7944 44.5089C37.794 44.5095 37.7934 44.5104 37.7934 44.5104C37.7928 44.511 37.7925 44.5119 37.7919 44.5122C37.7912 44.5126 37.7906 44.5132 37.79 44.5135L37.789 44.5141C37.7884 44.5147 37.7875 44.515 37.7868 44.5153L37.7859 44.516L36.968 45.2998L37.7333 46.292C38.2693 46.9934 38.2708 47.9569 37.7395 48.6602L33.0899 54.7132C32.7936 55.336 32.689 56.0245 32.7933 56.7062L33.9413 64.2938C33.9598 64.4114 33.9959 64.5216 34.0563 64.6271L36.7165 65.9591C36.9238 66.0609 37.1159 66.201 37.2725 66.3711C37.8843 67.0151 38.3084 67.8147 38.5246 68.8091L40.5695 82.7071C40.7292 83.4073 41.3513 83.9014 42.1235 83.9008L53.5018 84.1415C54.4193 84.1597 55.2068 84.7936 55.4083 85.6799L56.3493 89.8146L64.5286 88.0543Z" fill="url(#paint0_linear_130_375)"/>
</g>
<defs>
<linearGradient id="paint0_linear_130_375" x1="69.9816" y1="75.5051" x2="2.69483" y2="75.5197" gradientUnits="userSpaceOnUse">
<stop stop-color="#4B31B1"/>
<stop offset="0.0886" stop-color="#5D41C4"/>
<stop offset="0.214" stop-color="#7152D8"/>
<stop offset="0.3396" stop-color="#7C5CE4"/>
<stop offset="0.4649" stop-color="#805FE8"/>
<stop offset="0.5515" stop-color="#8065E9"/>
<stop offset="0.6688" stop-color="#7F76ED"/>
<stop offset="0.8036" stop-color="#7E93F3"/>
<stop offset="0.9506" stop-color="#7CBAFC"/>
<stop offset="1" stop-color="#7BC9FF"/>
</linearGradient>
</defs>
</svg>
