<svg width="300" height="300" viewBox="0 0 300 300" fill="none" xmlns="http://www.w3.org/2000/svg">
<path d="M85 129.5C85 93.3253 114.325 64 150.5 64C186.675 64 216 93.3254 216 129.5V237H85V129.5Z" fill="url(#paint0_linear_1_2)"/>
<path fill-rule="evenodd" clip-rule="evenodd" d="M78 130C78 90.2355 110.235 58 150 58C189.765 58 222 90.2355 222 130L221 234C221 238.971 216.971 243 212 243H87C82.0294 243 78 238.971 78 234V130ZM149.5 66C114.43 66 86 94.4299 86 129.5V235H213V129.5C213 94.4299 184.57 66 149.5 66Z" fill="white"/>
<defs>
<linearGradient id="paint0_linear_1_2" x1="100.472" y1="82.9379" x2="221.007" y2="244.536" gradientUnits="userSpaceOnUse">
<stop stop-color="white"/>
<stop offset="1" stop-color="white" stop-opacity="0"/>
</linearGradient>
</defs>
</svg>
