<svg width="19" height="19" viewBox="0 0 19 19" fill="none" xmlns="http://www.w3.org/2000/svg">
<path d="M18 18L12.4565 12.4565M1 7.65217C1 8.52575 1.17206 9.39077 1.50637 10.1979C1.84067 11.0049 2.33067 11.7383 2.94838 12.356C3.56609 12.9737 4.29942 13.4637 5.1065 13.798C5.91358 14.1323 6.7786 14.3043 7.65217 14.3043C8.52575 14.3043 9.39077 14.1323 10.1979 13.798C11.0049 13.4637 11.7383 12.9737 12.356 12.356C12.9737 11.7383 13.4637 11.0049 13.798 10.1979C14.1323 9.39077 14.3043 8.52575 14.3043 7.65217C14.3043 5.88791 13.6035 4.1959 12.356 2.94838C11.1084 1.70085 9.41644 1 7.65217 1C5.88791 1 4.1959 1.70085 2.94838 2.94838C1.70085 4.1959 1 5.88791 1 7.65217Z" stroke="white" stroke-width="2" stroke-linecap="round" stroke-linejoin="round"/>
</svg>
