<svg width="206" height="55" viewBox="0 0 206 55" fill="none" xmlns="http://www.w3.org/2000/svg">
<g filter="url(#filter0_b_3225_463)">
<rect x="10" y="10" width="196" height="35" rx="17.5" fill="white"/>
<path d="M25.5309 31.3404H36.0198C38.2234 31.3404 39.9496 29.6854 39.9496 27.5726C39.9496 25.4598 38.1877 23.6614 36.0214 23.6614H30.7372C30.2403 23.6614 29.8327 24.0703 29.8327 24.5688V30.2018H25.5309V24.3912C25.5309 21.6105 27.7865 19.3479 30.5585 19.3479H36.2406C40.7779 19.3479 44.4691 23.0375 44.4691 27.571C44.4691 32.1044 40.8542 35.6523 36.2406 35.6523H25.5309V31.3388V31.3404Z" fill="black"/>
<path d="M60.0909 33H56.1477V21.3636H60.1705C61.3258 21.3636 62.3182 21.5966 63.1477 22.0625C63.9811 22.5246 64.6212 23.1894 65.0682 24.0568C65.5152 24.9242 65.7386 25.9621 65.7386 27.1705C65.7386 28.3826 65.5133 29.4242 65.0625 30.2955C64.6155 31.1667 63.9697 31.8352 63.125 32.3011C62.2841 32.767 61.2727 33 60.0909 33ZM58.2557 31.1761H59.9886C60.7992 31.1761 61.4754 31.0284 62.017 30.733C62.5587 30.4337 62.9659 29.9886 63.2386 29.3977C63.5114 28.803 63.6477 28.0606 63.6477 27.1705C63.6477 26.2803 63.5114 25.5417 63.2386 24.9545C62.9659 24.3636 62.5625 23.9223 62.0284 23.6307C61.4981 23.3352 60.839 23.1875 60.0511 23.1875H58.2557V31.1761ZM67.6506 33V24.2727H69.7074V33H67.6506ZM68.6847 23.0341C68.3589 23.0341 68.0786 22.9261 67.8438 22.7102C67.6089 22.4905 67.4915 22.2273 67.4915 21.9205C67.4915 21.6098 67.6089 21.3466 67.8438 21.1307C68.0786 20.911 68.3589 20.8011 68.6847 20.8011C69.0142 20.8011 69.2945 20.911 69.5256 21.1307C69.7604 21.3466 69.8778 21.6098 69.8778 21.9205C69.8778 22.2273 69.7604 22.4905 69.5256 22.7102C69.2945 22.9261 69.0142 23.0341 68.6847 23.0341ZM71.9134 21.3636H74.4929L77.9474 29.7955H78.0838L81.5384 21.3636H84.1179V33H82.0952V25.0057H81.9872L78.7713 32.9659H77.2599L74.044 24.9886H73.9361V33H71.9134V21.3636ZM96.8111 27.1818C96.8111 28.4356 96.5762 29.5095 96.1065 30.4034C95.6406 31.2936 95.0043 31.9754 94.1974 32.4489C93.3944 32.9223 92.4834 33.1591 91.4645 33.1591C90.4455 33.1591 89.5327 32.9223 88.7259 32.4489C87.9228 31.9716 87.2865 31.2879 86.8168 30.3977C86.3509 29.5038 86.1179 28.4318 86.1179 27.1818C86.1179 25.928 86.3509 24.8561 86.8168 23.9659C87.2865 23.072 87.9228 22.3883 88.7259 21.9148C89.5327 21.4413 90.4455 21.2045 91.4645 21.2045C92.4834 21.2045 93.3944 21.4413 94.1974 21.9148C95.0043 22.3883 95.6406 23.072 96.1065 23.9659C96.5762 24.8561 96.8111 25.928 96.8111 27.1818ZM94.6918 27.1818C94.6918 26.2992 94.5535 25.5549 94.277 24.9489C94.0043 24.339 93.6255 23.8788 93.1406 23.5682C92.6558 23.2538 92.0971 23.0966 91.4645 23.0966C90.8319 23.0966 90.2732 23.2538 89.7884 23.5682C89.3035 23.8788 88.9228 24.339 88.6463 24.9489C88.3736 25.5549 88.2372 26.2992 88.2372 27.1818C88.2372 28.0644 88.3736 28.8106 88.6463 29.4205C88.9228 30.0265 89.3035 30.4867 89.7884 30.8011C90.2732 31.1117 90.8319 31.267 91.4645 31.267C92.0971 31.267 92.6558 31.1117 93.1406 30.8011C93.6255 30.4867 94.0043 30.0265 94.277 29.4205C94.5535 28.8106 94.6918 28.0644 94.6918 27.1818ZM109.097 24.5625C109.044 24.0663 108.82 23.6799 108.426 23.4034C108.036 23.1269 107.528 22.9886 106.903 22.9886C106.464 22.9886 106.087 23.0549 105.773 23.1875C105.458 23.3201 105.218 23.5 105.051 23.7273C104.884 23.9545 104.799 24.214 104.795 24.5057C104.795 24.7481 104.85 24.9583 104.96 25.1364C105.074 25.3144 105.227 25.4659 105.42 25.5909C105.614 25.7121 105.828 25.8144 106.062 25.8977C106.297 25.9811 106.534 26.0511 106.773 26.108L107.864 26.3807C108.303 26.483 108.725 26.6212 109.131 26.7955C109.54 26.9697 109.905 27.1894 110.227 27.4545C110.553 27.7197 110.811 28.0398 111 28.4148C111.189 28.7898 111.284 29.2292 111.284 29.733C111.284 30.4148 111.11 31.0152 110.761 31.5341C110.413 32.0492 109.909 32.4527 109.25 32.7443C108.595 33.0322 107.801 33.1761 106.869 33.1761C105.964 33.1761 105.178 33.036 104.511 32.7557C103.848 32.4754 103.33 32.0663 102.955 31.5284C102.583 30.9905 102.383 30.3352 102.352 29.5625H104.426C104.456 29.9678 104.581 30.3049 104.801 30.5739C105.021 30.8428 105.307 31.0436 105.659 31.1761C106.015 31.3087 106.413 31.375 106.852 31.375C107.311 31.375 107.712 31.3068 108.057 31.1705C108.405 31.0303 108.678 30.8371 108.875 30.5909C109.072 30.3409 109.172 30.0492 109.176 29.7159C109.172 29.4129 109.083 29.1629 108.909 28.9659C108.735 28.7652 108.491 28.5985 108.176 28.4659C107.866 28.3295 107.502 28.2083 107.085 28.1023L105.761 27.7614C104.803 27.5152 104.045 27.142 103.489 26.642C102.936 26.1383 102.659 25.4697 102.659 24.6364C102.659 23.9508 102.845 23.3504 103.216 22.8352C103.591 22.3201 104.1 21.9205 104.744 21.6364C105.388 21.3485 106.117 21.2045 106.932 21.2045C107.758 21.2045 108.481 21.3485 109.102 21.6364C109.727 21.9205 110.218 22.3163 110.574 22.8239C110.93 23.3277 111.114 23.9072 111.125 24.5625H109.097ZM114.351 36.2727C114.071 36.2727 113.811 36.25 113.572 36.2045C113.338 36.1629 113.15 36.1136 113.01 36.0568L113.487 34.4545C113.786 34.5417 114.054 34.5833 114.288 34.5795C114.523 34.5758 114.73 34.5019 114.908 34.358C115.089 34.2178 115.243 33.983 115.368 33.6534L115.544 33.1818L112.379 24.2727H114.561L116.572 30.8636H116.663L118.68 24.2727H120.868L117.374 34.0568C117.211 34.5189 116.995 34.9148 116.726 35.2443C116.457 35.5777 116.127 35.8314 115.737 36.0057C115.351 36.1837 114.889 36.2727 114.351 36.2727ZM124.348 27.8864V33H122.291V24.2727H124.257V25.7557H124.359C124.56 25.267 124.88 24.8788 125.32 24.5909C125.763 24.303 126.31 24.1591 126.962 24.1591C127.564 24.1591 128.089 24.2879 128.536 24.5455C128.986 24.803 129.335 25.1761 129.581 25.6648C129.831 26.1534 129.954 26.7462 129.95 27.4432V33H127.893V27.7614C127.893 27.178 127.742 26.7216 127.439 26.392C127.14 26.0625 126.725 25.8977 126.195 25.8977C125.835 25.8977 125.515 25.9773 125.234 26.1364C124.958 26.2917 124.74 26.517 124.581 26.8125C124.426 27.108 124.348 27.4659 124.348 27.8864ZM135.848 33.1705C134.977 33.1705 134.229 32.9792 133.604 32.5966C132.982 32.214 132.503 31.6856 132.166 31.0114C131.833 30.3333 131.666 29.553 131.666 28.6705C131.666 27.7841 131.837 27.0019 132.178 26.3239C132.518 25.642 133 25.1117 133.621 24.733C134.246 24.3504 134.984 24.1591 135.837 24.1591C136.545 24.1591 137.172 24.2898 137.717 24.5511C138.267 24.8087 138.704 25.1742 139.03 25.6477C139.356 26.1174 139.541 26.6667 139.587 27.2955H137.621C137.541 26.875 137.352 26.5246 137.053 26.2443C136.757 25.9602 136.361 25.8182 135.865 25.8182C135.445 25.8182 135.075 25.9318 134.757 26.1591C134.439 26.3826 134.191 26.7045 134.013 27.125C133.839 27.5455 133.751 28.0492 133.751 28.6364C133.751 29.2311 133.839 29.7424 134.013 30.1705C134.187 30.5947 134.431 30.9223 134.746 31.1534C135.064 31.3807 135.437 31.4943 135.865 31.4943C136.168 31.4943 136.439 31.4375 136.678 31.3239C136.92 31.2064 137.123 31.0379 137.286 30.8182C137.448 30.5985 137.56 30.3314 137.621 30.017H139.587C139.537 30.6345 139.356 31.1818 139.041 31.6591C138.727 32.1326 138.299 32.5038 137.757 32.7727C137.215 33.0379 136.579 33.1705 135.848 33.1705ZM145.139 33.1705C144.264 33.1705 143.509 32.9886 142.872 32.625C142.24 32.2576 141.753 31.7386 141.412 31.0682C141.071 30.3939 140.901 29.6004 140.901 28.6875C140.901 27.7898 141.071 27.0019 141.412 26.3239C141.757 25.642 142.238 25.1117 142.855 24.733C143.473 24.3504 144.198 24.1591 145.031 24.1591C145.569 24.1591 146.077 24.2462 146.554 24.4205C147.035 24.5909 147.459 24.8561 147.827 25.2159C148.198 25.5758 148.49 26.0341 148.702 26.5909C148.914 27.1439 149.02 27.803 149.02 28.5682V29.1989H141.866V27.8125H147.048C147.045 27.4186 146.959 27.0682 146.793 26.7614C146.626 26.4508 146.393 26.2064 146.094 26.0284C145.798 25.8504 145.454 25.7614 145.06 25.7614C144.639 25.7614 144.27 25.8636 143.952 26.0682C143.634 26.2689 143.385 26.5341 143.207 26.8636C143.033 27.1894 142.944 27.5473 142.94 27.9375V29.1477C142.94 29.6553 143.033 30.0909 143.219 30.4545C143.404 30.8144 143.664 31.0909 143.997 31.2841C144.33 31.4735 144.721 31.5682 145.168 31.5682C145.467 31.5682 145.738 31.5265 145.98 31.4432C146.223 31.3561 146.433 31.2292 146.611 31.0625C146.789 30.8958 146.923 30.6894 147.014 30.4432L148.935 30.6591C148.813 31.1667 148.582 31.6098 148.241 31.9886C147.904 32.3636 147.473 32.6553 146.946 32.8636C146.42 33.0682 145.817 33.1705 145.139 33.1705ZM153.999 33.1534C153.313 33.1534 152.699 32.9773 152.158 32.625C151.616 32.2727 151.188 31.7614 150.874 31.0909C150.559 30.4205 150.402 29.6061 150.402 28.6477C150.402 27.678 150.561 26.8598 150.879 26.1932C151.201 25.5227 151.635 25.017 152.18 24.6761C152.726 24.3314 153.334 24.1591 154.004 24.1591C154.516 24.1591 154.936 24.2462 155.266 24.4205C155.595 24.5909 155.857 24.7973 156.05 25.0398C156.243 25.2784 156.393 25.5038 156.499 25.7159H156.584V21.3636H158.646V33H156.624V31.625H156.499C156.393 31.8371 156.239 32.0625 156.038 32.3011C155.838 32.536 155.572 32.7367 155.243 32.9034C154.913 33.0701 154.499 33.1534 153.999 33.1534ZM154.572 31.4659C155.008 31.4659 155.379 31.3485 155.686 31.1136C155.993 30.875 156.226 30.5436 156.385 30.1193C156.544 29.6951 156.624 29.2008 156.624 28.6364C156.624 28.072 156.544 27.5814 156.385 27.1648C156.23 26.7481 155.999 26.4242 155.692 26.1932C155.389 25.9621 155.016 25.8466 154.572 25.8466C154.114 25.8466 153.732 25.9659 153.425 26.2045C153.118 26.4432 152.887 26.7727 152.732 27.1932C152.576 27.6136 152.499 28.0947 152.499 28.6364C152.499 29.1818 152.576 29.6686 152.732 30.0966C152.891 30.5208 153.124 30.8561 153.43 31.1023C153.741 31.3447 154.122 31.4659 154.572 31.4659Z" fill="black"/>
<rect x="170" y="19.5" width="16" height="16" rx="8" fill="black"/>
<path d="M181.125 24.9911C181.18 25.0429 181.223 25.1048 181.254 25.1734C181.284 25.2421 181.301 25.316 181.302 25.3911C181.304 25.4661 181.291 25.5407 181.264 25.6107C181.237 25.6808 181.197 25.7448 181.145 25.7991L176.922 30.2334L174.603 27.7991C174.499 27.6894 174.442 27.5426 174.445 27.3911C174.449 27.2395 174.513 27.0956 174.623 26.9911C174.732 26.8865 174.879 26.8298 175.031 26.8334C175.182 26.8371 175.326 26.9008 175.431 27.0105L176.922 28.5762L180.317 25.0105C180.369 24.9562 180.431 24.9126 180.5 24.8822C180.568 24.8518 180.642 24.8352 180.717 24.8334C180.792 24.8316 180.867 24.8446 180.937 24.8717C181.007 24.8987 181.071 24.9393 181.125 24.9911Z" fill="white"/>
</g>
<defs>
<filter id="filter0_b_3225_463" x="-10" y="-10" width="236" height="75" filterUnits="userSpaceOnUse" color-interpolation-filters="sRGB">
<feFlood flood-opacity="0" result="BackgroundImageFix"/>
<feGaussianBlur in="BackgroundImageFix" stdDeviation="10"/>
<feComposite in2="SourceAlpha" operator="in" result="effect1_backgroundBlur_3225_463"/>
<feBlend mode="normal" in="SourceGraphic" in2="effect1_backgroundBlur_3225_463" result="shape"/>
</filter>
</defs>
</svg>
