<svg width="24" height="24" xmlns="http://www.w3.org/2000/svg" xml:space="preserve" version="1.1">

 <g>
  <title>Layer 1</title>
  <g id="svg_1">
   <path id="svg_2" fill="#F0B90B" clip-rule="evenodd" fill-rule="evenodd" d="m11.85793,2c5.44477,0 9.85793,4.45889 9.85793,9.96009s-4.41316,9.96009 -9.85793,9.96009s-9.85793,-4.45889 -9.85793,-9.96009s4.41316,-9.96009 9.85793,-9.96009l0,0z"/>
   <path id="svg_3" fill="#FFFFFF" d="m7.41791,11.96009l0.00711,2.63368l2.21487,1.31684l0,1.5419l-3.5111,-2.0806l0,-4.18196l1.28911,0.77015l0,0zm0,-2.63368l0,1.53472l-1.2899,-0.77095l0,-1.53472l1.2899,-0.77095l1.29622,0.77095l-1.29622,0.77095l0,0zm3.14695,-0.77095l1.2899,-0.77095l1.29622,0.77095l-1.29622,0.77095l-1.2899,-0.77095l0,0z"/>
   <path id="svg_4" fill="#FFFFFF" d="m8.34999,14.04787l0,-1.5419l1.2899,0.77095l0,1.53472l-1.2899,-0.76377l0,0zm2.21487,2.415l1.2899,0.77095l1.29622,-0.77095l0,1.53472l-1.29622,0.77095l-1.2899,-0.77095l0,-1.53472l0,0zm4.43607,-7.90741l1.2899,-0.77095l1.29622,0.77095l0,1.53472l-1.29622,0.77095l0,-1.53472l-1.2899,-0.77095l0,0l0,0zm1.2899,6.0383l0.00711,-2.63368l1.2899,-0.77095l0,4.18196l-3.5111,2.0806l0,-1.5419l2.21408,-1.31604l0,0l0,0z"/>
   <polygon id="svg_5" fill="#FFFFFF" points="15.365867614746094,14.047873497009277 14.07596492767334,14.811640739440918 14.07596492767334,13.276926040649414 15.365867614746094,12.505976676940918 15.365867614746094,14.047873497009277 "/>
   <path id="svg_6" fill="#FFFFFF" d="m15.36587,9.8723l0.00711,1.5419l-2.22119,1.31684l0,2.64006l-1.2899,0.76377l-1.2899,-0.76377l0,-2.64006l-2.22119,-1.31684l0,-1.5419l1.29543,-0.77095l2.20777,1.32322l2.22119,-1.32322l1.29622,0.77095l-0.00553,0l0,0zm-7.01588,-2.63288l3.50478,-2.08779l3.5111,2.08779l-1.2899,0.77095l-2.22119,-1.32322l-2.21487,1.32322l-1.2899,-0.77095l0,0z"/>
  </g>
 </g>
</svg>