<svg width="24" height="24" xmlns="http://www.w3.org/2000/svg" xml:space="preserve" version="1.1">

 <g>
  <title>Layer 1</title>
  <g id="Layer_x0020_1">
   <g id="_1995692876000">
    <path id="svg_1" fill="#FF0420" d="m21.88691,11.78262c0,-5.50037 -4.46407,-9.96444 -9.96444,-9.96444s-9.96444,4.46407 -9.96444,9.96444s4.46407,9.96444 9.96444,9.96444s9.96444,-4.46407 9.96444,-9.96444z" class="st0"/>
    <path id="svg_2" fill="#FFFFFF" d="m9.02083,14.42917c-0.59787,0 -1.08413,-0.14349 -1.45879,-0.42249c-0.37466,-0.28698 -0.56598,-0.69352 -0.56598,-1.21168c0,-0.1116 0.01594,-0.24712 0.03986,-0.40655c0.06377,-0.35872 0.15943,-0.78918 0.279,-1.29936c0.34278,-1.37111 1.21965,-2.05666 2.63061,-2.05666c0.38263,0 0.73338,0.06377 1.0363,0.19929c0.30292,0.12754 0.54207,0.31886 0.71744,0.57395s0.26306,0.55004 0.26306,0.90078c0,0.10363 -0.01594,0.23915 -0.03986,0.39858c-0.07972,0.44641 -0.1674,0.87687 -0.27103,1.29936c-0.17537,0.68555 -0.47829,1.19573 -0.90876,1.53851c-0.43046,0.33481 -1.00442,0.50221 -1.72185,0.50221l0,-0.01594zm0.1116,-1.07616c0.279,0 0.51815,-0.08769 0.70947,-0.24712c0.19929,-0.1674 0.34278,-0.41452 0.43046,-0.7573c0.11957,-0.47032 0.20726,-0.87687 0.26306,-1.22762c0.02391,-0.10363 0.03189,-0.21523 0.03189,-0.32683c0,-0.45438 -0.23915,-0.68555 -0.70947,-0.68555c-0.279,0 -0.51815,0.08769 -0.71744,0.24712c-0.19929,0.1674 -0.33481,0.41452 -0.42249,0.7573c-0.09566,0.33481 -0.18335,0.74135 -0.27103,1.22762c-0.02391,0.10363 -0.03189,0.20726 -0.03189,0.31886c-0.00797,0.46235 0.23915,0.69352 0.71744,0.69352z" class="st1"/>
    <path id="svg_3" fill="#FFFFFF" d="m12.29714,14.35743c-0.0558,0 -0.09566,-0.01594 -0.12754,-0.0558c-0.02391,-0.03986 -0.03189,-0.08769 -0.02391,-0.13552l1.0363,-4.86264c0.00797,-0.0558 0.03986,-0.10363 0.08769,-0.13552c0.04783,-0.03986 0.09566,-0.0558 0.14349,-0.0558l1.99289,0c0.55801,0 0.99644,0.11957 1.33125,0.34278c0.34278,0.23117 0.51018,0.56598 0.51018,0.99644c0,0.12754 -0.01594,0.25509 -0.04783,0.39061c-0.12754,0.57395 -0.37466,0.99644 -0.7573,1.27545c-0.37466,0.279 -0.89281,0.41452 -1.54648,0.41452l-1.01239,0l-0.34278,1.64214c-0.01594,0.0558 -0.03986,0.10363 -0.08769,0.13552c-0.04783,0.03986 -0.09566,0.0558 -0.14349,0.0558l-1.02036,0l0.00797,-0.00797zm2.64655,-2.86179c0.21523,0 0.39061,-0.0558 0.55004,-0.17537s0.26306,-0.279 0.31886,-0.49424c0.01594,-0.08769 0.02391,-0.15943 0.02391,-0.2232c0,-0.14349 -0.04783,-0.25509 -0.12754,-0.33481c-0.08769,-0.07972 -0.23117,-0.11957 -0.43844,-0.11957l-0.90078,0l-0.28698,1.33922l0.86093,0l0,0.00797z" class="st1"/>
   </g>
  </g>
 </g>
</svg>