<svg width="24" height="24" xmlns="http://www.w3.org/2000/svg" stroke="#6600CC" xml:space="preserve" version="1.1" fill="#6600CC">

 <g>
  <title>Layer 1</title>
  <g stroke-width="0" id="SVGRepo_bgCarrier"/>
  <g stroke-linejoin="round" stroke-linecap="round" id="SVGRepo_tracerCarrier"/>
  <g id="SVGRepo_iconCarrier">
   <g id="svg_1">
    <path id="svg_2" d="m12.04378,18.37048l-0.96126,0c-0.67697,0 -1.22714,0.55017 -1.22714,1.22714l0,1.32735c0,0.67697 0.55017,1.22714 1.22714,1.22714l0.96126,0c0.67699,0 1.22714,-0.55017 1.22714,-1.22714l0,-1.32735c0,-0.679 -0.55015,-1.22714 -1.22714,-1.22714z"/>
    <path id="svg_3" d="m5.26589,8.09526l1.77321,0.22088c0.56244,0.06954 1.09624,-0.25361 1.29872,-0.78332c0.25565,-0.66879 0.61152,-1.19646 1.06761,-1.58096c0.64631,-0.54403 1.45007,-0.81809 2.41133,-0.81809c0.99603,0 1.78958,0.26179 2.3786,0.78332c0.58903,0.52358 0.88149,1.14942 0.88149,1.88366c0,0.52767 -0.16566,1.01034 -0.49699,1.44802c-0.21475,0.27815 -0.87536,0.86309 -1.97774,1.75685c-1.10442,0.89377 -1.83864,1.69957 -2.20678,2.4154c-0.37632,0.73221 -0.50722,1.54415 -0.53994,2.35817c-0.02861,0.69742 0.52767,1.27827 1.22714,1.27827l1.00216,0c0.63811,0 1.16578,-0.48881 1.22305,-1.12283c0.0409,-0.45607 0.11658,-0.80171 0.23113,-1.03691c0.19223,-0.40293 0.68922,-0.93469 1.48686,-1.59732c1.54413,-1.27829 2.55038,-2.28863 3.02285,-3.0331c0.4704,-0.74242 0.70765,-1.52983 0.70765,-2.36224c0,-1.50324 -0.64016,-2.82242 -1.92252,-3.95547c-1.28031,-1.13306 -3.00649,-1.69959 -5.17443,-1.69959c-2.06159,0 -3.72436,0.55835 -4.99241,1.67709c-1.07988,0.95308 -1.7364,2.08204 -1.96751,3.38486c-0.0716,0.38041 0.18814,0.73628 0.56651,0.78332z"/>
   </g>
  </g>
 </g>
</svg>