<svg width="24" height="24" xmlns="http://www.w3.org/2000/svg" fill="none">

 <g>
  <title>Layer 1</title>
  <g id="svg_4">
   <path id="svg_1" fill="#B4F9BA" d="m8.53978,3.99919l3.17753,-1.835c0.09047,-0.05221 0.20273,-0.05221 0.2932,0l8.37451,4.83502c0.09047,0.05221 0.14617,0.14879 0.14703,0.25322l0.01134,3.32542c0,0.10529 -0.0557,0.20273 -0.14706,0.25494l-3.17319,1.83237c-0.19487,0.11312 -0.43937,-0.02785 -0.44023,-0.25319l-0.01044,-2.98435c0,-0.10443 -0.05656,-0.201 -0.14706,-0.25322l-8.08562,-4.66709c-0.19577,-0.11311 -0.19577,-0.39501 0,-0.50813z"/>
   <path id="svg_2" fill="#B4F9BA" d="m6.44874,19.06193l-3.17665,-1.83413c-0.09136,-0.05221 -0.14704,-0.14879 -0.14704,-0.25405l0,-9.67007c0,-0.1044 0.05568,-0.20097 0.14617,-0.25405l2.87473,-1.67317c0.09137,-0.05308 0.20359,-0.05308 0.29409,0l3.17319,1.83237c0.19487,0.11312 0.19577,0.39415 0.00086,0.50813l-2.57893,1.50091c-0.09047,0.05218 -0.14617,0.14879 -0.14617,0.25405l0,9.33683c0,0.2262 -0.2445,0.36716 -0.44026,0.25405l0,-0.00086z"/>
   <path id="svg_3" fill="#B4F9BA" d="m20.54342,13.30473l0,3.66825c0,0.10526 -0.0557,0.20183 -0.14703,0.25405l-8.37451,4.83502c-0.0905,0.05221 -0.20186,0.05221 -0.29237,0l-2.88602,-1.65315c-0.09137,-0.05218 -0.14793,-0.14965 -0.14793,-0.25491l0,-3.66391c0,-0.22537 0.24361,-0.3663 0.4394,-0.25494l2.58934,1.48347c0.09047,0.05221 0.20186,0.05135 0.29234,0l8.08565,-4.66883c0.19577,-0.11312 0.44026,0.02785 0.44026,0.25405l0.00086,0.00089z"/>
  </g>
 </g>
</svg>