<svg width="24" height="23" xmlns="http://www.w3.org/2000/svg" preserveAspectRatio="xMidYMid" version="1.1">
 <title>Ganache</title>

 <g>
  <title>Layer 1</title>
  <g id="svg_1">
   <path id="svg_2" fill="#E4A663" d="m18.67614,16.44951c0.20796,0 0.27976,-0.04849 0.37861,-0.21728c0.09885,-0.16879 0.05129,-0.44296 0.04756,-0.51756c-0.00933,-0.16413 -0.06435,-0.34691 -0.07181,-0.4383c0,-0.05595 0,-0.41312 0.00839,-0.55953c0.12496,-2.31644 1.11905,-2.86758 1.40628,-2.93006c0.18319,-0.05399 0.37964,-0.04077 0.55393,0.0373l0,-3.54367l0,0l0,-0.05036l0,-0.94001c0,-0.51197 -0.36369,-1.14144 -0.80758,-1.39882l-7.2608,-4.19645c-0.44762,-0.25925 -1.1778,-0.25925 -1.61797,-0.0028l-7.25334,4.19086c-0.44296,0.25645 -0.80665,0.88592 -0.80572,1.39882l0,0.91576c-0.00037,0.00527 -0.00037,0.01058 0,0.01585l0,1.33727c0.04196,0.02331 0.08393,0.04756 0.12589,0.07367c0.14081,0.09325 0.27976,0.14454 0.42151,0.24246c0.40392,0.24613 0.77924,0.53638 1.11905,0.8654c0.06621,0.06341 0.28722,0.34131 0.33945,0.40659c0.16051,0.22118 0.34093,0.4272 0.53901,0.61548c0.10943,0.09978 0.22989,0.18676 0.35903,0.25925c0.21355,0.11097 0.56606,0.08579 0.74604,0.00653c1.38203,-0.59869 2.2493,-0.29841 2.64936,-0.05782c0.98943,0.59403 1.31955,1.42493 1.42493,2.43394c0.01384,0.13069 0.0182,0.26221 0.01306,0.39353c0,0.23966 -0.00839,0.62481 0.24433,0.68915c0.36276,0.09325 0.45042,-0.29468 0.50451,-0.55207c0.12216,-0.58284 0.89804,-0.96518 1.46596,-0.67143c0.39167,0.20236 0.55207,0.31706 0.93907,0.14641c0.48399,-0.21355 0.73391,-0.75723 0.9027,-1.04632c0.16675,-0.28148 0.40819,-0.51129 0.69754,-0.66397c0.75536,-0.47093 2.65402,-0.34877 2.72303,1.74386c0,0.11377 0,0.40472 0,0.58191c0,0.19956 0.00653,0.39447 -0.00653,0.60056c-0.00839,0.13708 -0.03264,0.27976 -0.04569,0.42058c-0.00373,0 -0.0746,0.40939 0.26018,0.41125z"/>
   <path id="svg_3" fill="#5E464D" d="m20.99725,11.82782c-0.05129,-0.01585 -0.2005,-0.11377 -0.55207,-0.0373c-0.28816,0.06248 -1.28132,0.61361 -1.40628,2.93006c-0.00746,0.14268 -0.01212,0.49984 -0.00839,0.55953c0.00746,0.09325 0.06248,0.27417 0.07181,0.4383c0,0.0746 0.05688,0.34504 -0.04756,0.51756c-0.10445,0.17252 -0.17066,0.21822 -0.37861,0.21728c-0.33478,0 -0.26391,-0.41125 -0.26391,-0.41125c0.01306,-0.13895 0.0373,-0.27976 0.04569,-0.42058c0.01306,-0.20609 0.00653,-0.40099 0.00653,-0.60056c0,-0.17718 0,-0.46627 0,-0.58191c-0.06901,-2.09263 -1.96767,-2.21479 -2.72303,-1.74386c-0.28936,0.15268 -0.53079,0.38249 -0.69754,0.66397c-0.16879,0.28909 -0.41871,0.83276 -0.9027,1.04632c-0.38701,0.17066 -0.5474,0.05595 -0.93907,-0.14641c-0.56792,-0.29375 -1.3438,0.08859 -1.46596,0.67143c-0.05409,0.25738 -0.14175,0.64439 -0.50451,0.55207c-0.25272,-0.06435 -0.24433,-0.44949 -0.24433,-0.68915c0.00514,-0.13132 0.00078,-0.26284 -0.01306,-0.39353c-0.10538,-1.00901 -0.4355,-1.83991 -1.42493,-2.43394c-0.40006,-0.2406 -1.26733,-0.54088 -2.64936,0.05782c-0.18651,0.07927 -0.53528,0.10444 -0.74604,-0.00653c-0.12914,-0.07249 -0.2496,-0.15947 -0.35903,-0.25925c-0.19808,-0.18828 -0.37851,-0.3943 -0.53901,-0.61548c-0.05222,-0.06528 -0.27324,-0.34318 -0.33945,-0.40659c-0.33982,-0.32902 -0.71514,-0.61927 -1.11905,-0.8654c-0.14175,-0.09326 -0.27976,-0.15294 -0.42151,-0.24246c-0.04196,-0.02611 -0.08393,-0.05036 -0.12589,-0.07367l0,6.1147c0,0.5129 0.36369,1.14237 0.80758,1.39882l7.2608,4.19645c0.44389,0.25738 1.17034,0.25738 1.61424,0l7.26173,-4.19086c0.44389,-0.25645 0.80665,-0.88592 0.80572,-1.39882l-0.0028,-3.84675z"/>
   <path id="svg_4" fill="#FFFFFF" d="m13.0473,10.80015c-0.50171,0.29002 -1.32328,0.29002 -1.82499,0l-7.42492,-3.91669c0.08393,0.083 7.52937,4.40814 7.52937,4.40814c0.44389,0.25738 1.17034,0.25738 1.61424,0c0,0 7.43518,-4.31209 7.51911,-4.39509l-7.4128,3.90363z"/>
   <path id="svg_5" fill="#FFFFFF" d="m11.21019,2.25338c0.50264,-0.28722 1.32328,-0.28722 1.82592,0.00093l0.89991,0.37302c-0.08393,-0.083 -1.00528,-0.67983 -1.00528,-0.67983c-0.44389,-0.25645 -1.16941,-0.25738 -1.6133,0c0,0 -1.47156,0.86447 -1.55455,0.94653l1.44731,-0.64066z"/>
  </g>
 </g>
</svg>