<svg width="90" height="76" viewBox="0 0 90 76" fill="none" xmlns="http://www.w3.org/2000/svg">
<path d="M36.8377 4.54466L26.0274 15.355L26.0129 15.3695L25.9984 15.385L25.984 15.3995C25.6993 15.7097 25.5537 16.11 25.5537 16.5103C25.5537 16.9329 25.7116 17.3532 26.0229 17.6679L26.0885 17.729C26.3943 18.0026 26.7879 18.1393 27.1827 18.1393C27.6052 18.1393 28.0244 17.9814 28.338 17.6712L32.0041 13.9984C33.056 12.9465 34.4404 12.4206 35.8203 12.4206C37.2002 12.4206 38.5846 12.9465 39.6365 13.9984C40.6895 15.0514 41.2155 16.4358 41.2155 17.8158C41.2155 19.1968 40.6895 20.5789 39.6376 21.6308L30.3717 30.8978C30.0582 31.2114 29.8992 31.6317 29.8992 32.052C29.8992 32.4757 30.0559 32.896 30.3673 33.2107C30.6842 33.5209 31.1045 33.6799 31.5248 33.6799C31.9496 33.6799 32.3699 33.522 32.6846 33.2107L40.7062 25.1824C41.7603 24.1283 43.1447 23.6023 44.5235 23.6023C45.9023 23.6112 47.2845 24.1361 48.3308 25.1802C49.3905 26.2332 49.9187 27.6176 49.9187 28.9986C49.9187 30.3752 49.3905 31.7551 48.3408 32.807L45.9134 35.2411C45.5988 35.5558 45.4397 35.9761 45.4397 36.3964C45.4397 36.8156 45.5988 37.2359 45.9134 37.5506C46.2303 37.8675 46.6484 38.0243 47.0676 38.0243C47.4902 38.0243 47.9094 37.8675 48.2218 37.5573L59.0333 26.7402L56.0978 23.8047L36.8377 4.54466ZM79.4553 54.0007C78.1899 55.9567 77.0513 57.4667 76.0717 58.7643C74.108 61.3685 72.8615 63.0209 72.8615 65.5316L72.857 65.6673C72.9093 67.4475 73.6387 69.0521 74.8018 70.2141C75.9849 71.3983 77.6217 72.1255 79.4553 72.1255C81.2834 72.1255 82.9202 71.3961 84.1022 70.2141C85.2975 69.0187 86.0369 67.3619 86.057 65.5316C86.0492 63.0209 84.8027 61.3685 82.839 58.7643C81.8594 57.4667 80.7207 55.9567 79.4553 54.0007ZM73.0694 56.4982C74.4149 54.7146 76.0695 52.5219 77.8297 49.4718C77.9898 49.1927 78.2222 48.9514 78.5213 48.7802C79.4186 48.2653 80.5662 48.5744 81.081 49.4718C82.8412 52.5219 84.4958 54.7146 85.8412 56.4982C88.2742 59.7239 89.8165 61.7699 89.8165 65.5316L89.8087 65.5461C89.7853 68.416 88.6311 71.0091 86.7642 72.8761C84.8994 74.7408 82.3253 75.8928 79.4553 75.8928C76.5943 75.8928 74.0235 74.7441 72.1565 72.8794L72.1465 72.8694C70.3196 71.0402 69.1765 68.5228 69.1053 65.7362L69.0942 65.5316C69.0942 61.7699 70.6365 59.7239 73.0694 56.4982ZM38.1698 0.550541L79.4064 41.7871C80.1414 42.5221 80.1414 43.7141 79.4064 44.4491C79.0539 44.8016 78.5958 44.9851 78.1332 44.9995L65.0345 45.9502L40.1669 70.8078C38.3022 72.617 35.8792 73.521 33.4618 73.521C30.9944 73.521 28.5203 72.5814 26.6445 70.7055L2.81434 46.8754C0.938484 44.9995 0 42.5277 0 40.0591C0 37.5951 0.938484 35.1265 2.81434 33.2496L23.2686 12.7931L23.3164 12.743L23.3654 12.693L35.5067 0.551653L35.5078 0.550541L35.5412 0.517183L35.5423 0.516071L35.5768 0.484936L35.5779 0.483824L35.6135 0.45269L35.6146 0.451577L35.6502 0.422667L35.6513 0.421555L35.6868 0.392644L35.688 0.391532L35.7247 0.364846L35.7258 0.363734L35.7636 0.337047L35.7647 0.335935L35.8025 0.310361L35.8036 0.309248L35.8414 0.284785L35.8425 0.283673L35.8814 0.261435L35.8826 0.260322L35.9215 0.238084L35.9226 0.236972L35.9626 0.215844L35.9637 0.214733L36.0038 0.194718L36.0049 0.193606L36.0449 0.174703L36.046 0.173591L36.0872 0.1558L36.0883 0.154688L36.1294 0.138008L36.1305 0.136896L36.1717 0.121329L36.1728 0.120218L36.215 0.105762L36.2161 0.10465L36.2584 0.0913067L36.2595 0.0901945L36.3018 0.077963L36.3029 0.0768509L36.3451 0.0657316L36.3462 0.0646202L36.3896 0.0546122L36.3907 0.0535001L36.4341 0.0434929L36.4352 0.0423808L36.4786 0.0345972L36.4797 0.033485L36.523 0.0268136L36.5241 0.0257014L36.5675 0.0201421L36.5686 0.01903L36.612 0.0134699L36.6131 0.0123585L36.6576 0.00902284L36.6587 0.00791066L36.7021 0.00568629L36.7032 0.00457495L36.7476 0.00235058L36.7488 0.00123839H36.7921L36.7932 0.000127058H36.8377C37.3181 -0.00543268 37.7907 0.171367 38.1698 0.550541ZM22.3902 18.9911L5.47634 35.9049C4.3366 37.0402 3.76728 38.5491 3.76728 40.0591C3.76728 41.5681 4.33771 43.0748 5.47634 44.2134L29.3065 68.0435C30.4462 69.1833 31.954 69.7537 33.4618 69.7537C34.9396 69.7537 36.413 69.21 37.5371 68.128L62.8662 42.7945C63.1764 42.4865 63.5945 42.283 64.0649 42.2497L73.8355 41.5403L61.6909 29.3978C58.0893 32.9527 54.2775 36.5676 50.8838 40.2126C49.823 41.2645 48.442 41.7916 47.0676 41.7916C45.6888 41.7916 44.3056 41.2667 43.2548 40.2159C42.1995 39.1607 41.6725 37.7774 41.6725 36.3964C41.6725 35.0142 42.1995 33.631 43.2514 32.5791L45.6777 30.1528C45.9935 29.8404 46.1514 29.4211 46.1514 28.9986C46.1514 28.5794 45.9924 28.1591 45.6788 27.8455C45.3586 27.5219 44.9394 27.3618 44.5235 27.3618C44.1043 27.3696 43.684 27.5286 43.3704 27.8422L35.3433 35.8693C34.2836 36.919 32.9025 37.4472 31.5248 37.4472C30.1449 37.4472 28.7605 36.9212 27.7086 35.8693C26.6589 34.8108 26.1319 33.4275 26.1319 32.052C26.1319 30.6721 26.6578 29.2877 27.7097 28.2358L36.9745 18.97C37.2892 18.6553 37.4482 18.235 37.4482 17.8158C37.4482 17.3954 37.2892 16.9751 36.9756 16.6615C36.6609 16.3469 36.2406 16.1879 35.8203 16.1879C35.4 16.1879 34.9797 16.3469 34.6661 16.6604L30.9989 20.3276C29.9381 21.3807 28.557 21.9066 27.1827 21.9066C25.8561 21.9066 24.5262 21.4173 23.4899 20.4422L23.3676 20.3299C22.9651 19.924 22.6393 19.4714 22.3902 18.9911Z" fill="url(#paint0_linear_165_153)"/>
<defs>
<linearGradient id="paint0_linear_165_153" x1="89.8165" y1="38.3217" x2="-1.19852" y2="37.2024" gradientUnits="userSpaceOnUse">
<stop stop-color="#4831B1"/>
<stop offset="0.0886" stop-color="#5D41C4"/>
<stop offset="0.214" stop-color="#7152D8"/>
<stop offset="0.3396" stop-color="#7C5CE4"/>
<stop offset="0.4649" stop-color="#805FE8"/>
<stop offset="0.5515" stop-color="#8065E9"/>
<stop offset="0.6688" stop-color="#7F76ED"/>
<stop offset="0.8036" stop-color="#7E93F3"/>
<stop offset="0.9506" stop-color="#7CBAFC"/>
<stop offset="1" stop-color="#7BC9FF"/>
</linearGradient>
</defs>
</svg>
