<svg width="88" height="88" viewBox="0 0 88 88" fill="none" xmlns="http://www.w3.org/2000/svg">
<path d="M13.5094 0.240486C12.5813 0.584236 11.6703 1.35767 11.1891 2.23423C10.6219 3.26548 8.6969 12.6327 8.8344 13.7327C8.88596 14.1452 9.14377 14.8499 9.40159 15.3311C9.84846 16.1389 11 17.1874 11.4641 17.1874C11.636 17.1874 11.6875 17.7374 11.6875 19.628V22.0858L10.8453 22.8249C10.2781 23.3061 9.7969 23.942 9.41877 24.6983C8.93752 25.6952 8.86877 26.0217 8.86877 27.1389C8.86877 28.3764 9.17815 29.3905 15.4516 48.6405L22.0344 68.8186L22.0688 70.4686C22.086 71.9124 22.1547 72.2389 22.636 73.253C23.2891 74.6452 23.9078 75.4358 24.8532 76.1577L25.575 76.6905L25.3 77.653C25.0938 78.3749 25.025 79.4405 25.0078 81.7264C25.0078 84.5795 25.0422 84.8717 25.386 85.5077C25.8157 86.3155 26.6578 87.1405 27.5 87.5874C28.0844 87.8967 29.0469 87.9139 51.0469 87.9655C76.2438 88.017 74.7485 88.0686 76.1406 86.9686C76.5016 86.6764 77 86.0405 77.2407 85.5592C77.636 84.7858 77.6875 84.442 77.6875 83.0327C77.6875 81.503 77.7391 81.2967 78.2719 80.1795C79.6125 77.4467 79.5266 74.5764 78.0141 71.4999C76.6563 68.767 73.8547 66.4811 70.8985 65.742C69.4719 65.3811 67.4438 65.4155 61.8578 65.9139C57.2 66.3436 56.9938 66.3436 56.8219 66.0514C56.4438 65.3467 55.6532 64.8139 54.7078 64.6249C53.2469 64.3155 47.85 64.4702 47.1797 64.8311C46.4407 65.2264 45.8907 65.8624 45.6328 66.6358C45.4094 67.2545 45.375 67.2889 44.5672 67.3405C43.0375 67.4092 37.3828 67.8905 36.85 67.9936C36.3516 68.0795 36.3 68.0452 35.8875 67.1686C35.4578 66.292 35.4407 66.1202 35.3547 61.9608C35.1485 52.817 33.5844 45.2374 30.3016 37.4686C27.7407 31.4186 23.1 23.4608 21.2438 21.8967L20.4532 21.2436V18.9405V16.6374L20.9688 15.967C21.9657 14.7124 22.0172 14.3342 21.9657 8.49049C21.9141 3.42017 21.8969 3.14517 21.536 2.49204C21.1063 1.68423 20.2641 0.842049 19.4219 0.412361C18.6141 -0.0173264 14.5235 -0.137642 13.5094 0.240486ZM18.5797 3.42017L19.0782 3.91861V8.67954C19.0782 13.6467 18.9922 14.2311 18.3047 14.5061C18.15 14.5577 16.8094 14.6092 15.3313 14.6092C11.275 14.592 11.3781 14.8327 12.5469 8.97173C13.0282 6.54829 13.5094 4.29673 13.5953 4.00455C13.8875 3.07642 14.2828 2.92173 16.2938 2.92173C18.0297 2.92173 18.0813 2.93892 18.5797 3.42017ZM17.5313 19.078V20.6249H16.9641C16.6375 20.6249 16.0016 20.7452 15.5375 20.8827C15.0735 21.0202 14.6781 21.1405 14.661 21.1405C14.5578 21.1405 14.6266 17.7545 14.7297 17.6514C14.7813 17.5827 15.4516 17.5311 16.1906 17.5311H17.5313V19.078ZM19.0094 23.8733C20.0063 24.4749 23.2032 29.5108 25.4547 34.0311C28.8063 40.7514 30.5078 45.9077 31.6422 52.6795C32.0719 55.292 32.4844 59.9155 32.4844 62.1155C32.4844 63.6624 32.45 63.7827 32.1922 63.6795C29.7344 62.6311 26.6406 63.0952 24.6985 64.7967C24.3375 65.1061 24.0282 65.3295 23.9938 65.2952C23.9766 65.2608 21.175 56.7014 17.7891 46.2858C11.2235 26.0389 11.4469 26.8811 12.2032 25.6608C12.65 24.9045 13.0969 24.6467 14.9703 24.0795C16.9125 23.478 18.2531 23.4092 19.0094 23.8733ZM30.7656 66.2577C34.4266 67.5467 34.736 72.5827 31.2469 74.3186C29.15 75.367 26.6578 74.5592 25.5063 72.4967C25.0938 71.7233 25.0078 71.3967 25.0078 70.3827C25.025 69.042 25.2828 68.3545 26.1938 67.4092C27.3797 66.1374 29.15 65.6905 30.7656 66.2577ZM54.3125 69.7811C54.3125 73.167 54.0547 73.4592 51.0641 73.3561C49.5344 73.3045 49.311 73.253 48.9156 72.892C48.4688 72.4795 48.4688 72.428 48.4688 70.0045V67.5467H51.3907H54.3125V69.7811ZM70.6235 68.7327C73.4422 69.6092 75.6078 72.0842 76.1578 75.0233C76.3641 76.1577 76.2782 77.1717 75.8657 78.4092L75.5907 79.2342H65.6391H55.6875V77.2405C55.6875 75.2811 55.6875 75.2467 56.2203 74.6108C56.925 73.717 57.2344 72.5827 57.2344 70.778C57.2344 69.4545 57.2688 69.2655 57.5438 69.2483C57.6985 69.2483 59.7266 69.0592 62.0469 68.853C67.4782 68.3374 69.2657 68.303 70.6235 68.7327ZM45.5469 71.5858C45.5469 72.978 45.7703 73.717 46.475 74.6452C46.8875 75.1952 46.9219 75.3499 46.9219 77.2233V79.2342H37.4516H27.9813L28.1016 78.5983C28.1703 78.2374 28.2563 77.8936 28.2907 77.842C28.325 77.7905 28.9953 77.6874 29.8032 77.653C33.0172 77.4467 35.561 75.3327 36.3688 72.1874L36.6782 71.0014L37.3828 70.8983C38.6547 70.7092 43.0375 70.3311 44.3094 70.3139L45.5469 70.2967V71.5858ZM52.7657 77.7733V79.2342H51.3047H49.8438V77.7733V76.3124H51.3047H52.7657V77.7733ZM74.7656 83.1358C74.7485 84.1842 74.5938 84.5452 73.9578 84.8717C73.6828 85.0264 67.8907 85.078 51.2188 85.078H28.8407L28.3422 84.5795C27.9125 84.1327 27.8438 83.9436 27.8438 83.1186V82.1561H51.3047H74.7656V83.1358Z" fill="url(#paint0_linear_130_359)"/>
<defs>
<linearGradient id="paint0_linear_130_359" x1="80.4609" y1="20.7226" x2="8.8274" y2="20.7077" gradientUnits="userSpaceOnUse">
<stop stop-color="#4B31B1"/>
<stop offset="0.0886" stop-color="#5D41C4"/>
<stop offset="0.214" stop-color="#7152D8"/>
<stop offset="0.3396" stop-color="#7C5CE4"/>
<stop offset="0.4649" stop-color="#805FE8"/>
<stop offset="0.5515" stop-color="#8065E9"/>
<stop offset="0.6688" stop-color="#7F76ED"/>
<stop offset="0.8036" stop-color="#7E93F3"/>
<stop offset="0.9506" stop-color="#7CBAFC"/>
<stop offset="1" stop-color="#7BC9FF"/>
</linearGradient>
</defs>
</svg>
