<svg width="75" height="75" viewBox="0 0 75 75" fill="none" xmlns="http://www.w3.org/2000/svg">
<path fill-rule="evenodd" clip-rule="evenodd" d="M6.51261 6.51487C7.33028 5.69726 8.43928 5.23793 9.59564 5.23793C10.752 5.23793 11.861 5.69726 12.6787 6.51487C13.4963 7.33248 13.9557 8.44139 13.9557 9.59767C13.9557 10.7539 13.4963 11.8629 12.6787 12.6805C11.861 13.4981 10.752 13.9574 9.59564 13.9574C8.43928 13.9574 7.33028 13.4981 6.51261 12.6805C5.69495 11.8629 5.23558 10.7539 5.23558 9.59767C5.23558 8.44139 5.69495 7.33248 6.51261 6.51487ZM1.44127 4.54767C0.501586 6.06451 0.0036774 7.81338 0.00351603 9.59767C0.00390093 11.6854 0.685256 13.716 1.94422 15.3815C3.20318 17.047 4.97104 18.2564 6.97961 18.8264V56.1736C4.7512 56.805 2.82639 58.2211 1.56037 60.1605C0.294352 62.0998 -0.227422 64.4316 0.0913343 66.7256C0.41009 69.0195 1.54786 71.1208 3.29469 72.6415C5.04151 74.1623 7.2795 75 9.59564 75C11.9118 75 14.1498 74.1623 15.8966 72.6415C17.6434 71.1208 18.7812 69.0195 19.0999 66.7256C19.4187 64.4316 18.8969 62.0998 17.6309 60.1605C16.3649 58.2211 14.4401 56.805 12.2117 56.1736V40.1158H34.884V56.1736C32.6556 56.805 30.7307 58.2211 29.4647 60.1605C28.1987 62.0998 27.6769 64.4316 27.9957 66.7256C28.3145 69.0195 29.4522 71.1208 31.1991 72.6415C32.9459 74.1623 35.1839 75 37.5 75C39.8161 75 42.0541 74.1623 43.801 72.6415C45.5478 71.1208 46.6856 69.0195 47.0043 66.7256C47.3231 64.4316 46.8013 62.0998 45.5353 60.1605C44.2693 58.2211 42.3444 56.805 40.116 56.1736V40.1158H51.6336C54.7693 40.1158 57.3819 40.1158 59.4538 39.8368C61.6443 39.5438 63.622 38.8951 65.209 37.3047C66.7996 35.7177 67.4484 33.7402 67.7414 31.5498C68.0204 29.4781 68.0204 26.8622 68.0204 23.7302V18.8264C70.2488 18.195 72.1736 16.7789 73.4396 14.8395C74.7057 12.9002 75.2274 10.5684 74.9087 8.27443C74.5899 5.98049 73.4521 3.87925 71.7053 2.35847C69.9585 0.837684 67.7205 0 65.4044 0C63.0882 0 60.8502 0.837684 59.1034 2.35847C57.3566 3.87925 56.2188 5.98049 55.9001 8.27443C55.5813 10.5684 56.1031 12.9002 57.3691 14.8395C58.6351 16.7789 60.5599 18.195 62.7883 18.8264V23.5488C62.7883 26.9111 62.7814 29.1712 62.5581 30.8523C62.3384 32.4636 61.9652 33.1542 61.5117 33.6076C61.0583 34.061 60.3676 34.4342 58.7596 34.654C57.0749 34.8772 54.8147 34.8842 51.4522 34.8842H40.116V18.8264C42.3444 18.195 44.2693 16.7789 45.5353 14.8395C46.8013 12.9002 47.3231 10.5684 47.0043 8.27443C46.6856 5.98049 45.5478 3.87925 43.801 2.35847C42.0541 0.837684 39.8161 0 37.5 0C35.1839 0 32.9459 0.837684 31.1991 2.35847C29.4522 3.87925 28.3145 5.98049 27.9957 8.27443C27.6769 10.5684 28.1987 12.9002 29.4647 14.8395C30.7307 16.7789 32.6556 18.195 34.884 18.8264V34.8842H12.2117V18.8264C13.9284 18.3397 15.4754 17.3839 16.6787 16.0663C17.882 14.7488 18.6939 13.1217 19.0231 11.368C19.3523 9.61439 19.1858 7.80367 18.5423 6.13946C17.8987 4.47524 16.8037 3.02352 15.3803 1.94749C13.9568 0.871458 12.2615 0.213784 10.4847 0.0484018C8.70798 -0.11698 6.92033 0.216488 5.32273 1.01132C3.72514 1.80615 2.38095 3.03082 1.44127 4.54767ZM34.417 6.51487C35.2346 5.69726 36.3436 5.23793 37.5 5.23793C38.6564 5.23793 39.7654 5.69726 40.583 6.51487C41.4007 7.33248 41.8601 8.44139 41.8601 9.59767C41.8601 10.7539 41.4007 11.8629 40.583 12.6805C39.7654 13.4981 38.6564 13.9574 37.5 13.9574C36.3436 13.9574 35.2346 13.4981 34.417 12.6805C33.5993 11.8629 33.1399 10.7539 33.1399 9.59767C33.1399 8.44139 33.5993 7.33248 34.417 6.51487ZM62.3213 6.51487C63.139 5.69726 64.248 5.23793 65.4044 5.23793C66.5607 5.23793 67.6697 5.69726 68.4874 6.51487C69.3051 7.33248 69.7644 8.44139 69.7644 9.59767C69.7644 10.7539 69.3051 11.8629 68.4874 12.6805C67.6697 13.4981 66.5607 13.9574 65.4044 13.9574C64.248 13.9574 63.139 13.4981 62.3213 12.6805C61.5037 11.8629 61.0443 10.7539 61.0443 9.59767C61.0443 8.44139 61.5037 7.33248 62.3213 6.51487ZM6.51261 62.3195C7.33028 61.5019 8.43928 61.0426 9.59564 61.0426C10.752 61.0426 11.861 61.5019 12.6787 62.3195C13.4963 63.1371 13.9557 64.2461 13.9557 65.4023C13.9557 66.5586 13.4963 67.6675 12.6787 68.4851C11.861 69.3027 10.752 69.7621 9.59564 69.7621C8.43928 69.7621 7.33028 69.3027 6.51261 68.4851C5.69495 67.6675 5.23558 66.5586 5.23558 65.4023C5.23558 64.2461 5.69495 63.1371 6.51261 62.3195ZM34.417 62.3195C35.2346 61.5019 36.3436 61.0426 37.5 61.0426C38.6564 61.0426 39.7654 61.5019 40.583 62.3195C41.4007 63.1371 41.8601 64.2461 41.8601 65.4023C41.8601 66.5586 41.4007 67.6675 40.583 68.4851C39.7654 69.3027 38.6564 69.7621 37.5 69.7621C36.3436 69.7621 35.2346 69.3027 34.417 68.4851C33.5993 67.6675 33.1399 66.5586 33.1399 65.4023C33.1399 64.2461 33.5993 63.1371 34.417 62.3195ZM65.5 75C70.7467 75 75 70.7467 75 65.5C75 60.2533 70.7467 56 65.5 56C60.2533 56 56 60.2533 56 65.5C56 70.7467 60.2533 75 65.5 75ZM65.5 69.9269C63.0551 69.9269 61.0731 67.9449 61.0731 65.5C61.0731 63.0551 63.0551 61.0731 65.5 61.0731C67.9449 61.0731 69.9269 63.0551 69.9269 65.5C69.9269 67.9449 67.9449 69.9269 65.5 69.9269Z" fill="url(#paint0_linear_130_381)"/>
<defs>
<linearGradient id="paint0_linear_130_381" x1="76.3256" y1="57.3451" x2="7.26262e-06" y2="57.365" gradientUnits="userSpaceOnUse">
<stop stop-color="#4B31B1"/>
<stop offset="0.0886" stop-color="#5D41C4"/>
<stop offset="0.214" stop-color="#7152D8"/>
<stop offset="0.3396" stop-color="#7C5CE4"/>
<stop offset="0.4649" stop-color="#805FE8"/>
<stop offset="0.5515" stop-color="#8065E9"/>
<stop offset="0.6688" stop-color="#7F76ED"/>
<stop offset="0.8036" stop-color="#7E93F3"/>
<stop offset="0.9506" stop-color="#7CBAFC"/>
<stop offset="1" stop-color="#7BC9FF"/>
</linearGradient>
</defs>
</svg>
