<svg width="133" height="80" viewBox="0 0 133 80" fill="none" xmlns="http://www.w3.org/2000/svg">
<path d="M79.9199 0.0318826C80.5286 0.0292115 81.1371 0.0206862 81.7458 0.0120564C82.1352 0.0102654 82.5246 0.00882472 82.9139 0.00776971C83.4418 0.0039237 83.4418 0.0039237 83.9803 0C84.9827 0.104297 85.5011 0.306704 86.2919 0.920844C86.4859 1.54135 86.4859 1.54135 86.5148 2.20686C86.5279 2.42861 86.541 2.65035 86.5544 2.87881C86.5583 3.0475 86.5622 3.2162 86.5662 3.39C87.0522 3.37568 87.0522 3.37568 87.5479 3.36107C87.9751 3.35335 88.4024 3.34586 88.8296 3.33856C89.0429 3.33167 89.2561 3.32477 89.4758 3.31766C90.4282 3.30545 91.0633 3.30434 91.9214 3.74473C92.3276 4.21306 92.3276 4.21306 92.4476 5.17328C92.3276 6.13351 92.3276 6.13351 91.9675 6.64792C90.8989 7.36034 89.8009 7.26286 88.5724 7.24806C87.5794 7.23957 87.5794 7.23957 86.5662 7.23092C86.5662 8.58895 86.5662 9.94699 86.5662 11.3462C86.8672 11.3366 87.1682 11.3271 87.4782 11.3172C87.8773 11.3095 88.2763 11.302 88.6753 11.2947C88.9721 11.2844 88.9721 11.2844 89.2749 11.2738C90.5222 11.2568 91.3674 11.3412 92.3276 12.1692C92.5001 12.7008 92.5001 12.7008 92.4819 13.2666C92.4823 13.4534 92.4826 13.6401 92.483 13.8325C92.3276 14.364 92.3276 14.364 91.9193 14.8409C90.8961 15.3549 89.9566 15.275 88.8296 15.2385C88.5034 15.233 88.5034 15.233 88.1705 15.2273C87.6357 15.2176 87.1009 15.2029 86.5662 15.1871C86.5623 15.3558 86.5584 15.5245 86.5544 15.6983C86.5414 15.92 86.5283 16.1418 86.5148 16.3702C86.5005 16.6997 86.5005 16.6997 86.4859 17.0357C86.2919 17.6563 86.2919 17.6563 85.7131 18.1003C84.7518 18.5597 84.0758 18.5816 83.0125 18.579C82.7411 18.5792 82.7411 18.5792 82.4641 18.5794C82.0823 18.5787 81.7004 18.5761 81.3186 18.5715C80.7418 18.5651 80.1653 18.5659 79.5885 18.5677C76.1317 18.561 73.3635 18.2187 70.7021 15.8365C69.5138 14.5494 68.4591 12.858 68.4591 11.0718C62.0366 11.0885 55.6142 11.1097 49.1918 11.1365C46.2096 11.1488 43.2274 11.1596 40.2452 11.1669C37.6451 11.1732 35.0451 11.1824 32.445 11.1949C31.069 11.2015 29.693 11.2066 28.317 11.2083C27.0201 11.21 25.7234 11.2155 24.4265 11.2239C23.9522 11.2263 23.4779 11.2273 23.0036 11.2268C19.1119 11.2241 15.8935 11.5579 12.8516 14.1754C10.3294 17.1066 9.90272 20.2967 9.88193 24.0821C9.877 24.4184 9.87208 24.7548 9.867 25.1013C9.85227 26.1633 9.8429 27.2253 9.8337 28.2873C9.82459 29.0125 9.81512 29.7377 9.8053 30.4629C9.78212 32.2297 9.76332 33.9965 9.74796 35.7634C10.2155 35.5937 10.2155 35.5937 10.6925 35.4205C35.9341 26.2696 58.2622 22.9874 84.0136 31.9155C84.9549 32.2409 85.8974 32.5628 86.8406 32.8827C87.0372 32.9494 87.2338 33.0161 87.4363 33.0849C92.4479 34.774 97.5418 36.1951 102.633 37.6217C108.755 39.346 114.858 41.1935 120.586 43.9939C120.786 44.0915 120.987 44.1891 121.193 44.2896C125.243 46.286 130.149 48.8555 131.834 53.3219C132.029 54.656 132.028 55.9814 132.016 57.3268C132.017 57.7116 132.019 58.0965 132.02 58.4814C132.022 59.2841 132.019 60.0867 132.013 60.8894C132.005 61.9131 132.01 62.9363 132.018 63.96C132.023 64.7535 132.021 65.5468 132.018 66.3403C132.017 66.7175 132.018 67.0948 132.021 67.472C132.038 69.9934 131.813 71.6264 130.076 73.4893C128.411 75.0386 126.472 75.0652 124.334 75.0224C123.839 75.0213 123.344 75.0208 122.849 75.0208C122.077 75.0186 121.306 75.0127 120.534 74.9966C117.536 74.8451 117.536 74.8451 114.793 75.8084C114.142 76.4445 114.142 76.4445 113.655 77.1293C112.46 78.6575 110.129 79.4194 108.24 79.6596C105.055 79.9356 101.964 79.4583 99.4275 77.3983C98.912 76.9161 98.912 76.9161 98.2112 76.0758C97.3393 75.2093 96.6928 75.0746 95.486 75.0511C95.1436 75.0569 95.1436 75.0569 94.7944 75.0628C94.5484 75.0604 94.3024 75.058 94.049 75.0556C93.2262 75.0497 92.4038 75.0555 91.581 75.0613C90.9906 75.0595 90.4002 75.057 89.8098 75.0539C88.2074 75.0476 86.6051 75.0516 85.0027 75.0579C83.3266 75.0631 81.6505 75.06 79.9743 75.0582C77.1601 75.0564 74.346 75.0614 71.5319 75.0704C68.2763 75.0807 65.0208 75.0802 61.7652 75.074C58.6351 75.0682 55.505 75.0702 52.3749 75.0757C51.0419 75.0779 49.7089 75.0773 48.3759 75.0746C46.8072 75.0717 45.2386 75.0756 43.67 75.0847C43.0935 75.0869 42.5171 75.0868 41.9407 75.0843C41.1552 75.0811 40.3703 75.0864 39.5849 75.0939C39.3555 75.091 39.126 75.0882 38.8896 75.0852C37.7983 75.1046 37.3064 75.1461 36.5206 75.9346C36.3771 76.168 36.2335 76.4013 36.0857 76.6417C33.5444 78.8928 30.4824 79.89 27.1049 79.7635C24.3448 79.4433 22.1971 78.5429 20.1733 76.6417C19.9987 76.4081 19.8241 76.1746 19.6442 75.9339C18.395 74.9496 17.2916 75.0851 15.744 75.1049C15.4467 75.1027 15.1494 75.1005 14.843 75.0983C13.8933 75.0919 12.9439 75.0945 11.9942 75.0985C11.0475 75.0995 10.1009 75.0986 9.1542 75.0928C8.56579 75.0895 7.97733 75.0902 7.38893 75.0955C5.31704 75.0878 3.45996 74.8288 1.84323 73.4009C1.69434 73.2747 1.54545 73.1484 1.39205 73.0183C-0.0237823 71.3731 0.0263502 69.7485 0.0348297 67.6844C0.0329468 67.3643 0.0310596 67.0443 0.0291196 66.7146C0.0241055 65.6586 0.0251648 64.6028 0.0267251 63.5468C0.0257902 62.9985 0.0248534 62.4501 0.0236105 61.9018C0.0197627 60.1797 0.0201814 58.4576 0.0233091 56.7355C0.0264646 54.9589 0.0225891 53.1823 0.0152464 51.4057C0.00917324 49.8791 0.00734647 48.3525 0.0089586 46.8258C0.00988403 45.9145 0.0087428 45.0033 0.00449605 44.092C0.000431831 43.0771 0.00331576 42.0625 0.00803762 41.0477C0.00538521 40.7454 0.00273279 40.4431 0 40.1316C0.00269801 39.8559 0.00539182 39.5801 0.00817159 39.296C0.008229 39.0561 0.00828825 38.8162 0.00834741 38.5691C0.14568 37.9582 0.145678 37.9582 0.666855 37.4721C1.29219 37.1065 1.71327 37.0014 2.43051 36.9348C2.75941 36.9016 2.75941 36.9016 3.09495 36.8678C3.43446 36.8389 3.43446 36.8389 3.78083 36.8094C4.01142 36.7869 4.242 36.7645 4.47957 36.7413C5.04655 36.6866 5.61395 36.6361 6.1814 36.5865C6.17897 36.3675 6.17653 36.1486 6.17402 35.923C6.15189 33.8449 6.13525 31.7668 6.12454 29.6886C6.11885 28.6206 6.11115 27.5526 6.09862 26.4846C6.08656 25.451 6.0801 24.4176 6.07728 23.384C6.07528 22.9926 6.07137 22.6012 6.06538 22.2098C5.99858 17.6597 7.12792 14.3347 10.2452 11.0032C13.6903 7.71746 17.3861 7.38268 21.9272 7.41183C22.4358 7.41206 22.9444 7.41193 23.4529 7.41146C24.8268 7.41123 26.2005 7.41605 27.5744 7.42181C29.0126 7.42697 30.4508 7.42744 31.8891 7.42842C34.6096 7.43097 37.3301 7.43772 40.0506 7.44599C43.1491 7.4552 46.2476 7.45972 49.346 7.46385C55.7171 7.47244 62.0881 7.48691 68.4591 7.50527C68.4977 7.24816 68.5364 6.99105 68.5763 6.72615C68.9317 4.76511 70.2173 3.02799 71.7716 1.81141C74.3735 0.127885 76.9011 0.0399077 79.9199 0.0318826ZM73.3116 5.63625C72.3895 7.17324 71.8727 8.49453 72.18 10.3002C72.5848 11.8828 73.1945 12.9063 74.5119 13.9011C75.6279 14.5422 76.3958 14.6719 77.6616 14.6652C77.9269 14.6645 78.1922 14.6638 78.4656 14.6631C78.8018 14.6606 79.1381 14.6581 79.4845 14.6555C80.554 14.6499 81.6235 14.6442 82.7253 14.6384C82.7253 11.1075 82.7253 7.5766 82.7253 3.9387C81.6842 3.91607 80.643 3.89344 79.5703 3.87012C79.2465 3.86013 78.9227 3.85014 78.5892 3.83984C76.4283 3.81723 74.9325 4.10305 73.3116 5.63625ZM41.2983 30.5507C41.0317 30.5978 40.7651 30.6449 40.4904 30.6934C33.0881 32.0467 25.9376 34.3235 18.8033 36.6734C13.8466 38.3024 8.88376 39.907 3.71224 40.7017C3.71224 41.426 3.71224 42.1503 3.71224 42.8965C3.93788 42.9202 4.16351 42.9439 4.39598 42.9683C7.48487 43.3571 9.97669 44.2247 11.9428 46.7374C13.254 48.7356 14.2763 50.8791 13.8632 53.3219C13.578 53.897 13.578 53.897 13.0402 54.4193C12.2983 54.5363 11.6626 54.5852 10.9193 54.5865C10.6105 54.5933 10.6105 54.5933 10.2954 54.6002C9.63853 54.6135 8.98179 54.6194 8.32477 54.625C7.87912 54.6328 7.43348 54.641 6.98784 54.6497C5.89599 54.67 4.80424 54.6836 3.71224 54.6936C3.69137 56.7393 3.67696 58.7849 3.66703 60.8307C3.66289 61.5266 3.65728 62.2225 3.65015 62.9183C3.64017 63.9187 3.6355 64.9191 3.63187 65.9195C3.62762 66.2305 3.62337 66.5415 3.61899 66.8619C3.61893 67.1529 3.61887 67.4439 3.61881 67.7437C3.61698 67.999 3.61516 68.2542 3.61327 68.5173C3.73389 69.391 4.01798 69.8964 4.5353 70.606C5.38937 71.1754 5.56781 71.2226 6.53472 71.217C6.77085 71.2169 7.00698 71.2169 7.25026 71.2169C7.50406 71.214 7.75785 71.2112 8.01934 71.2083C8.41037 71.2071 8.41036 71.2071 8.80929 71.2059C9.64234 71.2028 10.4753 71.196 11.3083 71.189C11.8729 71.1862 12.4375 71.1837 13.0021 71.1815C14.3866 71.1754 15.771 71.166 17.1554 71.1547C17.1503 70.7981 17.1451 70.4415 17.1398 70.0741C17.1356 69.6009 17.1315 69.1277 17.1276 68.6544C17.1238 68.4201 17.1201 68.1857 17.1163 67.9442C17.0967 64.8109 18.1644 62.4884 20.3544 60.2675C22.8385 57.9984 25.6719 57.2968 28.9933 57.3525C31.9677 57.5908 34.6736 58.8458 36.6536 61.1023C39.0264 64.299 39.1035 67.1417 39.1035 71.1547C57.6634 71.1547 76.2232 71.1547 95.3455 71.1547C95.3455 69.9777 95.3455 68.8008 95.3455 67.5881C95.7151 64.5943 96.8814 61.8871 99.1296 59.8195C101.94 57.6759 105.052 57.1568 108.514 57.4371C111.648 58.0785 114.101 59.7489 115.922 62.3755C117.502 65.2223 117.57 67.9726 117.568 71.1547C118.793 71.1751 120.018 71.19 121.243 71.1999C121.66 71.204 122.076 71.2096 122.493 71.2168C123.093 71.2268 123.693 71.2314 124.293 71.2351C124.834 71.2415 124.834 71.2415 125.385 71.2481C126.404 71.1492 126.91 70.9422 127.719 70.3316C128.365 69.4398 128.284 68.661 128.268 67.5881C128.055 67.5945 127.843 67.6009 127.625 67.6074C125.899 67.6373 124.431 67.5473 122.781 67.0394C122.472 65.4962 122.472 65.4962 122.781 64.5703C124.55 63.8064 126.369 63.9824 128.268 64.0216C128.268 62.6635 128.268 61.3055 128.268 59.9063C127.656 59.8497 127.045 59.7931 126.416 59.7348C123.693 59.4093 121.22 58.4013 119.342 56.3387C117.898 54.371 117.252 52.5159 117.276 50.0983C117.279 49.7771 117.281 49.456 117.284 49.1252C117.289 48.7581 117.289 48.7581 117.294 48.3836C118.244 48.1119 118.244 48.1119 119.214 47.8349C117.858 46.7244 116.254 46.2192 114.636 45.5886C114.332 45.4668 114.028 45.3449 113.715 45.2194C108.129 43.028 102.338 41.4255 96.5722 39.7892C90.6929 38.1188 84.879 36.3408 79.1073 34.3231C74.5841 32.7461 70.1786 31.3358 65.4412 30.5507C65.1993 30.5051 64.9574 30.4595 64.7082 30.4125C57.1966 29.0013 48.8017 29.2245 41.2983 30.5507ZM3.71224 46.4631C3.71224 47.9117 3.71224 49.3602 3.71224 50.8527C5.79457 50.8527 7.87689 50.8527 10.0223 50.8527C8.84886 48.5058 8.10789 47.517 5.70129 46.6346C4.78137 46.4286 4.78137 46.4286 3.71224 46.4631ZM121.134 51.6758C121.679 53.3959 122.228 54.4562 123.861 55.3109C125.36 55.9969 126.618 56.0977 128.268 56.0654C128.225 54.0324 127.186 53.0632 125.798 51.6758C125.013 51.6557 124.234 51.6504 123.449 51.6586C123.228 51.6599 123.007 51.6611 122.779 51.6624C122.231 51.6656 121.683 51.6705 121.134 51.6758ZM22.0938 63.4729C20.7596 65.4741 20.1547 67.5835 20.5795 69.9769C21.1271 71.995 21.9924 73.5147 23.7399 74.7212C25.8498 75.8839 28.1009 76.2695 30.4722 75.6311C32.606 74.7475 34.1057 73.4937 35.0633 71.3829C35.8145 69.4887 35.879 67.3441 35.0911 65.4448C34.0364 63.4091 32.7608 62.0922 30.5986 61.278C27.5607 60.358 24.2675 61.1475 22.0938 63.4729ZM100.284 63.7472C98.9941 65.7486 98.6221 67.8356 99.0288 70.1827C99.5277 72.1751 100.482 73.6916 102.23 74.8166C104.278 75.8824 106.44 76.2057 108.705 75.6311C110.974 74.7951 112.507 73.6187 113.528 71.4097C114.292 69.3792 114.248 67.191 113.48 65.165C112.51 63.2557 111.063 62.0078 109.063 61.278C105.894 60.3229 102.454 61.2252 100.284 63.7472Z" fill="url(#paint0_linear_130_452)"/>
<path d="M84.0458 38.4383C84.3599 38.5611 84.6741 38.6839 84.9978 38.8104C88.2795 40.1443 88.2795 40.1443 89.0034 41.8066C89.1481 42.9479 89.0959 43.3465 88.4697 44.3712C86.9174 45.7583 85.2201 45.7435 83.2334 45.8137C82.9547 45.8251 82.6761 45.8366 82.3889 45.8484C81.4609 45.885 80.5329 45.9173 79.6047 45.9487C79.2828 45.9601 78.9609 45.9716 78.6292 45.9833C32.325 47.5963 32.325 47.5963 22.7112 40.8732C22.0939 40.153 22.0939 40.153 21.9053 39.1756C22.0939 38.2326 22.0939 38.2326 22.5826 37.6914C23.9037 36.8593 25.3144 36.4956 26.8093 36.0721C27.1382 35.9774 27.4671 35.8827 27.806 35.7851C33.7042 34.1142 39.5984 32.917 45.6881 32.1968C45.9254 32.1682 46.1627 32.1395 46.4072 32.1099C59.61 30.7036 71.8391 33.5907 84.0458 38.4383ZM29.227 39.33C33.9893 42.195 42.0988 41.7903 47.4928 42.0938C47.7041 42.1058 47.9154 42.1177 48.1331 42.13C52.8468 42.3903 57.5521 42.4224 62.2717 42.4015C63.1167 42.3985 63.9616 42.3986 64.8066 42.3988C70.4184 42.3985 76.0202 42.2843 81.628 42.0735C80.7154 40.2481 75.9426 39.4544 73.9462 38.7813C59.2034 34.0538 43.9582 35.0709 29.227 39.33Z" fill="url(#paint1_linear_130_452)"/>
<defs>
<linearGradient id="paint0_linear_130_452" x1="134.355" y1="60.9954" x2="2.86364e-05" y2="61.0533" gradientUnits="userSpaceOnUse">
<stop stop-color="#4B31B1"/>
<stop offset="0.0886" stop-color="#5D41C4"/>
<stop offset="0.214" stop-color="#7152D8"/>
<stop offset="0.3396" stop-color="#7C5CE4"/>
<stop offset="0.4649" stop-color="#805FE8"/>
<stop offset="0.5515" stop-color="#8065E9"/>
<stop offset="0.6688" stop-color="#7F76ED"/>
<stop offset="0.8036" stop-color="#7E93F3"/>
<stop offset="0.9506" stop-color="#7CBAFC"/>
<stop offset="1" stop-color="#7BC9FF"/>
</linearGradient>
<linearGradient id="paint1_linear_130_452" x1="90.2575" y1="43.3113" x2="21.9054" y2="43.3904" gradientUnits="userSpaceOnUse">
<stop stop-color="#4B31B1"/>
<stop offset="0.0886" stop-color="#5D41C4"/>
<stop offset="0.214" stop-color="#7152D8"/>
<stop offset="0.3396" stop-color="#7C5CE4"/>
<stop offset="0.4649" stop-color="#805FE8"/>
<stop offset="0.5515" stop-color="#8065E9"/>
<stop offset="0.6688" stop-color="#7F76ED"/>
<stop offset="0.8036" stop-color="#7E93F3"/>
<stop offset="0.9506" stop-color="#7CBAFC"/>
<stop offset="1" stop-color="#7BC9FF"/>
</linearGradient>
</defs>
</svg>
