<svg width="96" height="88" viewBox="0 0 96 88" fill="none" xmlns="http://www.w3.org/2000/svg">
<path d="M42.9031 0.0550003C42.9031 0.0879974 42.6281 0.110001 42.188 0.110001C41.748 0.110001 41.473 0.132004 41.473 0.165001C41.473 0.197998 41.3245 0.220001 41.143 0.220001C40.9615 0.220001 40.8129 0.241997 40.8129 0.275002C40.8129 0.307999 40.6644 0.330002 40.4829 0.330002C40.3014 0.330002 40.1529 0.351997 40.1529 0.385002C40.1529 0.417999 40.0044 0.440002 39.8229 0.440002C39.6414 0.440002 39.4928 0.461998 39.4928 0.495003C39.4928 0.522499 39.3938 0.550003 39.2728 0.550003C39.1518 0.550003 39.0528 0.571999 39.0528 0.605003C39.0528 0.6325 38.9318 0.660004 38.7778 0.660004C38.6293 0.660004 38.5028 0.681999 38.5028 0.715004C38.5028 0.7425 38.4313 0.770004 38.3378 0.770004C38.2498 0.770004 38.1728 0.792 38.1728 0.824997C38.1728 0.852501 38.0737 0.879997 37.9527 0.879997C37.8317 0.879997 37.7327 0.902 37.7327 0.934998C37.7327 0.962502 37.6337 0.989998 37.5127 0.989998C37.3917 0.989998 37.2927 1.012 37.2927 1.045C37.2927 1.0725 37.2432 1.1 37.1827 1.1C37.1222 1.1 37.0727 1.122 37.0727 1.155C37.0727 1.1825 36.9517 1.21 36.7977 1.21C36.6491 1.21 36.5226 1.232 36.5226 1.265C36.5226 1.2925 36.4731 1.32 36.4126 1.32C36.3521 1.32 36.3026 1.342 36.3026 1.375C36.3026 1.4025 36.2311 1.43 36.1376 1.43C36.0496 1.43 35.9726 1.452 35.9726 1.485C35.9726 1.5125 35.9011 1.54 35.8076 1.54C35.7196 1.54 35.6426 1.562 35.6426 1.595C35.6426 1.6225 35.5931 1.65 35.5326 1.65C35.4721 1.65 35.4226 1.672 35.4226 1.705C35.4226 1.7325 35.3511 1.76 35.2575 1.76C35.1695 1.76 35.0925 1.782 35.0925 1.815C35.0925 1.8425 35.043 1.87 34.9825 1.87C34.922 1.87 34.8725 1.892 34.8725 1.925C34.8725 1.9525 34.801 1.98 34.7075 1.98C34.6195 1.98 34.5425 2.002 34.5425 2.035C34.5425 2.0625 34.493 2.09 34.4325 2.09C34.372 2.09 34.3225 2.112 34.3225 2.145C34.3225 2.1725 34.273 2.2 34.2125 2.2C34.152 2.2 34.1025 2.222 34.1025 2.255C34.1025 2.2825 34.031 2.31 33.9484 2.31C33.8604 2.31 33.7614 2.354 33.7174 2.42C33.6734 2.4805 33.5744 2.53 33.4974 2.53C33.4204 2.53 33.3214 2.5795 33.2774 2.64C33.2334 2.706 33.1344 2.75 33.0464 2.75C32.9639 2.75 32.8924 2.772 32.8924 2.805C32.8924 2.8325 32.8484 2.86 32.7934 2.86C32.7384 2.86 32.6614 2.9095 32.6174 2.97C32.5733 3.0305 32.4743 3.08 32.3973 3.08C32.3203 3.08 32.2213 3.1295 32.1773 3.19C32.1333 3.2505 32.0563 3.3 32.0013 3.3C31.9463 3.3 31.9023 3.322 31.9023 3.355C31.9023 3.3825 31.8528 3.41 31.7923 3.41C31.7318 3.41 31.6823 3.432 31.6823 3.465C31.6823 3.4925 31.6383 3.52 31.5833 3.52C31.5283 3.52 31.4513 3.5695 31.4073 3.63C31.3633 3.6905 31.2863 3.74 31.2313 3.74C31.1762 3.74 31.1322 3.762 31.1322 3.795C31.1322 3.8225 31.0882 3.85 31.0332 3.85C30.9782 3.85 30.9012 3.8995 30.8572 3.96C30.8132 4.0205 30.7417 4.07 30.6922 4.07C30.6427 4.07 30.5712 4.1195 30.5272 4.18C30.4832 4.2405 30.4117 4.29 30.3732 4.29C30.3292 4.29 30.2247 4.3615 30.1422 4.455C30.0597 4.543 29.9552 4.62 29.9112 4.62C29.8727 4.62 29.8011 4.6695 29.7571 4.73C29.7131 4.7905 29.6416 4.84 29.5921 4.84C29.5426 4.84 29.4711 4.8895 29.4271 4.95C29.3831 5.0105 29.3116 5.06 29.2731 5.06C29.2346 5.06 29.1026 5.159 28.9871 5.28C28.8716 5.401 28.7396 5.5 28.7011 5.5C28.6626 5.5 28.5911 5.5495 28.5471 5.61C28.5031 5.6705 28.4371 5.72 28.393 5.72C28.3545 5.72 28.151 5.8905 27.942 6.105C27.733 6.314 27.535 6.49 27.502 6.49C27.4305 6.49 25.1918 8.7285 25.1918 8.8C25.1918 8.833 24.9938 9.053 24.7518 9.295C24.5098 9.537 24.3118 9.757 24.3118 9.79C24.3118 9.823 24.1412 10.021 23.9267 10.23C23.7177 10.439 23.5417 10.637 23.5417 10.67C23.5417 10.703 23.2942 10.9725 22.9917 11.275C22.6891 11.5775 22.4416 11.847 22.4416 11.88C22.4416 11.913 22.2711 12.111 22.0566 12.32C21.8476 12.529 21.6716 12.727 21.6716 12.76C21.6716 12.793 21.4735 13.013 21.2315 13.255C20.9895 13.497 20.7915 13.717 20.7915 13.75C20.7915 13.783 20.621 13.981 20.4065 14.19C20.1975 14.399 20.0214 14.608 20.0214 14.6575C20.0214 14.7015 19.9719 14.74 19.9114 14.74C19.8509 14.74 19.8014 14.7785 19.8014 14.8225C19.8014 14.872 19.6309 15.081 19.4164 15.29C19.2074 15.499 19.0314 15.697 19.0314 15.73C19.0314 15.763 18.8334 15.983 18.5913 16.225C18.3493 16.467 18.1513 16.687 18.1513 16.72C18.1513 16.753 17.9808 16.951 17.7663 17.16C17.5573 17.369 17.3813 17.567 17.3813 17.6C17.3813 17.633 17.1337 17.9025 16.8312 18.205C16.5287 18.5075 16.2812 18.777 16.2812 18.81C16.2812 18.843 16.1107 19.041 15.8961 19.25C15.6871 19.459 15.5111 19.657 15.5111 19.69C15.5111 19.723 15.3131 19.943 15.0711 20.185C14.8291 20.427 14.6311 20.647 14.6311 20.68C14.6311 20.713 14.411 20.9605 14.136 21.23C13.8665 21.4995 13.641 21.747 13.641 21.78C13.641 21.813 13.4705 22.011 13.256 22.22C13.0469 22.429 12.8709 22.627 12.8709 22.66C12.8709 22.693 12.6729 22.913 12.4309 23.155C12.1889 23.397 11.9909 23.617 11.9909 23.65C11.9909 23.683 11.8204 23.881 11.6058 24.09C11.3968 24.299 11.2208 24.497 11.2208 24.53C11.2208 24.563 11.0008 24.8105 10.7258 25.08C10.4508 25.3495 10.2307 25.597 10.2307 25.63C10.2307 25.663 10.0327 25.883 9.79071 26.125C9.54869 26.367 9.35067 26.587 9.35067 26.62C9.35067 26.653 9.15266 26.873 8.91064 27.115C8.66862 27.357 8.47061 27.577 8.47061 27.61C8.47061 27.643 8.2726 27.863 8.03058 28.105C7.78856 28.347 7.59055 28.567 7.59055 28.6C7.59055 28.633 7.39253 28.853 7.15052 29.095C6.9085 29.337 6.71048 29.557 6.71048 29.59C6.71048 29.623 6.53997 29.821 6.32546 30.03C6.11644 30.239 5.94043 30.437 5.94043 30.47C5.94043 30.503 5.84142 30.6295 5.72041 30.745C5.5994 30.8605 5.5004 30.987 5.5004 31.02C5.5004 31.0585 5.42889 31.1575 5.33538 31.24C5.24738 31.3225 5.17037 31.4215 5.17037 31.46C5.17037 31.4985 5.09887 31.5975 5.00536 31.68C4.91735 31.7625 4.84035 31.867 4.84035 31.911C4.84035 31.9495 4.79085 32.021 4.73034 32.065C4.66984 32.109 4.62033 32.1805 4.62033 32.219C4.62033 32.263 4.54883 32.3675 4.45532 32.45C4.36731 32.5325 4.29031 32.637 4.29031 32.681C4.29031 32.7195 4.24081 32.791 4.1803 32.835C4.1198 32.879 4.07029 32.956 4.07029 33.011C4.07029 33.066 4.04829 33.11 4.01529 33.11C3.98779 33.11 3.96029 33.154 3.96029 33.209C3.96029 33.264 3.91078 33.341 3.85028 33.385C3.78977 33.429 3.74027 33.5005 3.74027 33.55C3.74027 33.5995 3.69077 33.671 3.63026 33.715C3.56976 33.759 3.52025 33.836 3.52025 33.891C3.52025 33.946 3.49825 33.99 3.46525 33.99C3.43775 33.99 3.41025 34.0395 3.41025 34.1C3.41025 34.1605 3.38824 34.21 3.35524 34.21C3.32774 34.21 3.30024 34.254 3.30024 34.309C3.30024 34.364 3.25073 34.441 3.19023 34.485C3.12973 34.529 3.08022 34.606 3.08022 34.661C3.08022 34.716 3.05822 34.76 3.02522 34.76C2.99772 34.76 2.97021 34.8095 2.97021 34.87C2.97021 34.9305 2.94821 34.98 2.91521 34.98C2.88771 34.98 2.86021 35.0295 2.86021 35.09C2.86021 35.1505 2.8382 35.2 2.8052 35.2C2.7777 35.2 2.7502 35.2495 2.7502 35.31C2.7502 35.3705 2.7282 35.42 2.69519 35.42C2.66769 35.42 2.64019 35.4695 2.64019 35.53C2.64019 35.5905 2.61819 35.64 2.58519 35.64C2.55768 35.64 2.53018 35.6895 2.53018 35.75C2.53018 35.8105 2.50818 35.86 2.47518 35.86C2.44768 35.86 2.42017 35.9315 2.42017 36.025C2.42017 36.113 2.39817 36.19 2.36517 36.19C2.33767 36.19 2.31017 36.2395 2.31017 36.3C2.31017 36.3605 2.28817 36.41 2.25516 36.41C2.22766 36.41 2.20016 36.4595 2.20016 36.52C2.20016 36.5805 2.17816 36.63 2.14515 36.63C2.11765 36.63 2.09015 36.6795 2.09015 36.74C2.09015 36.8005 2.06815 36.85 2.03515 36.85C2.00764 36.85 1.98014 36.9215 1.98014 37.015C1.98014 37.103 1.95814 37.18 1.92514 37.18C1.89764 37.18 1.87013 37.2295 1.87013 37.29C1.87013 37.3505 1.84813 37.4 1.81513 37.4C1.78763 37.4 1.76013 37.4715 1.76013 37.565C1.76013 37.653 1.73813 37.73 1.70512 37.73C1.67762 37.73 1.65012 37.8015 1.65012 37.895C1.65012 37.983 1.62812 38.06 1.59512 38.06C1.56761 38.06 1.54011 38.1095 1.54011 38.17C1.54011 38.2305 1.51811 38.28 1.48511 38.28C1.45761 38.28 1.4301 38.3515 1.4301 38.445C1.4301 38.533 1.4081 38.61 1.3751 38.61C1.3476 38.61 1.3201 38.6595 1.3201 38.72C1.3201 38.7805 1.29809 38.83 1.26509 38.83C1.23759 38.83 1.21009 38.929 1.21009 39.05C1.21009 39.171 1.18809 39.27 1.15508 39.27C1.12758 39.27 1.10008 39.369 1.10008 39.49C1.10008 39.611 1.07808 39.71 1.04508 39.71C1.01757 39.71 0.990071 39.7595 0.990071 39.82C0.990071 39.8805 0.96807 39.93 0.935067 39.93C0.907565 39.93 0.880063 40.051 0.880063 40.205C0.880063 40.3535 0.858062 40.48 0.82506 40.48C0.797558 40.48 0.770056 40.5515 0.770056 40.645C0.770056 40.733 0.748054 40.81 0.715052 40.81C0.68755 40.81 0.660048 40.931 0.660048 41.085C0.660048 41.2335 0.638046 41.36 0.605044 41.36C0.577542 41.36 0.55004 41.459 0.55004 41.58C0.55004 41.701 0.528038 41.8 0.495036 41.8C0.467534 41.8 0.440032 41.921 0.440032 42.075C0.440032 42.2235 0.41803 42.35 0.385028 42.35C0.352025 42.35 0.330024 42.515 0.330024 42.735C0.330024 42.955 0.308022 43.12 0.27502 43.12C0.247518 43.12 0.220016 43.241 0.220016 43.395C0.220016 43.5435 0.198014 43.67 0.165012 43.67C0.13201 43.67 0.110008 43.9065 0.110008 44.275C0.110008 44.6435 0.0880063 44.88 0.055004 44.88C0.0220016 44.88 0 45.485 0 46.585C0 47.685 0.0220016 48.29 0.055004 48.29C0.0880063 48.29 0.110008 48.4935 0.110008 48.785C0.110008 49.0765 0.13201 49.28 0.165012 49.28C0.198014 49.28 0.220016 49.4285 0.220016 49.61C0.220016 49.7915 0.242017 49.94 0.27502 49.94C0.308022 49.94 0.330024 50.1435 0.330024 50.435C0.330024 50.7265 0.352025 50.93 0.385028 50.93C0.41803 50.93 0.440032 51.095 0.440032 51.315C0.440032 51.535 0.462033 51.7 0.495036 51.7C0.528038 51.7 0.55004 51.865 0.55004 52.085C0.55004 52.305 0.572041 52.47 0.605044 52.47C0.638046 52.47 0.660048 52.69 0.660048 53.02C0.660048 53.35 0.682049 53.57 0.715052 53.57C0.748054 53.57 0.770056 53.691 0.770056 53.845C0.770056 53.9935 0.797558 54.12 0.82506 54.12C0.858062 54.12 0.880063 54.34 0.880063 54.67C0.880063 55 0.902065 55.22 0.935067 55.22C0.96807 55.22 0.990071 55.3685 0.990071 55.55C0.990071 55.7315 1.01207 55.88 1.04508 55.88C1.07808 55.88 1.10008 56.0615 1.10008 56.32C1.10008 56.5785 1.12208 56.76 1.15508 56.76C1.18809 56.76 1.21009 56.9635 1.21009 57.255C1.21009 57.5465 1.23209 57.75 1.26509 57.75C1.29809 57.75 1.3201 57.8985 1.3201 58.08C1.3201 58.2615 1.3421 58.41 1.3751 58.41C1.4081 58.41 1.4301 58.63 1.4301 58.96C1.4301 59.29 1.4521 59.51 1.48511 59.51C1.51811 59.51 1.54011 59.631 1.54011 59.785C1.54011 59.9335 1.56761 60.06 1.59512 60.06C1.62812 60.06 1.65012 60.2635 1.65012 60.555C1.65012 60.8465 1.67212 61.05 1.70512 61.05C1.73813 61.05 1.76013 61.2315 1.76013 61.49C1.76013 61.7485 1.78213 61.93 1.81513 61.93C1.84813 61.93 1.87013 62.095 1.87013 62.315C1.87013 62.535 1.89214 62.7 1.92514 62.7C1.95814 62.7 1.98014 62.9035 1.98014 63.195C1.98014 63.4865 2.00214 63.69 2.03515 63.69C2.06815 63.69 2.09015 63.8385 2.09015 64.02C2.09015 64.2015 2.11215 64.35 2.14515 64.35C2.17816 64.35 2.20016 64.5535 2.20016 64.845C2.20016 65.1365 2.22216 65.34 2.25516 65.34C2.28817 65.34 2.31017 65.505 2.31017 65.725C2.31017 65.945 2.33217 66.11 2.36517 66.11C2.39817 66.11 2.42017 66.2915 2.42017 66.55C2.42017 66.8085 2.44218 66.99 2.47518 66.99C2.50818 66.99 2.53018 67.1935 2.53018 67.485C2.53018 67.7765 2.55218 67.98 2.58519 67.98C2.61819 67.98 2.64019 68.101 2.64019 68.255C2.64019 68.4035 2.66769 68.53 2.69519 68.53C2.7282 68.53 2.7502 68.75 2.7502 69.08C2.7502 69.41 2.7722 69.63 2.8052 69.63C2.8382 69.63 2.86021 69.7785 2.86021 69.96C2.86021 70.1415 2.88221 70.29 2.91521 70.29C2.94821 70.29 2.97021 70.4935 2.97021 70.785C2.97021 71.0765 2.99222 71.28 3.02522 71.28C3.05822 71.28 3.08022 71.4615 3.08022 71.72C3.08022 71.9785 3.10222 72.16 3.13523 72.16C3.16823 72.16 3.19023 72.3085 3.19023 72.49C3.19023 72.6715 3.21223 72.82 3.24523 72.82C3.27824 72.82 3.30024 73.0235 3.30024 73.315C3.30024 73.6065 3.32224 73.81 3.35524 73.81C3.38824 73.81 3.41025 73.909 3.41025 74.03C3.41025 74.151 3.43775 74.25 3.46525 74.25C3.49825 74.25 3.52025 74.3985 3.52025 74.58C3.52025 74.7615 3.54226 74.91 3.57526 74.91C3.60826 74.91 3.63026 74.9815 3.63026 75.075C3.63026 75.163 3.65776 75.24 3.68527 75.24C3.71827 75.24 3.74027 75.339 3.74027 75.46C3.74027 75.581 3.76777 75.68 3.79527 75.68C3.82828 75.68 3.85028 75.779 3.85028 75.9C3.85028 76.021 3.87778 76.12 3.90528 76.12C3.93828 76.12 3.96029 76.1695 3.96029 76.23C3.96029 76.2905 3.98779 76.34 4.01529 76.34C4.04829 76.34 4.07029 76.439 4.07029 76.56C4.07029 76.681 4.0978 76.78 4.1253 76.78C4.1583 76.78 4.1803 76.8295 4.1803 76.89C4.1803 76.9505 4.2078 77 4.23531 77C4.26831 77 4.29031 77.0715 4.29031 77.165C4.29031 77.253 4.31781 77.33 4.34531 77.33C4.37832 77.33 4.40032 77.3795 4.40032 77.44C4.40032 77.5005 4.42782 77.55 4.45532 77.55C4.48832 77.55 4.51033 77.5995 4.51033 77.66C4.51033 77.7205 4.53783 77.77 4.56533 77.77C4.59833 77.77 4.62033 77.8415 4.62033 77.924C4.62033 78.012 4.66434 78.111 4.73034 78.155C4.79635 78.199 4.84035 78.298 4.84035 78.386C4.84035 78.4685 4.86785 78.54 4.89535 78.54C4.92836 78.54 4.95036 78.5895 4.95036 78.65C4.95036 78.7105 4.97786 78.76 5.00536 78.76C5.03836 78.76 5.06037 78.8095 5.06037 78.87C5.06037 78.9305 5.08787 78.98 5.11537 78.98C5.14837 78.98 5.17037 79.024 5.17037 79.079C5.17037 79.134 5.21988 79.211 5.28038 79.255C5.34089 79.299 5.39039 79.376 5.39039 79.431C5.39039 79.486 5.41789 79.53 5.44539 79.53C5.47839 79.53 5.5004 79.5795 5.5004 79.64C5.5004 79.7005 5.5279 79.75 5.5554 79.75C5.5884 79.75 5.6104 79.794 5.6104 79.849C5.6104 79.904 5.65991 79.981 5.72041 80.025C5.78092 80.069 5.83042 80.1405 5.83042 80.19C5.83042 80.2395 5.87992 80.311 5.94043 80.355C6.00093 80.399 6.05044 80.4705 6.05044 80.52C6.05044 80.5695 6.09994 80.641 6.16044 80.685C6.22095 80.729 6.27045 80.8005 6.27045 80.839C6.27045 80.883 6.34746 80.9875 6.43546 81.07C6.52897 81.1525 6.60048 81.2515 6.60048 81.29C6.60048 81.323 6.69948 81.4495 6.82049 81.565C6.9415 81.6805 7.04051 81.807 7.04051 81.84C7.04051 81.873 7.16702 82.0215 7.31553 82.17C7.46954 82.3185 7.59055 82.478 7.59055 82.522C7.59055 82.5715 7.64005 82.61 7.70056 82.61C7.76106 82.61 7.81056 82.6485 7.81056 82.6925C7.81056 82.8025 8.16809 83.16 8.2781 83.16C8.3221 83.16 8.3606 83.2095 8.3606 83.27C8.3606 83.3415 8.39911 83.38 8.47061 83.38C8.54212 83.38 8.58062 83.4185 8.58062 83.49C8.58062 83.5505 8.61912 83.6 8.66862 83.6C8.71263 83.6 8.87214 83.7265 9.02065 83.875C9.16916 84.029 9.31767 84.15 9.35067 84.15C9.38368 84.15 9.53219 84.271 9.6807 84.425C9.82921 84.5735 9.98322 84.7 10.0217 84.7C10.0657 84.7 10.1317 84.7495 10.1757 84.81C10.2197 84.8705 10.2912 84.92 10.3407 84.92C10.3902 84.92 10.4618 84.9695 10.5058 85.03C10.5498 85.0905 10.6213 85.14 10.6708 85.14C10.7203 85.14 10.7918 85.1895 10.8358 85.25C10.8798 85.3105 10.9513 85.36 11.0008 85.36C11.0503 85.36 11.1218 85.4095 11.1658 85.47C11.2098 85.5305 11.2868 85.58 11.3418 85.58C11.3968 85.58 11.4408 85.602 11.4408 85.635C11.4408 85.6625 11.4903 85.69 11.5508 85.69C11.6113 85.69 11.6608 85.712 11.6608 85.745C11.6608 85.7725 11.7048 85.8 11.7598 85.8C11.8149 85.8 11.8919 85.8495 11.9359 85.91C11.9799 85.9705 12.0569 86.02 12.1119 86.02C12.1669 86.02 12.2109 86.042 12.2109 86.075C12.2109 86.1025 12.2604 86.13 12.3209 86.13C12.3814 86.13 12.4309 86.152 12.4309 86.185C12.4309 86.2125 12.4804 86.24 12.5409 86.24C12.6014 86.24 12.6509 86.262 12.6509 86.295C12.6509 86.3225 12.7004 86.35 12.7609 86.35C12.8214 86.35 12.8709 86.372 12.8709 86.405C12.8709 86.4325 12.9204 86.46 12.9809 86.46C13.0414 86.46 13.0909 86.482 13.0909 86.515C13.0909 86.5425 13.1679 86.57 13.256 86.57C13.3495 86.57 13.421 86.592 13.421 86.625C13.421 86.6525 13.4705 86.68 13.531 86.68C13.5915 86.68 13.641 86.702 13.641 86.735C13.641 86.7625 13.718 86.79 13.806 86.79C13.8995 86.79 13.971 86.812 13.971 86.845C13.971 86.8725 14.0205 86.9 14.081 86.9C14.1415 86.9 14.191 86.922 14.191 86.955C14.191 86.9825 14.268 87.01 14.356 87.01C14.4495 87.01 14.521 87.032 14.521 87.065C14.521 87.0925 14.5981 87.12 14.6861 87.12C14.7796 87.12 14.8511 87.142 14.8511 87.175C14.8511 87.2025 14.9281 87.23 15.0161 87.23C15.1096 87.23 15.1811 87.252 15.1811 87.285C15.1811 87.3125 15.2801 87.34 15.4011 87.34C15.5221 87.34 15.6211 87.362 15.6211 87.395C15.6211 87.4225 15.6981 87.45 15.7861 87.45C15.8796 87.45 15.9512 87.472 15.9512 87.505C15.9512 87.5325 16.0502 87.56 16.1712 87.56C16.2922 87.56 16.3912 87.582 16.3912 87.615C16.3912 87.648 16.5397 87.67 16.7212 87.67C16.9027 87.67 17.0512 87.692 17.0512 87.725C17.0512 87.7525 17.1777 87.78 17.3263 87.78C17.4803 87.78 17.6013 87.802 17.6013 87.835C17.6013 87.868 17.8213 87.89 18.1513 87.89C18.4813 87.89 18.7013 87.912 18.7013 87.945C18.7013 87.9835 30.4337 88 53.7939 88C77.1541 88 88.8864 87.9835 88.8864 87.945C88.8864 87.912 89.0514 87.89 89.2714 87.89C89.4915 87.89 89.6565 87.868 89.6565 87.835C89.6565 87.802 89.7335 87.78 89.8215 87.78C89.915 87.78 89.9865 87.7525 89.9865 87.725C89.9865 87.692 90.0855 87.67 90.2065 87.67C90.3275 87.67 90.4265 87.6425 90.4265 87.615C90.4265 87.582 90.5035 87.56 90.5915 87.56C90.685 87.56 90.7565 87.5325 90.7565 87.505C90.7565 87.472 90.806 87.45 90.8666 87.45C90.9271 87.45 90.9766 87.4225 90.9766 87.395C90.9766 87.362 91.0536 87.34 91.1416 87.34C91.2351 87.34 91.3066 87.3125 91.3066 87.285C91.3066 87.252 91.3561 87.23 91.4166 87.23C91.4771 87.23 91.5266 87.2025 91.5266 87.175C91.5266 87.142 91.5761 87.12 91.6366 87.12C91.6971 87.12 91.7466 87.0925 91.7466 87.065C91.7466 87.032 91.7906 87.01 91.8456 87.01C91.9006 87.01 91.9776 86.9605 92.0216 86.9C92.0656 86.8395 92.1371 86.79 92.1866 86.79C92.2362 86.79 92.3077 86.7405 92.3517 86.68C92.3957 86.6195 92.4672 86.57 92.5057 86.57C92.5497 86.57 92.6542 86.4985 92.7367 86.405C92.8192 86.317 92.9182 86.24 92.9512 86.24C93.0337 86.24 94.1668 85.107 94.1668 85.0245C94.1668 84.9915 94.2438 84.8925 94.3318 84.81C94.4253 84.7275 94.4968 84.623 94.4968 84.579C94.4968 84.5405 94.5463 84.469 94.6068 84.425C94.6673 84.381 94.7168 84.304 94.7168 84.249C94.7168 84.194 94.7443 84.15 94.7718 84.15C94.8048 84.15 94.8268 84.106 94.8268 84.051C94.8268 83.996 94.8763 83.919 94.9368 83.875C94.9974 83.831 95.0469 83.754 95.0469 83.699C95.0469 83.644 95.0744 83.6 95.1019 83.6C95.1349 83.6 95.1569 83.5285 95.1569 83.446C95.1569 83.358 95.2009 83.259 95.2669 83.215C95.3439 83.16 95.3769 83.072 95.3769 82.929C95.3769 82.8135 95.4044 82.72 95.4319 82.72C95.4649 82.72 95.4869 82.6705 95.4869 82.61C95.4869 82.5495 95.5144 82.5 95.5419 82.5C95.5749 82.5 95.5969 82.401 95.5969 82.28C95.5969 82.159 95.6244 82.06 95.6519 82.06C95.6849 82.06 95.7069 81.983 95.7069 81.895C95.7069 81.8015 95.7344 81.73 95.7619 81.73C95.7949 81.73 95.8169 81.5815 95.8169 81.4C95.8169 81.2185 95.8389 81.07 95.8719 81.07C95.9104 81.07 95.9269 69.3715 95.9269 46.09C95.9269 22.8085 95.9104 11.11 95.8719 11.11C95.8389 11.11 95.8169 10.945 95.8169 10.725C95.8169 10.505 95.7949 10.34 95.7619 10.34C95.7344 10.34 95.7069 10.2135 95.7069 10.065C95.7069 9.911 95.6849 9.79 95.6519 9.79C95.6244 9.79 95.5969 9.6635 95.5969 9.515C95.5969 9.361 95.5749 9.24 95.5419 9.24C95.5144 9.24 95.4869 9.1905 95.4869 9.13C95.4869 9.0695 95.4649 9.02 95.4319 9.02C95.4044 9.02 95.3769 8.921 95.3769 8.8C95.3769 8.679 95.3549 8.58 95.3219 8.58C95.2944 8.58 95.2669 8.503 95.2669 8.415C95.2669 8.3215 95.2449 8.25 95.2119 8.25C95.1844 8.25 95.1569 8.173 95.1569 8.085C95.1569 7.9915 95.1349 7.92 95.1019 7.92C95.0744 7.92 95.0469 7.8705 95.0469 7.81C95.0469 7.7495 95.0249 7.7 94.9919 7.7C94.9643 7.7 94.9368 7.6505 94.9368 7.59C94.9368 7.5295 94.9148 7.48 94.8818 7.48C94.8543 7.48 94.8268 7.403 94.8268 7.315C94.8268 7.2215 94.8048 7.15 94.7718 7.15C94.7443 7.15 94.7168 7.1005 94.7168 7.04C94.7168 6.9795 94.6948 6.93 94.6618 6.93C94.6343 6.93 94.6068 6.8805 94.6068 6.82C94.6068 6.7595 94.5848 6.71 94.5518 6.71C94.5243 6.71 94.4968 6.666 94.4968 6.611C94.4968 6.556 94.4473 6.479 94.3868 6.435C94.3263 6.391 94.2768 6.314 94.2768 6.259C94.2768 6.204 94.2548 6.16 94.2218 6.16C94.1943 6.16 94.1668 6.1105 94.1668 6.05C94.1668 5.9895 94.1448 5.94 94.1118 5.94C94.0843 5.94 94.0568 5.896 94.0568 5.841C94.0568 5.786 94.0073 5.709 93.9468 5.665C93.8863 5.621 93.8368 5.5495 93.8368 5.511C93.8368 5.467 93.7653 5.3625 93.6718 5.28C93.5837 5.1975 93.5067 5.093 93.5067 5.049C93.5067 5.0105 93.4572 4.939 93.3967 4.895C93.3362 4.851 93.2867 4.785 93.2867 4.741C93.2867 4.7025 93.0887 4.477 92.8467 4.235C92.6047 3.993 92.4067 3.762 92.4067 3.7125C92.4067 3.6685 92.3572 3.63 92.2967 3.63C92.2252 3.63 92.1866 3.5915 92.1866 3.52C92.1866 3.4595 92.1481 3.41 92.1041 3.41C92.0546 3.41 91.8456 3.234 91.6366 3.025C91.4276 2.8105 91.2296 2.64 91.1911 2.64C91.1581 2.64 91.0591 2.563 90.9766 2.475C90.8941 2.3815 90.7896 2.31 90.7455 2.31C90.707 2.31 90.6355 2.2605 90.5915 2.2C90.5475 2.1395 90.476 2.09 90.4265 2.09C90.377 2.09 90.3055 2.0405 90.2615 1.98C90.2175 1.9195 90.1405 1.87 90.0855 1.87C90.0305 1.87 89.9865 1.8425 89.9865 1.815C89.9865 1.782 89.9425 1.76 89.8875 1.76C89.8325 1.76 89.7555 1.7105 89.7115 1.65C89.6675 1.5895 89.5905 1.54 89.5355 1.54C89.4805 1.54 89.4364 1.5125 89.4364 1.485C89.4364 1.452 89.3869 1.43 89.3264 1.43C89.2659 1.43 89.2164 1.4025 89.2164 1.375C89.2164 1.342 89.1669 1.32 89.1064 1.32C89.0459 1.32 88.9964 1.2925 88.9964 1.265C88.9964 1.232 88.9469 1.21 88.8864 1.21C88.8259 1.21 88.7764 1.1825 88.7764 1.155C88.7764 1.122 88.7269 1.1 88.6664 1.1C88.6059 1.1 88.5564 1.0725 88.5564 1.045C88.5564 1.012 88.5069 0.989998 88.4464 0.989998C88.3859 0.989998 88.3364 0.962502 88.3364 0.934998C88.3364 0.902 88.2649 0.879997 88.1714 0.879997C88.0834 0.879997 88.0063 0.852501 88.0063 0.824997C88.0063 0.792 87.9568 0.770004 87.8963 0.770004C87.8358 0.770004 87.7863 0.7425 87.7863 0.715004C87.7863 0.681999 87.6873 0.660004 87.5663 0.660004C87.4453 0.660004 87.3463 0.6325 87.3463 0.605003C87.3463 0.571999 87.2968 0.550003 87.2363 0.550003C87.1758 0.550003 87.1263 0.522499 87.1263 0.495003C87.1263 0.461998 87.0273 0.440002 86.9063 0.440002C86.7853 0.440002 86.6862 0.412498 86.6862 0.385002C86.6862 0.351997 86.5872 0.330002 86.4662 0.330002C86.3452 0.330002 86.2462 0.302498 86.2462 0.275002C86.2462 0.241997 86.1252 0.220001 85.9712 0.220001C85.8227 0.220001 85.6962 0.192497 85.6962 0.165001C85.6962 0.132004 85.4927 0.110001 85.2011 0.110001C84.9096 0.110001 84.7061 0.0879974 84.7061 0.0550003C84.7061 0.0165024 77.7041 0 63.8046 0C49.9051 0 42.9031 0.0165024 42.9031 0.0550003ZM84.1561 4.015C84.1561 4.048 84.3376 4.07 84.5961 4.07C84.8546 4.07 85.0361 4.092 85.0361 4.125C85.0361 4.1525 85.1626 4.18 85.3111 4.18C85.4652 4.18 85.5862 4.202 85.5862 4.235C85.5862 4.2625 85.6632 4.29 85.7512 4.29C85.8447 4.29 85.9162 4.312 85.9162 4.345C85.9162 4.3725 86.0152 4.4 86.1362 4.4C86.2572 4.4 86.3562 4.422 86.3562 4.455C86.3562 4.4825 86.4057 4.51 86.4662 4.51C86.5267 4.51 86.5762 4.532 86.5762 4.565C86.5762 4.5925 86.6533 4.62 86.7413 4.62C86.8348 4.62 86.9063 4.642 86.9063 4.675C86.9063 4.7025 86.9558 4.73 87.0163 4.73C87.0768 4.73 87.1263 4.752 87.1263 4.785C87.1263 4.8125 87.1758 4.84 87.2363 4.84C87.2968 4.84 87.3463 4.862 87.3463 4.895C87.3463 4.9225 87.3903 4.95 87.4453 4.95C87.5003 4.95 87.5773 4.9995 87.6213 5.06C87.6653 5.1205 87.7423 5.17 87.7973 5.17C87.8523 5.17 87.8963 5.192 87.8963 5.225C87.8963 5.2525 87.9403 5.28 87.9953 5.28C88.0504 5.28 88.1274 5.3295 88.1714 5.39C88.2154 5.4505 88.2869 5.5 88.3254 5.5C88.3694 5.5 88.4739 5.5715 88.5564 5.665C88.6389 5.753 88.7379 5.83 88.7709 5.83C88.8589 5.83 90.0965 7.0785 90.0965 7.1665C90.0965 7.205 90.146 7.271 90.2065 7.315C90.267 7.359 90.3165 7.4305 90.3165 7.469C90.3165 7.513 90.3935 7.6175 90.4815 7.7C90.575 7.7825 90.6465 7.8925 90.6465 7.942C90.6465 7.9915 90.674 8.03 90.7015 8.03C90.7345 8.03 90.7565 8.0795 90.7565 8.14C90.7565 8.2005 90.784 8.25 90.8115 8.25C90.8446 8.25 90.8666 8.294 90.8666 8.349C90.8666 8.404 90.9161 8.481 90.9766 8.525C91.0426 8.569 91.0866 8.668 91.0866 8.756C91.0866 8.8385 91.1141 8.91 91.1416 8.91C91.1746 8.91 91.1966 8.9595 91.1966 9.02C91.1966 9.0805 91.2241 9.13 91.2516 9.13C91.2846 9.13 91.3066 9.1795 91.3066 9.24C91.3066 9.3005 91.3341 9.35 91.3616 9.35C91.3946 9.35 91.4166 9.4215 91.4166 9.515C91.4166 9.603 91.4441 9.68 91.4716 9.68C91.5046 9.68 91.5266 9.7515 91.5266 9.845C91.5266 9.933 91.5541 10.01 91.5816 10.01C91.6146 10.01 91.6366 10.109 91.6366 10.23C91.6366 10.351 91.6641 10.45 91.6916 10.45C91.7246 10.45 91.7466 10.549 91.7466 10.67C91.7466 10.791 91.7741 10.89 91.8016 10.89C91.8346 10.89 91.8566 11.0715 91.8566 11.33C91.8566 11.5885 91.8786 11.77 91.9116 11.77C91.9501 11.77 91.9666 23.265 91.9666 46.145C91.9666 69.025 91.9501 80.52 91.9116 80.52C91.8841 80.52 91.8566 80.641 91.8566 80.795C91.8566 80.9435 91.8346 81.07 91.8016 81.07C91.7741 81.07 91.7466 81.1415 91.7466 81.235C91.7466 81.323 91.7246 81.4 91.6916 81.4C91.6641 81.4 91.6366 81.4715 91.6366 81.554C91.6366 81.642 91.5926 81.741 91.5266 81.785C91.4661 81.829 91.4166 81.906 91.4166 81.961C91.4166 82.016 91.3946 82.06 91.3616 82.06C91.3341 82.06 91.3066 82.0985 91.3066 82.148C91.3066 82.192 91.2076 82.3295 91.0866 82.445C90.9656 82.5605 90.8666 82.6815 90.8666 82.72C90.8666 82.797 90.6135 83.05 90.531 83.05C90.498 83.05 90.399 83.1215 90.3165 83.215C90.234 83.303 90.1295 83.38 90.0855 83.38C90.047 83.38 89.9755 83.4295 89.9315 83.49C89.8875 83.556 89.7885 83.6 89.7005 83.6C89.618 83.6 89.5465 83.622 89.5465 83.655C89.5465 83.6825 89.497 83.71 89.4364 83.71C89.3759 83.71 89.3264 83.732 89.3264 83.765C89.3264 83.7925 89.2549 83.82 89.1614 83.82C89.0734 83.82 88.9964 83.842 88.9964 83.875C88.9964 83.908 88.8314 83.93 88.6114 83.93C88.3914 83.93 88.2264 83.952 88.2264 83.985C88.2264 84.0235 76.747 84.04 53.9039 84.04C31.0607 84.04 19.5814 84.0235 19.5814 83.985C19.5814 83.952 19.3229 83.93 18.9214 83.93C18.5198 83.93 18.2613 83.908 18.2613 83.875C18.2613 83.842 18.1128 83.82 17.9313 83.82C17.7498 83.82 17.6013 83.798 17.6013 83.765C17.6013 83.732 17.5023 83.71 17.3813 83.71C17.2602 83.71 17.1612 83.6825 17.1612 83.655C17.1612 83.622 17.0402 83.6 16.8862 83.6C16.7377 83.6 16.6112 83.5725 16.6112 83.545C16.6112 83.512 16.5397 83.49 16.4462 83.49C16.3582 83.49 16.2812 83.4625 16.2812 83.435C16.2812 83.402 16.2097 83.38 16.1162 83.38C16.0282 83.38 15.9512 83.3525 15.9512 83.325C15.9512 83.292 15.9016 83.27 15.8411 83.27C15.7806 83.27 15.7311 83.2425 15.7311 83.215C15.7311 83.182 15.6596 83.16 15.5661 83.16C15.4781 83.16 15.4011 83.1325 15.4011 83.105C15.4011 83.072 15.3296 83.05 15.2361 83.05C15.1481 83.05 15.0711 83.0225 15.0711 82.995C15.0711 82.962 15.0216 82.94 14.9611 82.94C14.9006 82.94 14.8511 82.9125 14.8511 82.885C14.8511 82.852 14.7796 82.83 14.6971 82.83C14.6091 82.83 14.51 82.786 14.466 82.72C14.422 82.6595 14.345 82.61 14.29 82.61C14.235 82.61 14.191 82.5825 14.191 82.555C14.191 82.522 14.1415 82.5 14.081 82.5C14.0205 82.5 13.971 82.4725 13.971 82.445C13.971 82.412 13.9215 82.39 13.861 82.39C13.8005 82.39 13.751 82.3625 13.751 82.335C13.751 82.302 13.707 82.28 13.652 82.28C13.597 82.28 13.52 82.2305 13.476 82.17C13.432 82.1095 13.355 82.06 13.3 82.06C13.245 82.06 13.201 82.0325 13.201 82.005C13.201 81.972 13.1569 81.95 13.1019 81.95C13.0469 81.95 12.9699 81.9005 12.9259 81.84C12.8819 81.7795 12.8104 81.73 12.7719 81.73C12.7334 81.73 12.6014 81.631 12.4859 81.51C12.3704 81.389 12.2439 81.29 12.2109 81.29C12.1724 81.29 12.0734 81.213 11.9909 81.125C11.9084 81.0315 11.8094 80.96 11.7763 80.96C11.6938 80.96 10.2307 79.497 10.2307 79.4145C10.2307 79.3815 10.1537 79.2825 10.0657 79.2C9.97772 79.1175 9.90071 79.0185 9.90071 78.98C9.90071 78.9415 9.82921 78.8425 9.7357 78.76C9.6477 78.6775 9.57069 78.573 9.57069 78.529C9.57069 78.4905 9.52119 78.419 9.46068 78.375C9.40018 78.331 9.35067 78.2595 9.35067 78.21C9.35067 78.1605 9.30117 78.089 9.24067 78.045C9.18016 78.001 9.13066 77.9295 9.13066 77.88C9.13066 77.8305 9.08115 77.759 9.02065 77.715C8.96015 77.671 8.91064 77.594 8.91064 77.539C8.91064 77.484 8.88864 77.44 8.85564 77.44C8.82814 77.44 8.80063 77.3905 8.80063 77.33C8.80063 77.2695 8.77863 77.22 8.74563 77.22C8.71813 77.22 8.69063 77.1705 8.69063 77.11C8.69063 77.0495 8.66862 77 8.63562 77C8.60812 77 8.58062 76.9505 8.58062 76.89C8.58062 76.8295 8.55862 76.78 8.52561 76.78C8.49811 76.78 8.47061 76.7305 8.47061 76.67C8.47061 76.6095 8.44861 76.56 8.41561 76.56C8.38811 76.56 8.3606 76.5105 8.3606 76.45C8.3606 76.3895 8.3386 76.34 8.3056 76.34C8.2781 76.34 8.2506 76.2905 8.2506 76.23C8.2506 76.1695 8.22859 76.12 8.19559 76.12C8.16809 76.12 8.14059 76.043 8.14059 75.955C8.14059 75.8615 8.11859 75.79 8.08558 75.79C8.05808 75.79 8.03058 75.713 8.03058 75.625C8.03058 75.5315 8.00858 75.46 7.97558 75.46C7.94807 75.46 7.92057 75.4105 7.92057 75.35C7.92057 75.2895 7.89857 75.24 7.86557 75.24C7.83807 75.24 7.81056 75.141 7.81056 75.02C7.81056 74.899 7.78856 74.8 7.75556 74.8C7.72806 74.8 7.70056 74.7505 7.70056 74.69C7.70056 74.6295 7.67855 74.58 7.64555 74.58C7.61805 74.58 7.59055 74.481 7.59055 74.36C7.59055 74.239 7.56855 74.14 7.53554 74.14C7.50804 74.14 7.48054 74.0135 7.48054 73.865C7.48054 73.711 7.45854 73.59 7.42554 73.59C7.39803 73.59 7.37053 73.4635 7.37053 73.315C7.37053 73.161 7.34853 73.04 7.31553 73.04C7.28253 73.04 7.26052 72.8585 7.26052 72.6C7.26052 72.3415 7.23852 72.16 7.20552 72.16C7.17252 72.16 7.15052 72.0115 7.15052 71.83C7.15052 71.6485 7.12851 71.5 7.09551 71.5C7.06251 71.5 7.04051 71.2965 7.04051 71.005C7.04051 70.7135 7.01851 70.51 6.9855 70.51C6.9525 70.51 6.9305 70.345 6.9305 70.125C6.9305 69.905 6.9085 69.74 6.8755 69.74C6.84249 69.74 6.82049 69.5585 6.82049 69.3C6.82049 69.0415 6.79849 68.86 6.76549 68.86C6.73249 68.86 6.71048 68.6565 6.71048 68.365C6.71048 68.0735 6.68848 67.87 6.65548 67.87C6.62798 67.87 6.60048 67.7435 6.60048 67.595C6.60048 67.441 6.57847 67.32 6.54547 67.32C6.51247 67.32 6.49047 67.1 6.49047 66.77C6.49047 66.44 6.46847 66.22 6.43546 66.22C6.40246 66.22 6.38046 66.0715 6.38046 65.89C6.38046 65.7085 6.35846 65.56 6.32546 65.56C6.29245 65.56 6.27045 65.3785 6.27045 65.12C6.27045 64.8615 6.24845 64.68 6.21545 64.68C6.18245 64.68 6.16044 64.4765 6.16044 64.185C6.16044 63.8935 6.13844 63.69 6.10544 63.69C6.07244 63.69 6.05044 63.5415 6.05044 63.36C6.05044 63.1785 6.02843 63.03 5.99543 63.03C5.96243 63.03 5.94043 62.8265 5.94043 62.535C5.94043 62.2435 5.91843 62.04 5.88542 62.04C5.85242 62.04 5.83042 61.8915 5.83042 61.71C5.83042 61.5285 5.80842 61.38 5.77542 61.38C5.74241 61.38 5.72041 61.1765 5.72041 60.885C5.72041 60.5935 5.69841 60.39 5.66541 60.39C5.63241 60.39 5.6104 60.2085 5.6104 59.95C5.6104 59.6915 5.5884 59.51 5.5554 59.51C5.5224 59.51 5.5004 59.345 5.5004 59.125C5.5004 58.905 5.47839 58.74 5.44539 58.74C5.41239 58.74 5.39039 58.5365 5.39039 58.245C5.39039 57.9535 5.36839 57.75 5.33538 57.75C5.30788 57.75 5.28038 57.6235 5.28038 57.475C5.28038 57.321 5.25838 57.2 5.22538 57.2C5.19237 57.2 5.17037 56.98 5.17037 56.65C5.17037 56.32 5.14837 56.1 5.11537 56.1C5.08237 56.1 5.06037 55.935 5.06037 55.715C5.06037 55.495 5.03836 55.33 5.00536 55.33C4.97236 55.33 4.95036 55.165 4.95036 54.945C4.95036 54.725 4.92836 54.56 4.89535 54.56C4.86235 54.56 4.84035 54.3565 4.84035 54.065C4.84035 53.7735 4.81835 53.57 4.78535 53.57C4.75234 53.57 4.73034 53.4215 4.73034 53.24C4.73034 53.0585 4.70834 52.91 4.67534 52.91C4.64233 52.91 4.62033 52.69 4.62033 52.36C4.62033 52.03 4.59833 51.81 4.56533 51.81C4.53233 51.81 4.51033 51.6615 4.51033 51.48C4.51033 51.2985 4.48832 51.15 4.45532 51.15C4.42232 51.15 4.40032 50.9685 4.40032 50.71C4.40032 50.4515 4.37832 50.27 4.34531 50.27C4.31231 50.27 4.29031 50.0885 4.29031 49.83C4.29031 49.5715 4.26831 49.39 4.23531 49.39C4.2023 49.39 4.1803 49.225 4.1803 49.005C4.1803 48.785 4.1583 48.62 4.1253 48.62C4.0923 48.62 4.07029 48.4165 4.07029 48.125C4.07029 47.8335 4.04829 47.63 4.01529 47.63C3.98229 47.63 3.96029 47.245 3.96029 46.585C3.96029 45.925 3.98229 45.54 4.01529 45.54C4.04829 45.54 4.07029 45.265 4.07029 44.825C4.07029 44.385 4.0923 44.11 4.1253 44.11C4.1583 44.11 4.1803 43.9835 4.1803 43.835C4.1803 43.681 4.2078 43.56 4.23531 43.56C4.26831 43.56 4.29031 43.4115 4.29031 43.23C4.29031 43.0485 4.31231 42.9 4.34531 42.9C4.37832 42.9 4.40032 42.7735 4.40032 42.625C4.40032 42.471 4.42782 42.35 4.45532 42.35C4.48832 42.35 4.51033 42.251 4.51033 42.13C4.51033 42.009 4.53783 41.91 4.56533 41.91C4.59833 41.91 4.62033 41.7835 4.62033 41.635C4.62033 41.481 4.64784 41.36 4.67534 41.36C4.70834 41.36 4.73034 41.3105 4.73034 41.25C4.73034 41.1895 4.75784 41.14 4.78535 41.14C4.81835 41.14 4.84035 41.041 4.84035 40.92C4.84035 40.799 4.86785 40.7 4.89535 40.7C4.92836 40.7 4.95036 40.623 4.95036 40.535C4.95036 40.4415 4.97786 40.37 5.00536 40.37C5.03836 40.37 5.06037 40.293 5.06037 40.205C5.06037 40.1115 5.08787 40.04 5.11537 40.04C5.14837 40.04 5.17037 39.963 5.17037 39.875C5.17037 39.7815 5.19788 39.71 5.22538 39.71C5.25838 39.71 5.28038 39.6605 5.28038 39.6C5.28038 39.5395 5.30788 39.49 5.33538 39.49C5.36839 39.49 5.39039 39.391 5.39039 39.27C5.39039 39.149 5.41789 39.05 5.44539 39.05C5.47839 39.05 5.5004 39.0005 5.5004 38.94C5.5004 38.8795 5.5279 38.83 5.5554 38.83C5.5884 38.83 5.6104 38.7805 5.6104 38.72C5.6104 38.6595 5.63791 38.61 5.66541 38.61C5.69841 38.61 5.72041 38.533 5.72041 38.445C5.72041 38.3515 5.74791 38.28 5.77542 38.28C5.80842 38.28 5.83042 38.2305 5.83042 38.17C5.83042 38.1095 5.85792 38.06 5.88542 38.06C5.91843 38.06 5.94043 38.0105 5.94043 37.95C5.94043 37.8895 5.96793 37.84 5.99543 37.84C6.02843 37.84 6.05044 37.7905 6.05044 37.73C6.05044 37.6695 6.07794 37.62 6.10544 37.62C6.13844 37.62 6.16044 37.5705 6.16044 37.51C6.16044 37.4495 6.18795 37.4 6.21545 37.4C6.24845 37.4 6.27045 37.3505 6.27045 37.29C6.27045 37.2295 6.29795 37.18 6.32546 37.18C6.35846 37.18 6.38046 37.1305 6.38046 37.07C6.38046 37.0095 6.40796 36.96 6.43546 36.96C6.46847 36.96 6.49047 36.9105 6.49047 36.85C6.49047 36.7895 6.51797 36.74 6.54547 36.74C6.57847 36.74 6.60048 36.6905 6.60048 36.63C6.60048 36.5695 6.62798 36.52 6.65548 36.52C6.68848 36.52 6.71048 36.4705 6.71048 36.41C6.71048 36.3495 6.73799 36.3 6.76549 36.3C6.79849 36.3 6.82049 36.256 6.82049 36.201C6.82049 36.146 6.87 36.069 6.9305 36.025C6.991 35.981 7.04051 35.9095 7.04051 35.86C7.04051 35.8105 7.09001 35.739 7.15052 35.695C7.21102 35.651 7.26052 35.574 7.26052 35.519C7.26052 35.464 7.28803 35.42 7.31553 35.42C7.34853 35.42 7.37053 35.376 7.37053 35.321C7.37053 35.266 7.42004 35.189 7.48054 35.145C7.54104 35.101 7.59055 35.0295 7.59055 34.98C7.59055 34.9305 7.64005 34.859 7.70056 34.815C7.76106 34.771 7.81056 34.6995 7.81056 34.65C7.81056 34.6005 7.86007 34.529 7.92057 34.485C7.98108 34.441 8.03058 34.3695 8.03058 34.331C8.03058 34.287 8.10758 34.1825 8.19559 34.1C8.2891 34.0175 8.3606 33.9185 8.3606 33.88C8.3606 33.847 8.45961 33.7205 8.58062 33.605C8.70163 33.4895 8.80063 33.363 8.80063 33.33C8.80063 33.297 8.92714 33.1485 9.07565 33C9.22967 32.8515 9.35067 32.703 9.35067 32.67C9.35067 32.637 9.54869 32.417 9.79071 32.175C10.0327 31.933 10.2307 31.713 10.2307 31.68C10.2307 31.647 10.4068 31.449 10.6158 31.24C10.8303 31.031 11.0008 30.833 11.0008 30.8C11.0008 30.767 11.1988 30.547 11.4408 30.305C11.6828 30.063 11.8809 29.843 11.8809 29.81C11.8809 29.777 12.0569 29.579 12.2659 29.37C12.4804 29.161 12.6509 28.952 12.6509 28.9025C12.6509 28.8585 12.7004 28.82 12.7609 28.82C12.8214 28.82 12.8709 28.7815 12.8709 28.7375C12.8709 28.688 13.0469 28.479 13.256 28.27C13.4705 28.061 13.641 27.863 13.641 27.83C13.641 27.797 13.839 27.577 14.081 27.335C14.323 27.093 14.521 26.873 14.521 26.84C14.521 26.807 14.6971 26.609 14.9061 26.4C15.1206 26.191 15.2911 25.993 15.2911 25.96C15.2911 25.927 15.5166 25.6795 15.7861 25.41C16.0612 25.1405 16.2812 24.893 16.2812 24.86C16.2812 24.827 16.4792 24.607 16.7212 24.365C16.9632 24.123 17.1612 23.903 17.1612 23.87C17.1612 23.837 17.3372 23.639 17.5463 23.43C17.7608 23.221 17.9313 23.023 17.9313 22.99C17.9313 22.957 18.1568 22.7095 18.4263 22.44C18.6958 22.1705 18.9214 21.923 18.9214 21.89C18.9214 21.857 19.1194 21.637 19.3614 21.395C19.6034 21.153 19.8014 20.933 19.8014 20.9C19.8014 20.867 19.9994 20.647 20.2415 20.405C20.4835 20.163 20.6815 19.943 20.6815 19.91C20.6815 19.877 20.8795 19.657 21.1215 19.415C21.3635 19.173 21.5616 18.953 21.5616 18.92C21.5616 18.887 21.7596 18.667 22.0016 18.425C22.2436 18.183 22.4416 17.963 22.4416 17.93C22.4416 17.897 22.6176 17.699 22.8266 17.49C23.0412 17.281 23.2117 17.083 23.2117 17.05C23.2117 17.017 23.4097 16.797 23.6517 16.555C23.8937 16.313 24.0917 16.093 24.0917 16.06C24.0917 16.027 24.3173 15.7795 24.5868 15.51C24.8618 15.2405 25.0818 14.993 25.0818 14.96C25.0818 14.927 25.2578 14.729 25.4668 14.52C25.6814 14.311 25.8519 14.113 25.8519 14.08C25.8519 14.047 26.0499 13.827 26.2919 13.585C26.5339 13.343 26.7319 13.123 26.7319 13.09C26.7319 13.057 26.9574 12.8095 27.227 12.54C27.502 12.2705 27.722 12.023 27.722 11.99C27.722 11.957 27.9695 11.6875 28.272 11.385C28.5746 11.0825 28.8221 10.813 28.8221 10.78C28.8221 10.703 29.5151 10.01 29.5921 10.01C29.6251 10.01 29.8452 9.812 30.0872 9.57C30.3292 9.328 30.5492 9.13 30.5822 9.13C30.6207 9.13 30.7417 9.031 30.8572 8.91C30.9727 8.789 31.0992 8.69 31.1322 8.69C31.1652 8.69 31.2918 8.591 31.4073 8.47C31.5228 8.349 31.6548 8.25 31.6933 8.25C31.7318 8.25 31.8033 8.2005 31.8473 8.14C31.8913 8.0795 31.9628 8.03 32.0123 8.03C32.0618 8.03 32.1333 7.9805 32.1773 7.92C32.2213 7.8595 32.2928 7.81 32.3423 7.81C32.3918 7.81 32.4633 7.7605 32.5073 7.7C32.5513 7.6395 32.6229 7.59 32.6724 7.59C32.7219 7.59 32.7934 7.5405 32.8374 7.48C32.8814 7.4195 32.9529 7.37 33.0024 7.37C33.0519 7.37 33.1234 7.3205 33.1674 7.26C33.2114 7.1995 33.2884 7.15 33.3434 7.15C33.3984 7.15 33.4424 7.1225 33.4424 7.095C33.4424 7.062 33.4864 7.04 33.5414 7.04C33.5964 7.04 33.6734 6.9905 33.7174 6.93C33.7614 6.8695 33.8384 6.82 33.8934 6.82C33.9484 6.82 33.9925 6.7925 33.9925 6.765C33.9925 6.732 34.042 6.71 34.1025 6.71C34.163 6.71 34.2125 6.6825 34.2125 6.655C34.2125 6.622 34.262 6.6 34.3225 6.6C34.383 6.6 34.4325 6.5725 34.4325 6.545C34.4325 6.512 34.4765 6.49 34.5315 6.49C34.5865 6.49 34.6635 6.4405 34.7075 6.38C34.7515 6.314 34.8505 6.27 34.9385 6.27C35.021 6.27 35.0925 6.2425 35.0925 6.215C35.0925 6.182 35.142 6.16 35.2025 6.16C35.263 6.16 35.3125 6.1325 35.3125 6.105C35.3125 6.072 35.362 6.05 35.4226 6.05C35.4831 6.05 35.5326 6.0225 35.5326 5.995C35.5326 5.962 35.5821 5.94 35.6426 5.94C35.7031 5.94 35.7526 5.9125 35.7526 5.885C35.7526 5.852 35.8021 5.83 35.8626 5.83C35.9231 5.83 35.9726 5.8025 35.9726 5.775C35.9726 5.742 36.0496 5.72 36.1376 5.72C36.2311 5.72 36.3026 5.6925 36.3026 5.665C36.3026 5.632 36.3521 5.61 36.4126 5.61C36.4731 5.61 36.5226 5.5825 36.5226 5.555C36.5226 5.522 36.5996 5.5 36.6876 5.5C36.7812 5.5 36.8527 5.4725 36.8527 5.445C36.8527 5.412 36.9297 5.39 37.0177 5.39C37.1112 5.39 37.1827 5.3625 37.1827 5.335C37.1827 5.302 37.2322 5.28 37.2927 5.28C37.3532 5.28 37.4027 5.2525 37.4027 5.225C37.4027 5.192 37.4797 5.17 37.5677 5.17C37.6612 5.17 37.7327 5.1425 37.7327 5.115C37.7327 5.082 37.8097 5.06 37.8977 5.06C37.9912 5.06 38.0627 5.0325 38.0627 5.005C38.0627 4.972 38.1618 4.95 38.2828 4.95C38.4038 4.95 38.5028 4.9225 38.5028 4.895C38.5028 4.862 38.5798 4.84 38.6678 4.84C38.7613 4.84 38.8328 4.8125 38.8328 4.785C38.8328 4.752 38.9098 4.73 38.9978 4.73C39.0913 4.73 39.1628 4.7025 39.1628 4.675C39.1628 4.642 39.2893 4.62 39.4378 4.62C39.5919 4.62 39.7129 4.5925 39.7129 4.565C39.7129 4.532 39.7899 4.51 39.8779 4.51C39.9714 4.51 40.0429 4.4825 40.0429 4.455C40.0429 4.422 40.2079 4.4 40.4279 4.4C40.6479 4.4 40.8129 4.378 40.8129 4.345C40.8129 4.312 40.9119 4.29 41.033 4.29C41.154 4.29 41.253 4.2625 41.253 4.235C41.253 4.202 41.4345 4.18 41.693 4.18C41.9515 4.18 42.133 4.158 42.133 4.125C42.133 4.092 42.4081 4.07 42.8481 4.07C43.2881 4.07 43.5631 4.048 43.5631 4.015C43.5631 3.9765 50.3671 3.96 63.8596 3.96C77.3521 3.96 84.1561 3.9765 84.1561 4.015Z" fill="url(#paint0_linear_130_368)"/>
<path d="M44.6628 7.97594C44.6628 8.00895 44.3163 8.03094 43.7277 8.03094C43.1392 8.03094 42.7927 8.05294 42.7927 8.08595C42.7927 8.11895 42.5892 8.14095 42.2976 8.14095C42.0061 8.14095 41.8026 8.16294 41.8026 8.19595C41.8026 8.22345 41.7036 8.25095 41.5826 8.25095C41.4616 8.25095 41.3626 8.27294 41.3626 8.30594C41.3626 8.33894 41.2141 8.36094 41.0326 8.36094C40.851 8.36094 40.7025 8.38294 40.7025 8.41594C40.7025 8.44344 40.631 8.47094 40.5375 8.47094C40.4495 8.47094 40.3725 8.49294 40.3725 8.52594C40.3725 8.55344 40.2735 8.58094 40.1525 8.58094C40.0315 8.58094 39.9325 8.60294 39.9325 8.63594C39.9325 8.66344 39.8335 8.69094 39.7125 8.69094C39.5914 8.69094 39.4924 8.71294 39.4924 8.74594C39.4924 8.77345 39.4209 8.80095 39.3274 8.80095C39.2394 8.80095 39.1624 8.82294 39.1624 8.85595C39.1624 8.88345 39.0909 8.91095 38.9974 8.91095C38.9094 8.91095 38.8324 8.93295 38.8324 8.96595C38.8324 8.99345 38.7829 9.02094 38.7224 9.02094C38.6619 9.02094 38.6124 9.04294 38.6124 9.07594C38.6124 9.10344 38.5134 9.13094 38.3924 9.13094C38.2714 9.13094 38.1723 9.15294 38.1723 9.18594C38.1723 9.21344 38.1228 9.24094 38.0623 9.24094C38.0018 9.24094 37.9523 9.26294 37.9523 9.29594C37.9523 9.32344 37.9028 9.35094 37.8423 9.35094C37.7818 9.35094 37.7323 9.37294 37.7323 9.40594C37.7323 9.43344 37.6608 9.46095 37.5673 9.46095C37.4793 9.46095 37.4023 9.48294 37.4023 9.51595C37.4023 9.54345 37.3528 9.57095 37.2923 9.57095C37.2318 9.57095 37.1823 9.59295 37.1823 9.62595C37.1823 9.65345 37.1328 9.68094 37.0723 9.68094C37.0118 9.68094 36.9623 9.70294 36.9623 9.73594C36.9623 9.76344 36.9128 9.79094 36.8523 9.79094C36.7917 9.79094 36.7422 9.81294 36.7422 9.84594C36.7422 9.87344 36.6927 9.90094 36.6322 9.90094C36.5717 9.90094 36.5222 9.92294 36.5222 9.95594C36.5222 9.98344 36.4782 10.0109 36.4232 10.0109C36.3682 10.0109 36.2912 10.0604 36.2472 10.1209C36.2032 10.1814 36.1042 10.2309 36.0272 10.2309C35.9502 10.2309 35.8512 10.2804 35.8072 10.3409C35.7632 10.4014 35.6862 10.4509 35.6312 10.4509C35.5762 10.4509 35.5322 10.4729 35.5322 10.5059C35.5322 10.5334 35.4882 10.5609 35.4331 10.5609C35.3781 10.5609 35.3011 10.6104 35.2571 10.6709C35.2131 10.7314 35.1416 10.7809 35.0921 10.7809C35.0426 10.7809 34.9711 10.8304 34.9271 10.8909C34.8831 10.9514 34.8116 11.0009 34.7621 11.0009C34.7126 11.0009 34.6411 11.0504 34.5971 11.1109C34.5531 11.1714 34.4816 11.2209 34.4321 11.2209C34.3826 11.2209 34.3111 11.2704 34.2671 11.3309C34.2231 11.3914 34.1516 11.4409 34.1131 11.4409C34.069 11.4409 33.9645 11.5124 33.882 11.6059C33.7995 11.6939 33.7005 11.7709 33.662 11.7709C33.629 11.7709 33.4805 11.8919 33.332 12.0459C33.1835 12.1944 33.035 12.3209 33.0075 12.3209C32.9305 12.3209 31.0218 14.2294 31.0218 14.3009C31.0218 14.3339 30.8238 14.5539 30.5818 14.7959C30.3398 15.0379 30.1418 15.2579 30.1418 15.2909C30.1418 15.3239 29.9218 15.5714 29.6467 15.8409C29.3772 16.1104 29.1517 16.3579 29.1517 16.3909C29.1517 16.4239 28.9812 16.6219 28.7667 16.8309C28.5577 17.0399 28.3816 17.2379 28.3816 17.2709C28.3816 17.3039 28.1616 17.5514 27.8866 17.8209C27.6171 18.0904 27.3916 18.3379 27.3916 18.3709C27.3916 18.4039 27.2431 18.5799 27.0615 18.7559C26.88 18.9319 26.7315 19.1189 26.7315 19.1629C26.7315 19.2124 26.682 19.2509 26.6215 19.2509C26.561 19.2509 26.5115 19.2894 26.5115 19.3334C26.5115 19.3829 26.3135 19.6139 26.0715 19.8559C25.8295 20.0979 25.6314 20.3179 25.6314 20.3509C25.6314 20.3839 25.4609 20.5819 25.2464 20.7909C25.0374 20.9999 24.8614 21.1979 24.8614 21.2309C24.8614 21.2639 24.6634 21.4839 24.4214 21.7259C24.1793 21.9679 23.9813 22.1879 23.9813 22.2209C23.9813 22.2539 23.7613 22.5014 23.4863 22.7709C23.2168 23.0404 22.9913 23.2879 22.9913 23.3209C22.9913 23.3539 22.8207 23.5519 22.6062 23.7609C22.3972 23.9699 22.2212 24.1679 22.2212 24.2009C22.2212 24.2339 22.0232 24.4539 21.7812 24.6959C21.5391 24.9379 21.3411 25.1579 21.3411 25.1909C21.3411 25.2239 21.1706 25.4219 20.9561 25.6309C20.7471 25.8399 20.5711 26.0489 20.5711 26.0984C20.5711 26.1424 20.5216 26.1809 20.4611 26.1809C20.4006 26.1809 20.3511 26.2194 20.3511 26.2634C20.3511 26.3129 20.1805 26.5219 19.966 26.7309C19.757 26.9399 19.581 27.1379 19.581 27.1709C19.581 27.2039 19.383 27.4239 19.141 27.6659C18.899 27.9079 18.7009 28.1279 18.7009 28.1609C18.7009 28.1939 18.5304 28.3919 18.3159 28.6009C18.1069 28.8099 17.9309 29.0079 17.9309 29.0409C17.9309 29.0739 17.6834 29.3434 17.3808 29.6459C17.0783 29.9484 16.8308 30.2179 16.8308 30.2509C16.8308 30.2839 16.6603 30.4819 16.4458 30.6909C16.2368 30.8999 16.0608 31.0979 16.0608 31.1309C16.0608 31.1639 15.8627 31.3839 15.6207 31.6259C15.3787 31.8679 15.1807 32.0879 15.1807 32.1209C15.1807 32.1539 14.9607 32.4014 14.6857 32.6709C14.4161 32.9404 14.1906 33.1879 14.1906 33.2209C14.1906 33.2539 14.0201 33.4519 13.8056 33.6609C13.5966 33.8699 13.4206 34.0679 13.4206 34.1009C13.4206 34.1339 13.2225 34.3539 12.9805 34.5959C12.7385 34.8379 12.5405 35.0579 12.5405 35.0909C12.5405 35.1239 12.392 35.2999 12.2105 35.4759C12.029 35.6519 11.8805 35.8279 11.8805 35.8609C11.8805 35.8939 11.7814 36.0204 11.6604 36.1359C11.5394 36.2514 11.4404 36.3779 11.4404 36.4109C11.4404 36.4439 11.3414 36.5704 11.2204 36.6859C11.0994 36.8014 11.0004 36.9279 11.0004 36.9609C11.0004 36.9994 10.9289 37.0984 10.8354 37.1809C10.7474 37.2634 10.6704 37.3679 10.6704 37.4119C10.6704 37.4504 10.6209 37.5219 10.5604 37.5659C10.4999 37.6099 10.4503 37.6814 10.4503 37.7309C10.4503 37.7804 10.4008 37.8519 10.3403 37.8959C10.2798 37.9399 10.2303 38.0114 10.2303 38.0609C10.2303 38.1104 10.1808 38.1819 10.1203 38.2259C10.0598 38.2699 10.0103 38.3469 10.0103 38.4019C10.0103 38.4569 9.98832 38.5009 9.95531 38.5009C9.92781 38.5009 9.90031 38.5449 9.90031 38.5999C9.90031 38.6549 9.85081 38.7319 9.7903 38.7759C9.7298 38.8199 9.68029 38.9189 9.68029 38.9959C9.68029 39.0729 9.63079 39.1719 9.57028 39.2159C9.50978 39.2599 9.46028 39.3369 9.46028 39.3919C9.46028 39.4469 9.43828 39.4909 9.40527 39.4909C9.37777 39.4909 9.35027 39.5624 9.35027 39.6449C9.35027 39.7329 9.30627 39.8319 9.24026 39.8759C9.17426 39.9199 9.13025 40.0189 9.13025 40.1069C9.13025 40.1894 9.10825 40.2609 9.07525 40.2609C9.04775 40.2609 9.02025 40.3104 9.02025 40.3709C9.02025 40.4314 8.99824 40.4809 8.96524 40.4809C8.93774 40.4809 8.91024 40.5524 8.91024 40.6459C8.91024 40.7339 8.88824 40.8109 8.85523 40.8109C8.82773 40.8109 8.80023 40.8824 8.80023 40.9759C8.80023 41.0639 8.77823 41.1409 8.74523 41.1409C8.71772 41.1409 8.69022 41.1904 8.69022 41.2509C8.69022 41.3114 8.66822 41.3609 8.63522 41.3609C8.60772 41.3609 8.58021 41.4599 8.58021 41.5809C8.58021 41.7019 8.55821 41.8009 8.52521 41.8009C8.49771 41.8009 8.47021 41.8724 8.47021 41.9659C8.47021 42.0539 8.4482 42.1309 8.4152 42.1309C8.3877 42.1309 8.3602 42.2519 8.3602 42.4059C8.3602 42.5544 8.3382 42.6809 8.30519 42.6809C8.27769 42.6809 8.25019 42.7799 8.25019 42.9009C8.25019 43.0219 8.22819 43.1209 8.19519 43.1209C8.16218 43.1209 8.14018 43.2694 8.14018 43.4509C8.14018 43.6324 8.11818 43.7809 8.08518 43.7809C8.05218 43.7809 8.03017 44.0394 8.03017 44.4409C8.03017 44.8424 8.00817 45.1009 7.97517 45.1009C7.94217 45.1009 7.92017 45.3209 7.92017 45.6509C7.92017 45.9809 7.94217 46.2009 7.97517 46.2009C8.00817 46.2009 8.03017 46.3219 8.03017 46.4759C8.03017 46.6244 8.05768 46.7509 8.08518 46.7509C8.11818 46.7509 8.14018 46.8004 8.14018 46.8609C8.14018 46.9214 8.16768 46.9709 8.19519 46.9709C8.22819 46.9709 8.25019 47.0094 8.25019 47.0534C8.25019 47.1634 8.71772 47.6309 8.82773 47.6309C8.87173 47.6309 8.91024 47.6529 8.91024 47.6859C8.91024 47.7134 8.95974 47.7409 9.02025 47.7409C9.08075 47.7409 9.13025 47.7629 9.13025 47.7959C9.13025 47.8234 9.17976 47.8509 9.24026 47.8509C9.30077 47.8509 9.35027 47.8729 9.35027 47.9059C9.35027 47.9444 22.2597 47.9609 47.9631 47.9609C73.6664 47.9609 86.5758 47.9444 86.5758 47.9059C86.5758 47.8729 86.6253 47.8509 86.6858 47.8509C86.7463 47.8509 86.7958 47.8234 86.7958 47.7959C86.7958 47.7629 86.8399 47.7409 86.8949 47.7409C86.9499 47.7409 87.0269 47.6914 87.0709 47.6309C87.1149 47.5704 87.1809 47.5209 87.2249 47.5209C87.3184 47.5209 87.4559 47.3834 87.4559 47.2899C87.4559 47.2459 87.5054 47.1799 87.5659 47.1359C87.6264 47.0919 87.6759 47.0149 87.6759 46.9599C87.6759 46.9049 87.7034 46.8609 87.7309 46.8609C87.7639 46.8609 87.7859 46.8114 87.7859 46.7509C87.7859 46.6904 87.8134 46.6409 87.8409 46.6409C87.8794 46.6409 87.8959 40.7394 87.8959 29.0409C87.8959 17.3424 87.8794 11.4409 87.8409 11.4409C87.8134 11.4409 87.7859 11.3914 87.7859 11.3309C87.7859 11.2704 87.7639 11.2209 87.7309 11.2209C87.7034 11.2209 87.6759 11.1219 87.6759 11.0009C87.6759 10.8799 87.6539 10.7809 87.6209 10.7809C87.5934 10.7809 87.5659 10.7314 87.5659 10.6709C87.5659 10.6104 87.5439 10.5609 87.5109 10.5609C87.4834 10.5609 87.4559 10.5114 87.4559 10.4509C87.4559 10.3904 87.4339 10.3409 87.4009 10.3409C87.3734 10.3409 87.3459 10.2969 87.3459 10.2419C87.3459 10.1869 87.2964 10.1099 87.2359 10.0659C87.1754 10.0219 87.1259 9.95045 87.1259 9.91195C87.1259 9.86795 87.0544 9.76344 86.9609 9.68094C86.8729 9.59844 86.7958 9.49945 86.7958 9.46645C86.7958 9.38395 86.5428 9.13094 86.4603 9.13094C86.4273 9.13094 86.3283 9.05395 86.2458 8.96595C86.1633 8.87245 86.0588 8.80095 86.0148 8.80095C85.9763 8.80095 85.9048 8.75145 85.8608 8.69094C85.8168 8.63044 85.7398 8.58094 85.6848 8.58094C85.6298 8.58094 85.5858 8.55344 85.5858 8.52594C85.5858 8.49294 85.5363 8.47094 85.4758 8.47094C85.4153 8.47094 85.3657 8.44344 85.3657 8.41594C85.3657 8.38294 85.3162 8.36094 85.2557 8.36094C85.1952 8.36094 85.1457 8.33344 85.1457 8.30594C85.1457 8.27294 85.0962 8.25095 85.0357 8.25095C84.9752 8.25095 84.9257 8.22345 84.9257 8.19595C84.9257 8.16294 84.8047 8.14095 84.6507 8.14095C84.5022 8.14095 84.3757 8.11345 84.3757 8.08595C84.3757 8.05294 84.1557 8.03094 83.8256 8.03094C83.4956 8.03094 83.2756 8.00895 83.2756 7.97594C83.2756 7.93744 76.8016 7.92094 63.9692 7.92094C51.1368 7.92094 44.6628 7.93744 44.6628 7.97594ZM83.6056 12.0459C83.6056 12.0734 83.6551 12.1009 83.7156 12.1009C83.7871 12.1009 83.8256 12.1394 83.8256 12.2109C83.8256 12.2714 83.8531 12.3209 83.8806 12.3209C83.9191 12.3209 83.9356 17.6394 83.9356 28.1609V44.0009H48.0951C17.1113 44.0009 12.249 43.9899 12.1775 43.9239C12.0895 43.8304 12.073 43.6709 12.1555 43.6709C12.1885 43.6709 12.2105 43.5939 12.2105 43.5059C12.2105 43.4124 12.238 43.3409 12.2655 43.3409C12.2985 43.3409 12.3205 43.2144 12.3205 43.0659C12.3205 42.9119 12.348 42.7909 12.3755 42.7909C12.4085 42.7909 12.4305 42.7414 12.4305 42.6809C12.4305 42.6204 12.458 42.5709 12.4855 42.5709C12.5185 42.5709 12.5405 42.4939 12.5405 42.4059C12.5405 42.3124 12.568 42.2409 12.5955 42.2409C12.6285 42.2409 12.6505 42.1639 12.6505 42.0759C12.6505 41.9824 12.678 41.9109 12.7055 41.9109C12.7385 41.9109 12.7605 41.8614 12.7605 41.8009C12.7605 41.7404 12.788 41.6909 12.8155 41.6909C12.8485 41.6909 12.8705 41.6414 12.8705 41.5809C12.8705 41.5204 12.898 41.4709 12.9255 41.4709C12.9585 41.4709 12.9805 41.4214 12.9805 41.3609C12.9805 41.3004 13.008 41.2509 13.0355 41.2509C13.0685 41.2509 13.0905 41.2014 13.0905 41.1409C13.0905 41.0804 13.118 41.0309 13.1455 41.0309C13.1785 41.0309 13.2005 40.9869 13.2005 40.9319C13.2005 40.8769 13.2501 40.7999 13.3106 40.7559C13.3711 40.7119 13.4206 40.6349 13.4206 40.5799C13.4206 40.5249 13.4481 40.4809 13.4756 40.4809C13.5086 40.4809 13.5306 40.4314 13.5306 40.3709C13.5306 40.3104 13.5581 40.2609 13.5856 40.2609C13.6186 40.2609 13.6406 40.2224 13.6406 40.1729C13.6406 40.1234 13.7176 40.0134 13.8056 39.9309C13.8991 39.8484 13.9706 39.7439 13.9706 39.6999C13.9706 39.6614 14.0201 39.5899 14.0806 39.5459C14.1411 39.5019 14.1906 39.4304 14.1906 39.3919C14.1906 39.3534 14.2896 39.2214 14.4106 39.1059C14.5316 38.9904 14.6306 38.8639 14.6306 38.8309C14.6306 38.7979 14.7572 38.6494 14.9057 38.5009C15.0597 38.3524 15.1807 38.2039 15.1807 38.1709C15.1807 38.1379 15.3292 37.9619 15.5107 37.7859C15.6922 37.6099 15.8407 37.4339 15.8407 37.4009C15.8407 37.3679 16.0663 37.1204 16.3358 36.8509C16.6108 36.5814 16.8308 36.3339 16.8308 36.3009C16.8308 36.2679 17.0068 36.0699 17.2158 35.8609C17.4304 35.6519 17.6009 35.4539 17.6009 35.4209C17.6009 35.3879 17.7989 35.1679 18.0409 34.9259C18.2829 34.6839 18.4809 34.4639 18.4809 34.4309C18.4809 34.3979 18.7064 34.1504 18.976 33.8809C19.251 33.6114 19.471 33.3639 19.471 33.3309C19.471 33.2979 19.6415 33.0999 19.856 32.8909C20.0705 32.6819 20.2411 32.4839 20.2411 32.4509C20.2411 32.4179 20.4391 32.1979 20.6811 31.9559C20.9231 31.7139 21.1211 31.4939 21.1211 31.4609C21.1211 31.4279 21.2971 31.2299 21.5061 31.0209C21.7207 30.8119 21.8912 30.6139 21.8912 30.5809C21.8912 30.5479 22.1167 30.3004 22.3862 30.0309C22.6612 29.7614 22.8812 29.5139 22.8812 29.4809C22.8812 29.4479 23.0793 29.2279 23.3213 28.9859C23.5633 28.7439 23.7613 28.5239 23.7613 28.4909C23.7613 28.4579 23.9373 28.2599 24.1463 28.0509C24.3609 27.8419 24.5314 27.6439 24.5314 27.6109C24.5314 27.5779 24.7789 27.3084 25.0814 27.0059C25.3839 26.7034 25.6314 26.4339 25.6314 26.4009C25.6314 26.3679 25.8075 26.1699 26.0165 25.9609C26.231 25.7519 26.4015 25.5539 26.4015 25.5209C26.4015 25.4879 26.5995 25.2679 26.8415 25.0259C27.0835 24.7839 27.2816 24.5639 27.2816 24.5309C27.2816 24.4979 27.4576 24.2999 27.6666 24.0909C27.8811 23.8819 28.0516 23.6729 28.0516 23.6234C28.0516 23.5794 28.1011 23.5409 28.1616 23.5409C28.2221 23.5409 28.2716 23.5024 28.2716 23.4584C28.2716 23.4089 28.4476 23.1999 28.6567 22.9909C28.8712 22.7819 29.0417 22.5839 29.0417 22.5509C29.0417 22.5179 29.2397 22.2979 29.4817 22.0559C29.7237 21.8139 29.9218 21.5939 29.9218 21.5609C29.9218 21.5279 30.0978 21.3299 30.3068 21.1209C30.5213 20.9119 30.6918 20.7139 30.6918 20.6809C30.6918 20.6479 30.9393 20.3784 31.2418 20.0759C31.5444 19.7734 31.7919 19.5039 31.7919 19.4709C31.7919 19.4379 31.9679 19.2399 32.1769 19.0309C32.3914 18.8219 32.5619 18.6239 32.5619 18.5909C32.5619 18.5579 32.738 18.3599 32.947 18.1509C33.1615 17.9419 33.332 17.7439 33.332 17.7109C33.332 17.6779 33.53 17.4579 33.772 17.2159C34.014 16.9739 34.2121 16.7429 34.2121 16.6934C34.2121 16.6494 34.2616 16.6109 34.3221 16.6109C34.3826 16.6109 34.4321 16.5724 34.4321 16.5284C34.4321 16.4184 35.0096 15.8409 35.1196 15.8409C35.1636 15.8409 35.2021 15.7914 35.2021 15.7309C35.2021 15.6704 35.2406 15.6209 35.2901 15.6209C35.3341 15.6209 35.5212 15.4724 35.6972 15.2909C35.8732 15.1094 36.0492 14.9609 36.0822 14.9609C36.1207 14.9609 36.2197 14.8839 36.3022 14.7959C36.3847 14.7024 36.4892 14.6309 36.5332 14.6309C36.5717 14.6309 36.6432 14.5814 36.6872 14.5209C36.7312 14.4604 36.8027 14.4109 36.8523 14.4109C36.9018 14.4109 36.9733 14.3614 37.0173 14.3009C37.0613 14.2404 37.1328 14.1909 37.1823 14.1909C37.2318 14.1909 37.3033 14.1414 37.3473 14.0809C37.3913 14.0204 37.4683 13.9709 37.5233 13.9709C37.5783 13.9709 37.6223 13.9434 37.6223 13.9159C37.6223 13.8829 37.6718 13.8609 37.7323 13.8609C37.7928 13.8609 37.8423 13.8334 37.8423 13.8059C37.8423 13.7729 37.8863 13.7509 37.9413 13.7509C37.9963 13.7509 38.0733 13.7014 38.1173 13.6409C38.1613 13.5804 38.2383 13.5309 38.2934 13.5309C38.3484 13.5309 38.3924 13.5034 38.3924 13.4759C38.3924 13.4429 38.4639 13.4209 38.5464 13.4209C38.6344 13.4209 38.7334 13.3769 38.7774 13.3109C38.8214 13.2449 38.9204 13.2009 39.0084 13.2009C39.0909 13.2009 39.1624 13.1734 39.1624 13.1459C39.1624 13.1129 39.2119 13.0909 39.2724 13.0909C39.3329 13.0909 39.3824 13.0634 39.3824 13.0359C39.3824 13.0029 39.4319 12.9809 39.4924 12.9809C39.5529 12.9809 39.6024 12.9534 39.6024 12.9259C39.6024 12.8929 39.7015 12.8709 39.8225 12.8709C39.9435 12.8709 40.0425 12.8434 40.0425 12.8159C40.0425 12.7829 40.092 12.7609 40.1525 12.7609C40.213 12.7609 40.2625 12.7334 40.2625 12.7059C40.2625 12.6729 40.3615 12.6509 40.4825 12.6509C40.6035 12.6509 40.7025 12.6234 40.7025 12.5959C40.7025 12.5629 40.7795 12.5409 40.8675 12.5409C40.961 12.5409 41.0326 12.5134 41.0326 12.4859C41.0326 12.4529 41.1096 12.4309 41.1976 12.4309C41.2911 12.4309 41.3626 12.4034 41.3626 12.3759C41.3626 12.3429 41.5111 12.3209 41.6926 12.3209C41.8741 12.3209 42.0226 12.2989 42.0226 12.2659C42.0226 12.2329 42.1216 12.2109 42.2426 12.2109C42.3636 12.2109 42.4627 12.1834 42.4627 12.1559C42.4627 12.1229 42.6827 12.1009 43.0127 12.1009C43.3427 12.1009 43.5627 12.0789 43.5627 12.0459C43.5627 12.0074 50.2732 11.9909 63.5842 11.9909C76.8951 11.9909 83.6056 12.0074 83.6056 12.0459Z" fill="url(#paint1_linear_130_368)"/>
<path d="M41.9131 16.0045C41.9131 16.0375 41.7646 16.0595 41.5831 16.0595C41.4015 16.0595 41.253 16.0815 41.253 16.1145C41.253 16.142 41.2035 16.1695 41.143 16.1695C41.0825 16.1695 41.033 16.1915 41.033 16.2245C41.033 16.252 40.9945 16.2795 40.945 16.2795C40.8955 16.2795 40.7855 16.351 40.703 16.4445C40.6205 16.5325 40.5105 16.6095 40.461 16.6095C40.4115 16.6095 40.373 16.648 40.373 16.6975C40.373 16.8075 40.241 16.9395 40.131 16.9395C40.0815 16.9395 40.0429 16.9835 40.0429 17.0495C40.0429 17.121 40.0044 17.1595 39.9329 17.1595C39.8669 17.1595 39.8229 17.198 39.8229 17.2475C39.8229 17.3575 39.6909 17.4895 39.5809 17.4895C39.5314 17.4895 39.4929 17.5335 39.4929 17.5995C39.4929 17.671 39.4544 17.7095 39.3829 17.7095C39.3224 17.7095 39.2729 17.748 39.2729 17.792C39.2729 17.902 38.9154 18.2595 38.8054 18.2595C38.7614 18.2595 38.7229 18.298 38.7229 18.342C38.7229 18.3915 38.6348 18.5125 38.5303 18.617C38.4258 18.7215 38.3048 18.8095 38.2553 18.8095C38.2113 18.8095 38.1728 18.859 38.1728 18.9195C38.1728 18.991 38.1343 19.0295 38.0628 19.0295C38.0023 19.0295 37.9528 19.068 37.9528 19.112C37.9528 19.222 37.5953 19.5795 37.4853 19.5795C37.4413 19.5795 37.4028 19.618 37.4028 19.662C37.4028 19.772 37.0452 20.1295 36.9352 20.1295C36.8912 20.1295 36.8527 20.168 36.8527 20.2175C36.8527 20.2615 36.7042 20.4485 36.5227 20.6245C36.3412 20.8005 36.1927 20.9875 36.1927 21.0315C36.1927 21.081 36.1707 21.1195 36.1377 21.1195C36.1102 21.1195 36.0827 21.191 36.0827 21.2845C36.0827 21.3725 36.0607 21.4495 36.0277 21.4495C35.9947 21.4495 35.9727 21.6695 35.9727 21.9995C35.9727 22.3295 35.9947 22.5495 36.0277 22.5495C36.0607 22.5495 36.0827 22.621 36.0827 22.7035C36.0827 22.7915 36.1267 22.8905 36.1927 22.9345C36.2532 22.9785 36.3027 23.0445 36.3027 23.083C36.3027 23.1875 36.7757 23.6495 36.8802 23.6495C36.9242 23.6495 36.9627 23.6715 36.9627 23.7045C36.9627 23.732 37.0122 23.7595 37.0727 23.7595C37.1332 23.7595 37.1827 23.7815 37.1827 23.8145C37.1827 23.842 37.2597 23.8695 37.3478 23.8695C37.4413 23.8695 37.5128 23.8915 37.5128 23.9245C37.5128 23.9575 37.6943 23.9795 37.9528 23.9795C38.2113 23.9795 38.3928 23.9575 38.3928 23.9245C38.3928 23.8915 38.4698 23.8695 38.5578 23.8695C38.6513 23.8695 38.7229 23.842 38.7229 23.8145C38.7229 23.7815 38.7669 23.7595 38.8219 23.7595C38.8769 23.7595 38.9539 23.71 38.9979 23.6495C39.0419 23.589 39.1079 23.5395 39.1464 23.5395C39.2454 23.5395 43.5632 19.211 43.5632 19.112C43.5632 19.068 43.5907 19.0295 43.6182 19.0295C43.6512 19.0295 43.6732 18.98 43.6732 18.9195C43.6732 18.859 43.7007 18.8095 43.7282 18.8095C43.7612 18.8095 43.7832 18.7325 43.7832 18.6445C43.7832 18.551 43.8107 18.4795 43.8382 18.4795C43.8712 18.4795 43.8932 18.2595 43.8932 17.9295C43.8932 17.5995 43.8712 17.3795 43.8382 17.3795C43.8107 17.3795 43.7832 17.308 43.7832 17.2255C43.7832 17.1375 43.7392 17.0385 43.6732 16.9945C43.6127 16.9505 43.5632 16.8845 43.5632 16.8405C43.5632 16.747 43.2057 16.3895 43.1122 16.3895C43.0682 16.3895 43.0022 16.34 42.9582 16.2795C42.9142 16.219 42.8371 16.1695 42.7821 16.1695C42.7271 16.1695 42.6831 16.142 42.6831 16.1145C42.6831 16.0815 42.5346 16.0595 42.3531 16.0595C42.1716 16.0595 42.0231 16.0375 42.0231 16.0045C42.0231 15.9715 42.0011 15.9495 41.9681 15.9495C41.9406 15.9495 41.9131 15.9715 41.9131 16.0045Z" fill="url(#paint2_linear_130_368)"/>
<path d="M49.8337 16.0043C49.8337 16.0373 49.6851 16.0593 49.5036 16.0593C49.3221 16.0593 49.1736 16.0813 49.1736 16.1143C49.1736 16.1418 49.1296 16.1693 49.0746 16.1693C49.0196 16.1693 48.9426 16.2188 48.8986 16.2793C48.8546 16.3398 48.7886 16.3893 48.7501 16.3893C48.6566 16.3893 36.4127 28.6323 36.4127 28.7258C36.4127 28.7643 36.3632 28.8303 36.3027 28.8743C36.2422 28.9183 36.1927 28.9953 36.1927 29.0503C36.1927 29.1053 36.1707 29.1493 36.1377 29.1493C36.1102 29.1493 36.0827 29.1988 36.0827 29.2593C36.0827 29.3198 36.0607 29.3693 36.0277 29.3693C35.9947 29.3693 35.9727 29.6058 35.9727 29.9743C35.9727 30.3428 35.9947 30.5793 36.0277 30.5793C36.0607 30.5793 36.0827 30.6288 36.0827 30.6893C36.0827 30.7498 36.1102 30.7993 36.1377 30.7993C36.1707 30.7993 36.1927 30.8488 36.1927 30.9093C36.1927 30.9698 36.2202 31.0193 36.2477 31.0193C36.2807 31.0193 36.3027 31.0578 36.3027 31.1018C36.3027 31.2063 36.6547 31.5693 36.7537 31.5693C36.7977 31.5693 36.8637 31.6188 36.9077 31.6793C36.9517 31.7453 37.0507 31.7893 37.1387 31.7893C37.2212 31.7893 37.2928 31.8113 37.2928 31.8443C37.2928 31.8718 37.3423 31.8993 37.4028 31.8993C37.4633 31.8993 37.5128 31.9213 37.5128 31.9543C37.5128 31.9873 37.6778 32.0093 37.8978 32.0093C38.1178 32.0093 38.2828 31.9873 38.2828 31.9543C38.2828 31.9213 38.3598 31.8993 38.4478 31.8993C38.5413 31.8993 38.6128 31.8718 38.6128 31.8443C38.6128 31.8113 38.6844 31.7893 38.7669 31.7893C38.8549 31.7893 38.9539 31.7453 38.9979 31.6793C39.0419 31.6188 39.1079 31.5693 39.1464 31.5693C39.2399 31.5693 51.4838 19.3263 51.4838 19.2328C51.4838 19.1943 51.5333 19.1283 51.5938 19.0843C51.6543 19.0403 51.7038 18.9633 51.7038 18.9083C51.7038 18.8533 51.7313 18.8093 51.7588 18.8093C51.7918 18.8093 51.8138 18.7323 51.8138 18.6443C51.8138 18.5508 51.8413 18.4793 51.8688 18.4793C51.9018 18.4793 51.9238 18.2758 51.9238 17.9843C51.9238 17.6928 51.9018 17.4893 51.8688 17.4893C51.8413 17.4893 51.8138 17.4123 51.8138 17.3243C51.8138 17.2308 51.7918 17.1593 51.7588 17.1593C51.7313 17.1593 51.7038 17.1153 51.7038 17.0603C51.7038 17.0053 51.6543 16.9283 51.5938 16.8843C51.5333 16.8403 51.4838 16.7743 51.4838 16.7303C51.4838 16.6313 51.2308 16.3893 51.1262 16.3893C51.0822 16.3893 51.0437 16.3618 51.0437 16.3343C51.0437 16.3013 50.9997 16.2793 50.9447 16.2793C50.8897 16.2793 50.8127 16.2298 50.7687 16.1693C50.7027 16.0758 50.6257 16.0593 50.3177 16.0593C50.1032 16.0593 49.9437 16.0373 49.9437 16.0043C49.9437 15.9713 49.9217 15.9493 49.8887 15.9493C49.8612 15.9493 49.8337 15.9713 49.8337 16.0043Z" fill="url(#paint3_linear_130_368)"/>
<path d="M73.4854 56.0442C73.4854 56.0717 73.4359 56.0992 73.3754 56.0992C73.3149 56.0992 73.2654 56.1212 73.2654 56.1542C73.2654 56.1817 73.1994 56.2092 73.1224 56.2092C73.0344 56.2092 72.9189 56.2752 72.8254 56.3742C72.7429 56.4622 72.6439 56.5392 72.6054 56.5392C72.5174 56.5392 72.3853 56.6767 72.3853 56.7702C72.3853 56.8142 72.3358 56.8802 72.2753 56.9242C72.2148 56.9682 72.1653 57.0452 72.1653 57.1002C72.1653 57.1552 72.1433 57.1992 72.1103 57.1992C72.0828 57.1992 72.0553 57.2707 72.0553 57.3642C72.0553 57.4522 72.0333 57.5292 72.0003 57.5292C71.9673 57.5292 71.9453 57.7327 71.9453 58.0242C71.9453 58.3157 71.9673 58.5192 72.0003 58.5192C72.0333 58.5192 72.0553 58.5687 72.0553 58.6292C72.0553 58.6897 72.0828 58.7392 72.1103 58.7392C72.1433 58.7392 72.1653 58.7887 72.1653 58.8492C72.1653 58.9097 72.1928 58.9592 72.2203 58.9592C72.2533 58.9592 72.2753 58.9977 72.2753 59.0417C72.2753 59.1517 72.8529 59.7292 72.9629 59.7292C73.0069 59.7292 73.0454 59.7512 73.0454 59.7842C73.0454 59.8117 73.0949 59.8392 73.1554 59.8392C73.2159 59.8392 73.2654 59.8612 73.2654 59.8942C73.2654 59.9327 75.5206 59.9492 79.9209 59.9492C84.3212 59.9492 86.5764 59.9327 86.5764 59.8942C86.5764 59.8612 86.6259 59.8392 86.6864 59.8392C86.7469 59.8392 86.7964 59.8117 86.7964 59.7842C86.7964 59.7512 86.8404 59.7292 86.8954 59.7292C86.9504 59.7292 87.0274 59.6797 87.0714 59.6192C87.1154 59.5587 87.1814 59.5092 87.2254 59.5092C87.3189 59.5092 87.4564 59.3717 87.4564 59.2782C87.4564 59.2342 87.5059 59.1682 87.5664 59.1242C87.6269 59.0802 87.6764 59.0032 87.6764 58.9482C87.6764 58.8932 87.7039 58.8492 87.7315 58.8492C87.7645 58.8492 87.7865 58.7997 87.7865 58.7392C87.7865 58.6787 87.814 58.6292 87.8415 58.6292C87.8745 58.6292 87.8965 58.3927 87.8965 58.0242C87.8965 57.6557 87.8745 57.4192 87.8415 57.4192C87.814 57.4192 87.7865 57.3697 87.7865 57.3092C87.7865 57.2487 87.7645 57.1992 87.7315 57.1992C87.7039 57.1992 87.6764 57.1387 87.6764 57.0617C87.6764 56.9077 87.1319 56.3192 86.9889 56.3192C86.9449 56.3192 86.9064 56.2917 86.9064 56.2642C86.9064 56.2312 86.8569 56.2092 86.7964 56.2092C86.7359 56.2092 86.6864 56.1817 86.6864 56.1542C86.6864 56.1212 86.6149 56.0992 86.5214 56.0992C86.4334 56.0992 86.3564 56.0717 86.3564 56.0442C86.3564 56.0057 84.1727 55.9892 79.9209 55.9892C75.6691 55.9892 73.4854 56.0057 73.4854 56.0442Z" fill="url(#paint4_linear_130_368)"/>
<path d="M13.5311 68.0363C13.5311 68.0638 13.4816 68.0913 13.4211 68.0913C13.3606 68.0913 13.3111 68.1133 13.3111 68.1463C13.3111 68.1738 13.2396 68.2013 13.1571 68.2013C13.069 68.2013 12.97 68.2453 12.926 68.3113C12.882 68.3718 12.816 68.4213 12.772 68.4213C12.7335 68.4213 12.618 68.5093 12.5135 68.6138C12.409 68.7183 12.321 68.8338 12.321 68.8723C12.321 68.9163 12.2715 68.9823 12.211 69.0263C12.145 69.0703 12.101 69.1693 12.101 69.2573C12.101 69.3398 12.079 69.4113 12.046 69.4113C12.013 69.4113 11.991 69.6478 11.991 70.0163C11.991 70.3848 12.013 70.6213 12.046 70.6213C12.079 70.6213 12.101 70.6928 12.101 70.7753C12.101 70.8633 12.145 70.9623 12.211 71.0063C12.2715 71.0503 12.321 71.1163 12.321 71.1603C12.321 71.2538 12.6785 71.6113 12.772 71.6113C12.816 71.6113 12.882 71.6608 12.926 71.7213C12.97 71.7818 13.047 71.8313 13.102 71.8313C13.1571 71.8313 13.2011 71.8533 13.2011 71.8863C13.2011 71.9193 13.3661 71.9413 13.5861 71.9413C13.8061 71.9413 13.9711 71.9633 13.9711 71.9963C13.9711 72.0348 26.0005 72.0513 49.9437 72.0513C73.8869 72.0513 85.9163 72.0348 85.9163 71.9963C85.9163 71.9633 86.0758 71.9413 86.2903 71.9413C86.5983 71.9413 86.6753 71.9248 86.7413 71.8313C86.7853 71.7708 86.8624 71.7213 86.9174 71.7213C86.9724 71.7213 87.0164 71.6938 87.0164 71.6663C87.0164 71.6333 87.0549 71.6113 87.0989 71.6113C87.2089 71.6113 87.5664 71.2538 87.5664 71.1438C87.5664 71.0998 87.5939 71.0613 87.6214 71.0613C87.6544 71.0613 87.6764 71.0118 87.6764 70.9513C87.6764 70.8908 87.7039 70.8413 87.7314 70.8413C87.7644 70.8413 87.7864 70.7918 87.7864 70.7313C87.7864 70.6708 87.8139 70.6213 87.8414 70.6213C87.8744 70.6213 87.8964 70.3848 87.8964 70.0163C87.8964 69.6478 87.8744 69.4113 87.8414 69.4113C87.8139 69.4113 87.7864 69.3618 87.7864 69.3013C87.7864 69.2408 87.7644 69.1913 87.7314 69.1913C87.7039 69.1913 87.6764 69.1418 87.6764 69.0813C87.6764 69.0208 87.6544 68.9713 87.6214 68.9713C87.5939 68.9713 87.5664 68.9328 87.5664 68.8888C87.5664 68.7843 87.2144 68.4213 87.1154 68.4213C87.0714 68.4213 87.0054 68.3718 86.9614 68.3113C86.9174 68.2453 86.8184 68.2013 86.7303 68.2013C86.6478 68.2013 86.5763 68.1738 86.5763 68.1463C86.5763 68.1133 86.5048 68.0913 86.4113 68.0913C86.3233 68.0913 86.2463 68.0638 86.2463 68.0363C86.2463 67.9978 74.0904 67.9813 49.8887 67.9813C25.687 67.9813 13.5311 67.9978 13.5311 68.0363Z" fill="url(#paint5_linear_130_368)"/>
<defs>
<linearGradient id="paint0_linear_130_368" x1="97.6224" y1="20.7151" x2="1.05362e-05" y2="20.6874" gradientUnits="userSpaceOnUse">
<stop stop-color="#4B31B1"/>
<stop offset="0.0886" stop-color="#5D41C4"/>
<stop offset="0.214" stop-color="#7152D8"/>
<stop offset="0.3396" stop-color="#7C5CE4"/>
<stop offset="0.4649" stop-color="#805FE8"/>
<stop offset="0.5515" stop-color="#8065E9"/>
<stop offset="0.6688" stop-color="#7F76ED"/>
<stop offset="0.8036" stop-color="#7E93F3"/>
<stop offset="0.9506" stop-color="#7CBAFC"/>
<stop offset="1" stop-color="#7BC9FF"/>
</linearGradient>
<linearGradient id="paint1_linear_130_368" x1="89.3094" y1="17.3463" x2="7.92019" y2="17.304" gradientUnits="userSpaceOnUse">
<stop stop-color="#4B31B1"/>
<stop offset="0.0886" stop-color="#5D41C4"/>
<stop offset="0.214" stop-color="#7152D8"/>
<stop offset="0.3396" stop-color="#7C5CE4"/>
<stop offset="0.4649" stop-color="#805FE8"/>
<stop offset="0.5515" stop-color="#8065E9"/>
<stop offset="0.6688" stop-color="#7F76ED"/>
<stop offset="0.8036" stop-color="#7E93F3"/>
<stop offset="0.9506" stop-color="#7CBAFC"/>
<stop offset="1" stop-color="#7BC9FF"/>
</linearGradient>
<linearGradient id="paint2_linear_130_368" x1="44.0332" y1="17.8397" x2="35.9727" y2="17.8377" gradientUnits="userSpaceOnUse">
<stop stop-color="#4B31B1"/>
<stop offset="0.0886" stop-color="#5D41C4"/>
<stop offset="0.214" stop-color="#7152D8"/>
<stop offset="0.3396" stop-color="#7C5CE4"/>
<stop offset="0.4649" stop-color="#805FE8"/>
<stop offset="0.5515" stop-color="#8065E9"/>
<stop offset="0.6688" stop-color="#7F76ED"/>
<stop offset="0.8036" stop-color="#7E93F3"/>
<stop offset="0.9506" stop-color="#7CBAFC"/>
<stop offset="1" stop-color="#7BC9FF"/>
</linearGradient>
<linearGradient id="paint3_linear_130_368" x1="52.2057" y1="19.7298" x2="35.9727" y2="19.7256" gradientUnits="userSpaceOnUse">
<stop stop-color="#4B31B1"/>
<stop offset="0.0886" stop-color="#5D41C4"/>
<stop offset="0.214" stop-color="#7152D8"/>
<stop offset="0.3396" stop-color="#7C5CE4"/>
<stop offset="0.4649" stop-color="#805FE8"/>
<stop offset="0.5515" stop-color="#8065E9"/>
<stop offset="0.6688" stop-color="#7F76ED"/>
<stop offset="0.8036" stop-color="#7E93F3"/>
<stop offset="0.9506" stop-color="#7CBAFC"/>
<stop offset="1" stop-color="#7BC9FF"/>
</linearGradient>
<linearGradient id="paint4_linear_130_368" x1="88.1784" y1="56.9214" x2="71.9453" y2="56.9044" gradientUnits="userSpaceOnUse">
<stop stop-color="#4B31B1"/>
<stop offset="0.0886" stop-color="#5D41C4"/>
<stop offset="0.214" stop-color="#7152D8"/>
<stop offset="0.3396" stop-color="#7C5CE4"/>
<stop offset="0.4649" stop-color="#805FE8"/>
<stop offset="0.5515" stop-color="#8065E9"/>
<stop offset="0.6688" stop-color="#7F76ED"/>
<stop offset="0.8036" stop-color="#7E93F3"/>
<stop offset="0.9506" stop-color="#7CBAFC"/>
<stop offset="1" stop-color="#7BC9FF"/>
</linearGradient>
<linearGradient id="paint5_linear_130_368" x1="89.238" y1="68.9393" x2="11.9928" y2="68.5641" gradientUnits="userSpaceOnUse">
<stop stop-color="#4B31B1"/>
<stop offset="0.0886" stop-color="#5D41C4"/>
<stop offset="0.214" stop-color="#7152D8"/>
<stop offset="0.3396" stop-color="#7C5CE4"/>
<stop offset="0.4649" stop-color="#805FE8"/>
<stop offset="0.5515" stop-color="#8065E9"/>
<stop offset="0.6688" stop-color="#7F76ED"/>
<stop offset="0.8036" stop-color="#7E93F3"/>
<stop offset="0.9506" stop-color="#7CBAFC"/>
<stop offset="1" stop-color="#7BC9FF"/>
</linearGradient>
</defs>
</svg>
