<svg width="137" height="78" viewBox="0 0 137 78" fill="none" xmlns="http://www.w3.org/2000/svg">
<path d="M38.5086 33.8155V25.4902C38.5086 24.6577 37.8704 24.0371 37.0651 24.0371H12.8305C12.0252 24.0371 11.3718 24.6729 11.3718 25.4902V33.8155C11.3718 34.6026 12.0252 35.2686 12.8305 35.2686H37.0499C37.8552 35.2686 38.5086 34.6026 38.5086 33.8155ZM22.8738 32.3775L25.7151 26.9434H29.9239L27.0674 32.3775H22.8738ZM18.9689 32.3775L21.795 26.9434H22.4332L19.5919 32.3775H18.9689ZM14.3043 26.9434H18.5283L15.687 32.3775H14.3043V26.9434ZM35.6065 32.3775H30.3645L33.2058 26.9434H35.6065V32.3775Z" fill="url(#paint0_linear_130_455)"/>
<path d="M22.646 38.1753H14.3044C13.4839 38.1753 12.8306 38.811 12.8306 39.6133V48.3169C12.8306 49.1343 13.4839 49.8004 14.3044 49.8004H22.646C23.4513 49.8004 24.1046 49.1343 24.1046 48.3169V39.6133C24.1046 38.811 23.4361 38.1753 22.646 38.1753ZM21.2025 46.879H15.7326V41.0664H21.2025V46.879Z" fill="url(#paint1_linear_130_455)"/>
<path d="M121.605 63.5289C121.605 55.5367 115.087 49.043 107.049 49.043C99.042 49.043 92.5237 55.5367 92.5237 63.5289C92.5237 65.0577 92.8276 66.4806 93.2682 67.8732H72.9537V64.2706L74.8529 62.8931C75.2176 62.6055 75.4607 62.1969 75.4607 61.7276L75.4759 60.6226L75.7342 56.021C75.7798 55.2188 75.172 54.5225 74.3515 54.4619C73.5766 54.356 72.8777 55.0523 72.8321 55.8243L72.6498 58.564H72.5738L72.5586 60.3653V60.4258V60.9708L70.6441 62.3634C70.2643 62.651 70.0364 63.0596 70.0364 63.5289V69.3263C70.0364 70.1285 70.6897 70.7794 71.5102 70.7794H94.5445C97.0668 75.0934 101.701 77.9997 107.049 77.9997C112.428 77.9997 117.062 75.0934 119.6 70.7643H136.663V67.8732H120.861C121.286 66.4806 121.605 65.0577 121.605 63.5289ZM107.049 75.1237C100.637 75.1237 95.4258 69.9166 95.4258 63.5289C95.4258 57.1412 100.637 51.919 107.049 51.919C113.492 51.919 118.718 57.1412 118.718 63.5289C118.718 69.9166 113.492 75.1237 107.049 75.1237Z" fill="url(#paint2_linear_130_455)"/>
<path d="M112.823 39.1436C112.413 39.5523 112.307 40.188 112.535 40.7178C112.763 41.2476 113.279 41.5958 113.872 41.5958H136.663V38.7046H117.883C123.809 34.7539 131.543 33.876 131.512 33.876H136.663V30.9697H131.36C130.874 31.0454 119.403 32.332 112.823 39.1436Z" fill="url(#paint3_linear_130_455)"/>
<path d="M131.527 24.4005C130.722 24.3853 111.167 24.3096 95.1981 36.8732C95.1525 36.8883 91.6882 40.2033 80.7029 40.7785C80.4446 40.8239 75.309 41.8532 73.3337 46.1369H67.8334C67.0282 46.1369 66.3748 46.7878 66.3748 47.59V48.2863C62.4699 48.5588 51.3478 50.1633 47.0782 59.6087C47.0023 59.7752 46.8959 60.0325 46.7743 60.3655C46.7743 60.3806 46.7744 60.3958 46.7592 60.3958V21.0098C46.7592 17.0137 43.4924 13.7744 39.4964 13.7744H10.3996C6.38832 13.7744 3.12158 17.0137 3.12158 21.0098V67.5252H2.93925C1.34386 67.5252 0.0219727 68.827 0.0219727 70.4163V75.1239C0.0219727 76.7133 1.32867 77.9999 2.93925 77.9999H46.9415C48.5369 77.9999 49.8588 76.7133 49.8588 75.1239V70.4163C49.8588 68.827 48.5521 67.5252 46.9415 67.5252H46.7592V66.6473C48.2634 64.6946 49.0535 62.5603 49.5093 61.3797C49.6005 61.1223 49.6764 60.9256 49.722 60.7893C53.2319 53.0393 62.789 51.5105 66.3748 51.1775V51.7073C66.3748 52.5095 67.0282 53.1604 67.8334 53.1604H75.7648C76.2966 53.1604 76.7828 52.8425 77.0411 52.3733L78.7732 49.0432H79.3354L84.1368 50.3298C84.1368 50.3904 84.1064 50.4206 84.1064 50.4812C84.1064 53.2361 86.3247 55.446 89.09 55.446C91.8554 55.446 94.1041 53.2361 94.1041 50.4812C94.1041 47.7414 91.8554 45.5163 89.09 45.5163C87.4491 45.5163 86.036 46.3791 85.1244 47.6203L79.9432 46.1672C79.8216 46.152 79.7001 46.1369 79.5481 46.1369H77.9375C77.9223 46.1369 77.9071 46.1369 77.8768 46.1369H76.7676C78.4389 44.2599 81.0675 43.6696 81.0371 43.6696C93.1925 43.0339 97.1429 39.0377 97.1429 39.0075C112.17 27.2159 131.315 27.337 131.527 27.2916H136.678V24.4005H131.527ZM46.9415 70.4163V75.1239H2.93925V70.4163H4.56502C5.37031 70.4163 6.02366 69.7655 6.02366 68.9632V21.0098C6.02366 18.6182 7.9837 16.6655 10.3844 16.6655H39.4964C41.8818 16.6655 43.8571 18.6182 43.8571 21.0098V65.3909C42.7023 66.6473 41.1829 67.722 39.0101 67.9188C38.372 68.055 36.4575 68.2821 35.3484 67.4041C34.6798 66.8592 34.3152 65.8904 34.3152 64.5584V55.5671H35.5915C36.3968 55.5671 37.0501 54.9163 37.0501 54.0989V39.6129C37.0501 38.8107 36.3968 38.1749 35.5915 38.1749H30.152C29.3315 38.1749 28.6781 38.8107 28.6781 39.6129V54.114C28.6781 54.9314 29.3315 55.5823 30.152 55.5823H31.4131V64.5735C31.4131 66.8592 32.1424 68.6151 33.5858 69.7049C34.8773 70.7191 36.4879 70.9461 37.6883 70.9461C38.6759 70.9461 39.4052 70.7948 39.4812 70.7494C41.2893 70.6131 42.7479 70.0228 43.9634 69.2357C44.1154 69.8714 44.6168 70.4012 45.3157 70.4012L46.9415 70.4163ZM34.148 52.6609H33.0996C33.0085 52.6306 32.9629 52.57 32.8717 52.57C32.7654 52.57 32.7198 52.6457 32.6286 52.676H31.5954V41.0661H34.1328V52.6609H34.148ZM91.2172 50.4812C91.2172 51.6316 90.2752 52.57 89.1204 52.57C88.2696 52.57 87.6618 51.9494 87.3579 51.238L87.601 51.2834C88.3607 51.4651 89.166 51.0564 89.3635 50.2844C89.5611 49.5881 89.1812 48.9524 88.5582 48.6496C88.771 48.5739 88.8925 48.4074 89.1204 48.4074C90.2752 48.4074 91.2172 49.3459 91.2172 50.4812ZM74.8835 50.239H69.3073V49.0432H75.5217L74.8835 50.239Z" fill="url(#paint4_linear_130_455)"/>
<path d="M9.0624 12.3214H40.8334C41.6386 12.3214 42.2616 11.6705 42.2616 10.8682V1.45313C42.2616 0.635745 41.6234 0 40.8334 0H9.0624C8.24191 0 7.60376 0.635745 7.60376 1.45313V10.8682C7.60376 11.6705 8.24191 12.3214 9.0624 12.3214ZM10.5058 2.90627H39.3747V9.43023H10.5058V2.90627Z" fill="url(#paint5_linear_130_455)"/>
<defs>
<linearGradient id="paint0_linear_130_455" x1="38.9882" y1="32.6247" x2="11.3718" y2="32.6421" gradientUnits="userSpaceOnUse">
<stop stop-color="#4B31B1"/>
<stop offset="0.0886" stop-color="#5D41C4"/>
<stop offset="0.214" stop-color="#7152D8"/>
<stop offset="0.3396" stop-color="#7C5CE4"/>
<stop offset="0.4649" stop-color="#805FE8"/>
<stop offset="0.5515" stop-color="#8065E9"/>
<stop offset="0.6688" stop-color="#7F76ED"/>
<stop offset="0.8036" stop-color="#7E93F3"/>
<stop offset="0.9506" stop-color="#7CBAFC"/>
<stop offset="1" stop-color="#7BC9FF"/>
</linearGradient>
<linearGradient id="paint1_linear_130_455" x1="24.3039" y1="47.0638" x2="12.8306" y2="47.0667" gradientUnits="userSpaceOnUse">
<stop stop-color="#4B31B1"/>
<stop offset="0.0886" stop-color="#5D41C4"/>
<stop offset="0.214" stop-color="#7152D8"/>
<stop offset="0.3396" stop-color="#7C5CE4"/>
<stop offset="0.4649" stop-color="#805FE8"/>
<stop offset="0.5515" stop-color="#8065E9"/>
<stop offset="0.6688" stop-color="#7F76ED"/>
<stop offset="0.8036" stop-color="#7E93F3"/>
<stop offset="0.9506" stop-color="#7CBAFC"/>
<stop offset="1" stop-color="#7BC9FF"/>
</linearGradient>
<linearGradient id="paint2_linear_130_455" x1="137.84" y1="71.1833" x2="70.0364" y2="71.2239" gradientUnits="userSpaceOnUse">
<stop stop-color="#4B31B1"/>
<stop offset="0.0886" stop-color="#5D41C4"/>
<stop offset="0.214" stop-color="#7152D8"/>
<stop offset="0.3396" stop-color="#7C5CE4"/>
<stop offset="0.4649" stop-color="#805FE8"/>
<stop offset="0.5515" stop-color="#8065E9"/>
<stop offset="0.6688" stop-color="#7F76ED"/>
<stop offset="0.8036" stop-color="#7E93F3"/>
<stop offset="0.9506" stop-color="#7CBAFC"/>
<stop offset="1" stop-color="#7BC9FF"/>
</linearGradient>
<linearGradient id="paint3_linear_130_455" x1="137.092" y1="39.0944" x2="112.417" y2="39.1091" gradientUnits="userSpaceOnUse">
<stop stop-color="#4B31B1"/>
<stop offset="0.0886" stop-color="#5D41C4"/>
<stop offset="0.214" stop-color="#7152D8"/>
<stop offset="0.3396" stop-color="#7C5CE4"/>
<stop offset="0.4649" stop-color="#805FE8"/>
<stop offset="0.5515" stop-color="#8065E9"/>
<stop offset="0.6688" stop-color="#7F76ED"/>
<stop offset="0.8036" stop-color="#7E93F3"/>
<stop offset="0.9506" stop-color="#7CBAFC"/>
<stop offset="1" stop-color="#7BC9FF"/>
</linearGradient>
<linearGradient id="paint4_linear_130_455" x1="139.093" y1="62.8813" x2="0.0220192" y2="62.9583" gradientUnits="userSpaceOnUse">
<stop stop-color="#4B31B1"/>
<stop offset="0.0886" stop-color="#5D41C4"/>
<stop offset="0.214" stop-color="#7152D8"/>
<stop offset="0.3396" stop-color="#7C5CE4"/>
<stop offset="0.4649" stop-color="#805FE8"/>
<stop offset="0.5515" stop-color="#8065E9"/>
<stop offset="0.6688" stop-color="#7F76ED"/>
<stop offset="0.8036" stop-color="#7E93F3"/>
<stop offset="0.9506" stop-color="#7CBAFC"/>
<stop offset="1" stop-color="#7BC9FF"/>
</linearGradient>
<linearGradient id="paint5_linear_130_455" x1="42.8742" y1="9.42092" x2="7.60378" y2="9.44676" gradientUnits="userSpaceOnUse">
<stop stop-color="#4B31B1"/>
<stop offset="0.0886" stop-color="#5D41C4"/>
<stop offset="0.214" stop-color="#7152D8"/>
<stop offset="0.3396" stop-color="#7C5CE4"/>
<stop offset="0.4649" stop-color="#805FE8"/>
<stop offset="0.5515" stop-color="#8065E9"/>
<stop offset="0.6688" stop-color="#7F76ED"/>
<stop offset="0.8036" stop-color="#7E93F3"/>
<stop offset="0.9506" stop-color="#7CBAFC"/>
<stop offset="1" stop-color="#7BC9FF"/>
</linearGradient>
</defs>
</svg>
