<svg xmlns:xlink="http://www.w3.org/1999/xlink" xmlns="http://www.w3.org/2000/svg" width="153" height="153" viewBox="0 0 153 153" fill="none">
<path d="M31.856 72.722C31.8562 71.8665 32.0253 71.0195 32.3538 70.2295C32.6822 69.4396 33.1634 68.7223 33.7698 68.1188C34.3762 67.5154 35.0958 67.0376 35.8873 66.713C36.6789 66.3884 37.5267 66.2234 38.3822 66.2274L49.2024 66.2626C50.9276 66.2626 52.5821 66.948 53.802 68.1678C55.0218 69.3877 55.7072 71.0422 55.7072 72.7674V113.68C56.9252 113.319 58.4897 112.933 60.2015 112.53C61.3906 112.251 62.4504 111.578 63.2089 110.621C63.9674 109.663 64.38 108.478 64.3798 107.256V56.5055C64.3798 54.7802 65.065 53.1256 66.2848 51.9055C67.5047 50.6855 69.1592 49.9999 70.8845 49.9995H81.7261C83.4514 49.9999 85.1059 50.6855 86.3258 51.9055C87.5456 53.1256 88.2309 54.7802 88.2309 56.5055V103.607C88.2309 103.607 90.9454 102.509 93.5894 101.393C94.5716 100.977 95.4097 100.282 95.9993 99.3932C96.5889 98.5045 96.9038 97.462 96.9047 96.3955V40.2437C96.9047 38.5187 97.5898 36.8644 98.8094 35.6446C100.029 34.4247 101.683 33.7393 103.408 33.7389H114.25C115.975 33.7389 117.63 34.4243 118.849 35.6441C120.069 36.864 120.755 38.5185 120.755 40.2437V86.4835C130.154 79.6714 139.679 71.4788 147.238 61.6272C148.335 60.1972 149.061 58.5181 149.35 56.7396C149.64 54.9611 149.485 53.1384 148.9 51.4343C145.401 41.367 139.839 32.141 132.57 24.3467C125.301 16.5524 116.484 10.3614 106.685 6.16992C96.886 1.97846 86.3197 -0.121165 75.6625 0.00539972C65.0053 0.131964 54.4918 2.48194 44.795 6.90493C35.0981 11.3279 26.4313 17.7265 19.3493 25.6913C12.2673 33.656 6.92599 43.0115 3.66718 53.159C0.408382 63.3066 -0.696134 74.0226 0.424309 84.6215C1.54475 95.2205 4.86549 105.469 10.174 114.711C11.0988 116.305 12.4592 117.602 14.0956 118.45C15.7321 119.298 17.5764 119.661 19.4121 119.497C21.4628 119.317 24.0161 119.061 27.0518 118.705C28.3733 118.555 29.5934 117.924 30.4796 116.932C31.3658 115.941 31.8562 114.658 31.8573 113.328V72.722" fill="white"/>
<path d="M31.6191 138.343C43.047 146.657 56.5522 151.647 70.6404 152.761C84.7285 153.876 98.8504 151.071 111.443 144.658C124.036 138.244 134.61 128.471 141.993 116.421C149.376 104.371 153.282 90.5135 153.278 76.3813C153.278 74.6178 153.196 72.8732 153.079 71.1387C125.091 112.88 73.415 132.395 31.6217 138.336" fill="#C0D0DB"/>
</svg>