<svg width="140" height="55" viewBox="0 0 140 55" fill="none" xmlns="http://www.w3.org/2000/svg">
<path d="M69.736 0.196747C76.1479 0.924614 81.8748 2.13773 87.1358 3.86304C92.3968 5.58836 96.3426 7.36759 104.399 11.627L108.098 13.568L111.797 13.8914C119.086 14.4845 125.607 16.2638 132.074 19.3639C135.937 21.224 138.02 23.0033 139.225 25.3756C139.883 26.7235 139.883 26.8044 139.965 35.6736C140.048 44.381 140.02 44.6506 139.472 45.1898C138.979 45.675 138.595 45.7289 134.567 45.7289H130.183L129.306 47.4812C128.32 49.4761 126.347 51.5788 124.292 52.8459C117.332 57.1592 108.372 54.7868 104.536 47.589L103.549 45.7289H72.4762H41.3758L40.5264 47.4003C38.1699 52.0102 33.1006 55.0295 27.8122 54.9486C22.5238 54.8947 17.9204 52.0641 15.5639 47.4003C14.8514 45.9716 14.6048 45.7289 14.002 45.7289C13.1526 45.7289 5.72685 42.8444 3.97318 41.847C3.31554 41.4696 2.35651 40.5799 1.83588 39.879C0.0274048 37.4258 0 37.1832 0 25.5643C0.0274048 14.6193 0.0274048 14.6193 1.26045 13.9723C1.56187 13.8106 5.42543 13.1905 9.86443 12.5435L17.893 11.4113L20.1947 10.1173C28.4424 5.42661 38.3617 2.08381 48.5549 0.547203C51.9253 0.0619545 66.3657 -0.207626 69.736 0.196747ZM65.4889 9.06595V13.6488L81.8474 13.6219H98.2333L95.4932 12.247C87.1358 8.0685 78.0112 5.58836 67.4069 4.64483C66.8863 4.61787 66.2287 4.53699 65.9547 4.53699C65.5163 4.48308 65.4889 4.86049 65.4889 9.06595ZM49.0481 5.15703C43.7049 5.96577 36.5806 7.74501 33.0184 9.2277L31.9772 9.65903L34.0049 11.6539L36.0052 13.6488H48.4179H60.8307V9.01204V4.40221L56.3643 4.56395C53.9256 4.67179 50.6374 4.94137 49.0481 5.15703ZM25.1269 12.7323C24.0583 13.2714 22.332 14.188 21.3181 14.7811C19.5097 15.8324 19.3452 15.8594 12.9608 16.776C9.3712 17.2612 6.02826 17.7465 5.53503 17.8273C4.68561 17.9891 4.6582 18.016 4.6582 19.31V20.6579H8.22035H11.8099L11.7277 22.8685L11.6455 25.106L8.13815 25.1869L4.6582 25.2678V30.3898C4.6582 35.8623 4.76781 36.3475 6.08307 37.5606C6.63109 38.0728 13.0978 40.8765 13.728 40.8765C13.8376 40.8765 14.002 40.2295 14.1116 39.4477C14.7144 35.0535 17.6464 31.0098 21.6469 29.0149C27.182 26.2652 33.5117 27.2627 37.8959 31.5759C40.1976 33.8404 41.9238 37.4798 41.9238 40.1217V41.1461H51.3772H60.8307V29.6889V18.2317H47.4863H34.1693L30.8537 14.9967C29.0179 13.2175 27.456 11.7618 27.319 11.7618C27.2094 11.7618 26.2229 12.1931 25.1269 12.7323ZM65.4889 29.6889V41.1461H84.1217H102.727L102.891 40.1217C102.974 39.5825 103.22 38.4233 103.467 37.5606C104.727 32.6273 109.44 28.5027 114.784 27.6401C122.182 26.427 129.498 31.7377 130.731 39.1781L131.06 41.1461H133.362H135.691L135.581 34.73L135.499 28.341L134.732 27.047C133.8 25.5104 132.019 24.2973 128.238 22.6528C123.278 20.5231 118.017 19.0944 112.893 18.5282C111.769 18.3934 100.645 18.2856 88.1497 18.2587L65.4889 18.2317V29.6889ZM113.962 32.5464C113.441 32.6812 112.4 33.1665 111.687 33.6517C105.823 37.4528 106.399 46.1603 112.756 49.4491C113.962 50.0961 114.427 50.177 116.866 50.177C119.305 50.177 119.771 50.0961 120.976 49.4491C126.648 46.5107 127.909 39.2051 123.497 34.8379C120.921 32.3308 117.798 31.549 113.962 32.5464ZM23.9486 33.0856C20.1673 34.8648 18.0848 38.9625 18.9068 42.9253C19.3452 45.028 20.0577 46.349 21.4825 47.7238C23.3184 49.4491 24.9625 50.1501 27.5382 50.2579C30.6071 50.3927 32.4978 49.6918 34.5529 47.643C36.608 45.5672 37.3478 43.7071 37.2108 40.8765C36.882 34.1639 30.0865 30.1741 23.9486 33.0856Z" fill="white"/>
<path d="M81.8787 22.8683L81.7965 25.1058H77.1383H72.4801L72.3979 22.8683L72.3157 20.6577H77.1383H81.9609L81.8787 22.8683Z" fill="white"/>
</svg>
