<svg width="23" height="15" xmlns="http://www.w3.org/2000/svg" xmlns:xlink="http://www.w3.org/1999/xlink" overflow="hidden"><g transform="translate(-138 -232)"><path d="M139.5 246.5 139.5 245.571C139.5 243.52 141.589 241.857 144.167 241.857L148.833 241.857C151.411 241.857 153.5 243.52 153.5 245.571L153.5 246.5M153.5 239.071C155.433 239.071 157 237.824 157 236.286 157 234.747 155.433 233.5 153.5 233.5M160.5 246.5 160.5 245.571C160.5 243.52 158.411 241.857 155.833 241.857L155.25 241.857M150 236.286C150 237.824 148.433 239.071 146.5 239.071 144.567 239.071 143 237.824 143 236.286 143 234.747 144.567 233.5 146.5 233.5 148.433 233.5 150 234.747 150 236.286Z" stroke="#FFFFFF" stroke-width="1.33333" stroke-linecap="round" stroke-linejoin="round" stroke-miterlimit="10" fill="none" fill-rule="evenodd"/></g></svg>