<svg width="21" height="20" xmlns="http://www.w3.org/2000/svg" xmlns:xlink="http://www.w3.org/1999/xlink" overflow="hidden"><g transform="translate(-132 -184)"><path d="M133.569 202C133.237 202 133.001 202.222 133.001 202.481 133.001 202.777 133.285 202.999 133.569 202.999L151.338 202.999C151.716 202.999 151.952 202.777 151.952 202.481 152 202.185 151.716 202 151.338 202Z" fill="#FFFFFF" fill-rule="evenodd"/><path d="M136.571 195.107C136.667 195.107 136.809 195.247 136.809 195.339L136.809 198.569C136.809 198.708 136.667 198.753 136.571 198.753L134.476 198.753C134.334 198.753 134.239 198.616 134.239 198.569L134.239 195.339C134.239 195.247 134.334 195.107 134.476 195.107ZM134.429 194C133.573 194 133.002 194.646 133.002 195.384L133.002 198.616C133.002 199.399 133.62 200 134.429 200L136.475 200C137.334 200 138 199.399 138 198.616L138 195.384C138 194.601 137.334 194 136.475 194Z" fill="#FFFFFF" fill-rule="evenodd"/><path d="M143.524 185.147C143.666 185.238 143.761 185.283 143.761 185.375L143.761 198.624C143.761 198.762 143.666 198.807 143.524 198.807L141.429 198.807C141.333 198.807 141.286 198.67 141.286 198.624L141.286 185.375C141.286 185.283 141.381 185.147 141.429 185.147ZM141.429 184C140.62 184 140 184.642 140 185.375L140 198.624C140 199.449 140.666 199.999 141.429 199.999L143.524 199.999C144.38 199.999 144.998 199.357 144.998 198.624L144.998 185.375C144.998 184.597 144.38 184 143.524 184Z" fill="#FFFFFF" fill-rule="evenodd"/><path d="M150.584 191.06C150.726 191.06 150.772 191.187 150.772 191.272L150.772 198.686C150.772 198.814 150.632 198.856 150.584 198.856L148.509 198.856C148.415 198.856 148.274 198.729 148.274 198.686L148.274 191.272C148.274 191.187 148.415 191.06 148.509 191.06ZM148.463 190.001C147.66 190.001 147 190.594 147 191.314L147 198.729C147 199.492 147.66 200 148.463 200L150.537 200C151.34 200 151.952 199.449 151.952 198.729L151.952 191.314C152 190.594 151.34 190.001 150.537 190.001Z" fill="#FFFFFF" fill-rule="evenodd"/></g></svg>