<svg width="28" height="26" xmlns="http://www.w3.org/2000/svg" xmlns:xlink="http://www.w3.org/1999/xlink" overflow="hidden"><g transform="translate(-133 -136)"><path d="M149.055 137.619 149.055 141.796 146.319 141.796C146.537 140.988 146.895 140.179 147.112 139.64 147.688 138.629 148.335 137.955 149.055 137.619ZM150.567 137.619C151.287 137.955 151.936 138.629 152.439 139.64 152.8 140.314 153.088 141.056 153.232 141.796L150.567 141.796 150.567 137.619ZM153.376 138.09C155.174 138.966 156.614 140.179 157.477 141.796L154.886 141.796C154.598 140.718 154.239 139.775 153.808 138.966 153.59 138.697 153.447 138.359 153.376 138.09ZM146.249 138.158 146.249 138.158C146.032 138.427 145.888 138.697 145.817 139.033 145.312 139.841 144.953 140.853 144.736 141.864L142.072 141.864C143.008 140.179 144.521 138.966 146.249 138.158ZM144.448 143.347C144.375 144.02 144.231 144.76 144.231 145.503 144.375 146.243 144.375 147.051 144.448 147.725L141.496 147.725C141.281 147.051 141.137 146.243 141.137 145.503 141.137 144.76 141.208 144.02 141.496 143.347ZM149.055 143.347 149.055 147.725 146.032 147.725C145.961 146.985 145.888 146.243 145.888 145.503 145.888 144.76 145.961 143.952 146.032 143.347ZM153.52 143.347C153.59 144.02 153.734 144.76 153.734 145.503 153.734 146.243 153.59 147.051 153.52 147.725L150.567 147.725 150.567 143.347ZM158.126 143.347C158.27 144.02 158.485 144.76 158.485 145.503 158.485 146.243 158.414 147.051 158.126 147.725L155.174 147.725C155.247 146.985 155.318 146.243 155.318 145.503 155.247 144.76 155.247 144.02 155.174 143.347ZM144.736 149.141C144.953 150.218 145.312 151.162 145.817 151.97 145.961 152.24 146.176 152.578 146.249 152.847 144.521 152.105 143.008 150.826 142.072 149.141ZM157.477 149.141C156.614 150.826 155.174 152.105 153.376 152.847 153.52 152.578 153.734 152.308 153.808 151.97 154.239 151.162 154.598 150.152 154.886 149.141ZM149.055 149.141 149.055 153.318C148.408 152.982 147.688 152.308 147.256 151.296 146.895 150.623 146.607 149.883 146.393 149.141ZM153.232 149.141C153.088 149.949 152.727 150.757 152.439 151.296 151.936 152.443 151.287 153.117 150.567 153.318L150.567 149.141ZM139.229 154.733C139.428 154.733 139.624 154.8 139.768 154.934 140.056 155.206 140.056 155.61 139.768 155.946L136.169 159.315C136.025 159.449 135.827 159.518 135.63 159.518 135.431 159.518 135.232 159.449 135.089 159.315 134.801 159.045 134.801 158.575 135.089 158.305L138.69 154.934C138.834 154.8 139.03 154.733 139.229 154.733ZM149.848 136.002C144.231 136.002 139.697 140.245 139.697 145.503 139.697 147.793 140.561 149.949 142.145 151.634L140.2 153.452C139.88 153.279 139.531 153.196 139.181 153.196 138.587 153.196 137.991 153.433 137.538 153.857L133.937 157.227C133.002 158.036 133.002 159.518 133.937 160.326 134.369 160.731 135.018 161 135.52 161 136.169 161 136.672 160.731 137.177 160.326L140.776 156.958C141.496 156.284 141.64 155.272 141.208 154.464L143.079 152.644C144.88 154.06 147.183 154.934 149.63 154.934 149.676 154.937 149.722 154.937 149.768 154.937 155.462 154.937 159.998 150.717 159.998 145.503 159.998 140.314 155.391 136.002 149.848 136.002Z" fill="#FFFFFF" fill-rule="evenodd"/></g></svg>