<svg width="21" height="23" xmlns="http://www.w3.org/2000/svg" xmlns:xlink="http://www.w3.org/1999/xlink" overflow="hidden"><g transform="translate(-139 -94)"><path d="M146.781 105.042 149.209 107.299 154.251 102.616M149.667 95.5432 142.381 97.4776C141.859 97.6155 141.5 98.0582 141.5 98.562L141.5 104.314C141.5 107.956 143.394 111.375 146.585 113.492L149.295 115.29C149.717 115.57 150.283 115.57 150.706 115.29L153.415 113.492C156.607 111.375 158.5 107.956 158.5 104.314L158.5 98.562C158.5 98.0582 158.141 97.6155 157.62 97.4776L150.334 95.5432C150.116 95.4856 149.885 95.4856 149.667 95.5432Z" stroke="#FFFFFF" stroke-width="1.33333" stroke-linecap="round" stroke-linejoin="round" stroke-miterlimit="10" fill="none" fill-rule="evenodd"/></g></svg>