<svg width="24" height="24" viewBox="0 0 24 24" fill="none" xmlns="http://www.w3.org/2000/svg">
<path d="M5.27321 17.2901C6.50371 19.0434 8.30404 20.2782 10.3434 20.7675C12.3828 21.2569 14.5243 20.968 16.3744 19.9539C18.2245 18.9398 19.6591 17.2686 20.4144 15.2473C21.1697 13.226 21.1952 10.9905 20.486 8.95137C19.7769 6.91225 18.3808 5.20652 16.5543 4.14755C14.7278 3.08859 12.5935 2.74752 10.5435 3.18701C8.49354 3.6265 6.66562 4.81703 5.39555 6.53987C4.12549 8.26271 3.49859 10.4021 3.63004 12.5651M3.63004 12.5651L2 10.8776M3.63004 12.5651L5.26008 10.8776" stroke="white" stroke-width="2" stroke-linecap="round" stroke-linejoin="round"/>
<path d="M12 8V12L15 15" stroke="white" stroke-width="2" stroke-linecap="round" stroke-linejoin="round"/>
</svg>
